<svg width="97" height="301" viewBox="0 0 97 301" fill="none" xmlns="http://www.w3.org/2000/svg">
<path d="M50.619 37.261C52.621 39.954 55.411 42.39 59.001 42.515C59.104 42.526 59.197 42.526 59.3 42.526H59.305C59.403 42.526 59.5061 42.526 59.604 42.515C62.0791 42.423 64.173 41.242 65.892 39.638L66.131 41.819C60.039 47.035 49.748 45.327 49.748 45.327L50.619 37.261Z" fill="#E06A43"/>
<path d="M57.2773 250.977C55.3243 261.393 52.8554 275.057 52.9254 277.053C52.9524 277.853 53.0883 279.523 53.2303 281.606C53.5563 286.398 53.8993 293.387 52.9743 297.048C52.6483 298.321 52.1693 299.196 51.4843 299.43C47.9703 300.643 40.5623 299.506 39.0883 298.146C37.6143 296.786 39.0504 290.058 40.1494 287.186C41.2424 284.314 41.8844 278.189 41.8844 278.189C41.8844 278.189 41.8843 246.282 41.5853 231.009C41.2803 215.741 48.6893 211.504 48.6893 211.504C33.6283 176.785 30.8643 155.642 30.6523 145.58C30.6523 145.58 51.6373 147.391 62.4503 159.412C62.4503 159.412 66.4213 206.592 65.8933 210.9C65.3653 215.208 59.5784 238.874 59.5784 238.874C59.5784 238.874 58.5333 244.248 57.2773 250.977Z" fill="#E79E73"/>
<path d="M77.2224 52.6491C81.6284 54.7651 86.0724 57.2561 87.4974 59.2361C90.6254 63.5711 95.8684 108.532 95.8684 108.532L96.0174 141.898C96.0174 141.898 96.7234 151.071 96.7234 152.18C96.7234 153.29 92.1874 159.186 91.9854 159.844C91.7844 160.497 90.5654 164.469 87.6444 165.628C89.5044 154.01 90.8914 143.039 90.5704 137.686C90.3524 134.053 89.3244 130.125 87.9104 126.296C86.8764 123.5 85.6424 120.759 84.3644 118.213L84.3594 118.202L81.0464 103.238L77.4784 88.3721C78.9414 85.6091 80.2634 82.3021 80.2414 79.3971C80.1924 72.9461 72.3594 50.4331 72.3594 50.4331C73.8614 51.0831 75.5424 51.8391 77.2224 52.6491Z" fill="#E79E73"/>
<path d="M90.5706 136.793C90.8916 142.145 89.5046 154.181 87.6446 165.799C84.5446 185.136 80.1386 206.262 80.1386 206.262C80.1386 206.262 81.5796 222.03 80.5956 229.368C79.6116 236.7 66.4806 272.139 66.4806 272.139C66.4806 272.139 69.0036 291.664 67.5406 294.993C66.0776 298.316 55.9436 298.692 52.9746 297.218C53.8996 293.557 53.5566 286.568 53.2306 281.776C53.2306 281.678 56.8536 271.3 56.8536 271.3L57.2776 251.148C58.5346 244.42 59.5786 239.045 59.5786 239.045C59.5786 239.045 65.3656 215.379 65.8936 211.071C66.4216 206.763 62.4506 158.518 62.4506 158.518C67.8186 142.265 90.5706 136.793 90.5706 136.793Z" fill="#E79E73"/>
<path d="M87.9113 126.297C89.3253 130.126 90.3533 134.054 90.5713 137.687C90.5713 137.687 67.8183 143.159 62.4503 159.412C51.6373 147.391 30.6523 145.58 30.6523 145.58C30.5543 140.886 31.0173 138.601 31.0443 138.471C32.4583 137.851 33.3833 137.187 33.3833 137.187C33.3833 137.187 36.5383 138.661 39.0893 138.737C41.6403 138.813 42.6793 137.263 42.6793 137.263C42.6793 137.263 45.1383 138.792 46.1223 137.562C47.1013 136.333 46.2313 135.865 46.2313 135.865C46.2313 135.865 46.8183 135.957 46.9543 135.446C46.9543 135.446 71.7353 138.704 87.6453 126.4L87.9113 126.297Z" fill="#E06A43"/>
<path d="M87.9082 126.295L87.6482 126.405C71.7382 138.705 46.9482 135.445 46.9482 135.445C47.0882 134.935 32.6182 135.715 31.7582 135.165C31.6382 135.085 31.6482 134.865 31.7582 134.545V125.465C33.8882 112.485 35.6782 110.875 35.6782 110.875L32.4282 97.325C32.4282 97.325 51.1982 89.505 74.0582 95.765L76.3482 104.705C76.3482 104.705 80.5282 110.555 84.3582 118.205L84.3682 118.215C85.6382 120.765 86.8782 123.505 87.9082 126.295Z" fill="#E79E73"/>
<path d="M80.2408 79.399C80.2628 82.304 78.9408 85.611 77.4778 88.374C75.6828 91.757 73.6868 94.319 73.6868 94.319L74.0568 95.766C51.1958 89.5 32.4298 97.327 32.4298 97.327L28.7148 81.847C43.6568 81.825 37.8638 48.858 37.7708 48.352C37.7708 48.347 37.7708 48.347 37.7708 48.347C38.6298 48.102 39.4898 47.868 40.3218 47.645C40.3598 48.129 42.3399 71.175 59.3109 70.729C76.3409 70.283 69.4438 49.456 69.3458 49.162C70.1998 49.51 71.2278 49.94 72.3588 50.435C72.3588 50.435 80.1918 72.948 80.2408 79.399Z" fill="#E06A43"/>
<path d="M73.9038 29.418C73.7518 29.587 73.6098 29.717 73.4958 29.804C72.8108 30.31 71.9508 29.945 71.9508 29.945L71.7168 29.891C71.8418 29.369 71.9288 28.83 71.9828 28.292C72.0918 27.15 72.2328 25.627 72.3368 24.403C72.8808 23.424 73.3378 22.374 73.6748 21.27C73.7458 21.052 73.8108 20.829 73.8708 20.601L73.9198 20.612C74.5508 20.851 75.9218 22.195 75.8838 24.343C75.8408 26.66 74.6878 28.553 73.9038 29.418Z" fill="#E79E73"/>
<path d="M72.4419 22.9609H72.4479C72.4259 23.3309 72.3829 23.8309 72.3389 24.4019C72.2359 25.6259 72.0939 27.1489 71.9849 28.2909C71.9309 28.8299 71.8439 29.3679 71.7189 29.8899C71.5609 30.5699 71.3439 31.2329 71.0659 31.8749C70.4299 33.3219 69.3959 35.3719 67.9769 37.2869C67.3569 38.1189 66.6659 38.9189 65.8939 39.6369C64.1749 41.2419 62.0809 42.4219 59.6059 42.5139C59.5079 42.5249 59.4049 42.5249 59.3069 42.5249H59.3019C59.1989 42.5249 59.1059 42.5249 59.0029 42.5139C55.4129 42.3889 52.6229 39.9519 50.6209 37.2599C49.1739 35.3179 48.1349 33.2349 47.5099 31.7879C47.2599 31.2059 47.0529 30.6129 46.9009 30.0039C46.7539 29.4379 46.6559 28.8619 46.5959 28.2799C46.4599 26.9469 46.3509 25.5659 46.2639 24.3799C46.2309 23.8309 46.1989 23.3189 46.1719 22.8729V22.8679C46.5149 22.6389 57.4199 15.3449 59.1229 7.72992C59.2159 7.34392 59.2749 6.95192 59.3129 6.56592C59.3129 6.56592 70.2669 8.60691 72.4419 22.9609Z" fill="#E79E73"/>
<path d="M69.3463 49.1621C69.4443 49.4561 76.3413 70.2831 59.3113 70.7291C42.3403 71.1751 40.3603 48.1291 40.3223 47.6451C45.4243 46.2691 49.7483 45.3281 49.7483 45.3281C49.7483 45.3281 60.0393 47.0361 66.1313 41.8201L66.8333 48.1511C66.8333 48.1511 67.8123 48.5261 69.3463 49.1571C69.3463 49.1571 69.3463 49.1571 69.3463 49.1621Z" fill="#E79E73"/>
<path d="M59.3107 6.567C59.2727 6.953 59.2127 7.345 59.1207 7.731C57.4187 15.346 46.5127 22.64 46.1697 22.869C46.1747 22.814 46.1857 22.744 46.1967 22.651C46.1807 22.744 46.1697 22.82 46.1637 22.874C46.1587 22.934 46.1527 22.961 46.1527 22.961C46.1527 22.961 45.6197 21.846 44.9347 21.269C44.7387 21.1 44.5267 20.981 44.3147 20.943C43.7977 20.856 43.3687 21.041 43.0857 21.65C42.8407 22.188 42.7047 23.053 42.7267 24.342C42.7807 27.116 44.4287 29.286 45.1147 29.803C45.6097 30.162 46.4527 30.08 46.8987 30.004C47.0507 30.613 47.2577 31.206 47.5077 31.788C48.1337 33.235 49.1717 35.318 50.6187 37.26L49.7487 45.326C49.7487 45.326 45.4247 46.267 40.3227 47.643C39.4907 47.866 38.6307 48.1 37.7717 48.345C37.7717 48.345 37.7717 48.345 37.7717 48.35C34.1007 49.394 30.3357 50.613 27.6707 51.826C26.7567 52.245 25.6257 53.3 24.3367 54.829C20.1537 44.407 27.4317 36.167 34.3777 29.944C42.0357 23.079 44.1577 13.37 44.1577 13.37L44.3807 13.408C45.5987 5.793 51.8217 0 59.3057 0C67.6717 0 74.4547 7.234 74.4547 16.16C74.4547 17.699 74.2537 19.19 73.8727 20.598C73.8127 20.827 73.7477 21.049 73.6767 21.267C73.3397 22.371 72.8827 23.421 72.3387 24.4C72.3817 23.829 72.4257 23.328 72.4477 22.959H72.4417C70.2657 8.607 59.3107 6.567 59.3107 6.567Z" fill="#2B3448"/>
<path d="M77.2226 52.6489C75.5416 51.8379 73.8616 51.083 72.3596 50.435C71.2286 49.94 70.2006 49.5099 69.3466 49.1619C69.3466 49.1569 69.3466 49.157 69.3466 49.157C67.8126 48.526 66.8336 48.1509 66.8336 48.1509L66.1316 41.8199L65.8926 39.6389C66.6646 38.9209 67.3556 38.1209 67.9756 37.2889C69.3956 35.3739 70.4286 33.324 71.0646 31.877C71.3416 31.235 71.5596 30.5709 71.7176 29.8909L71.9516 29.946C71.9516 29.946 72.8106 30.3099 73.4966 29.8049C73.6106 29.7179 73.7526 29.5869 73.9046 29.4189C74.9546 31.8709 79.1646 42.6299 77.2226 52.6489Z" fill="#2B3448"/>
<path d="M31.761 125.465L37.124 120.325L45.06 121.837C45.044 124.823 37.951 124.486 37.951 124.486L36.477 127.358C36.477 127.358 41.867 127.907 42.716 128.451C43.57 129 47.084 134.935 46.953 135.446C46.817 135.957 46.23 135.865 46.23 135.865C46.23 135.865 47.1 136.333 46.121 137.562C45.137 138.791 42.678 137.263 42.678 137.263C42.678 137.263 41.639 138.813 39.088 138.737C36.537 138.661 33.382 137.187 33.382 137.187C33.382 137.187 32.457 137.851 31.043 138.471C29.835 138.993 28.269 139.483 26.615 139.494C23.02 139.51 19.054 133.331 19.054 133.331C19.054 133.331 0 104.677 0 100.82C0 97.459 15.627 65.209 24.335 54.831C25.624 53.303 26.756 52.247 27.669 51.829C30.334 50.616 34.098 49.398 37.77 48.353C37.862 48.859 43.655 81.827 28.714 81.848L27.974 78.758L14.136 99.079L26.157 128.565L31.64 125.579L31.761 125.465Z" fill="#E79E73"/>
<path d="M43.0857 21.6499C43.3687 21.0409 43.7977 20.8559 44.3147 20.9429C44.5267 20.9809 44.7387 21.1009 44.9347 21.2689C45.6197 21.8459 46.1527 22.9609 46.1527 22.9609C46.1527 22.9609 46.1587 22.9339 46.1637 22.8739C46.1687 22.8199 46.1797 22.7429 46.1967 22.6509C46.1857 22.7429 46.1747 22.8139 46.1697 22.8689V22.8739C46.1967 23.3199 46.2297 23.8309 46.2617 24.3809C46.3487 25.5669 46.4577 26.9479 46.5937 28.2809C46.6537 28.8629 46.7517 29.4399 46.8987 30.0049C46.4527 30.0809 45.6097 30.1629 45.1147 29.8039C44.4297 29.2869 42.7817 27.1169 42.7267 24.3429C42.7057 23.0539 42.8417 22.1889 43.0857 21.6499Z" fill="#E79E73"/>
<path d="M74.7383 21.9741V21.9651H75.7383L74.7383 21.9741Z" fill="black"/>
<path d="M58.3874 30.8541C58.3754 30.9761 58.5214 31.0751 58.6854 31.0611C59.5604 30.9671 61.9674 30.6341 62.1744 29.7291C62.3684 28.8701 60.3634 25.1301 59.4454 23.4791C59.3424 23.2861 58.9534 23.3351 58.9354 23.5421L58.3874 30.8541Z" fill="#E06A43"/>
<path d="M62.5199 23.5371C62.4629 23.5371 62.4059 23.5271 62.3499 23.5061C62.0939 23.4121 61.9589 23.1331 62.0499 22.8761C62.0749 22.8031 62.7409 21.1191 65.4099 21.1021C68.0229 21.1121 68.9169 22.3871 68.9539 22.4411C69.1089 22.6701 69.0499 22.9801 68.8209 23.1351C68.5939 23.2891 68.2859 23.2321 68.1309 23.0081C68.0959 22.9621 67.4359 22.1091 65.4059 22.1011C65.3999 22.1011 65.3929 22.1011 65.3859 22.1011C63.4439 22.1011 63.0079 23.1671 62.9899 23.2131C62.9129 23.4131 62.7219 23.5371 62.5199 23.5371Z" fill="#2B3448"/>
<path d="M69.0392 21.039C68.9292 21.039 68.8182 21.003 68.7252 20.928C67.9582 20.309 66.9962 19.905 66.0162 19.789C65.0392 19.675 64.0082 19.844 63.1182 20.268C62.8682 20.388 62.5702 20.281 62.4512 20.032C62.3322 19.782 62.4382 19.484 62.6872 19.365C63.7452 18.861 64.9672 18.657 66.1332 18.795C67.2982 18.932 68.4422 19.413 69.3532 20.149C69.5682 20.322 69.6022 20.637 69.4282 20.852C69.3302 20.975 69.1852 21.039 69.0392 21.039Z" fill="#2B3448"/>
<path d="M64.555 21.67C64.363 21.727 64.39 22.042 64.39 22.258C64.388 22.888 64.897 23.401 65.527 23.404C66.157 23.406 66.67 22.897 66.673 22.267C66.674 22.061 66.62 21.868 66.525 21.701C66.525 21.701 65.413 21.413 64.555 21.67Z" fill="#2B3448"/>
<path d="M56.2999 23.5181C56.0919 23.5181 55.8979 23.3881 55.8269 23.1801C55.8119 23.1421 55.3809 22.0661 53.4229 22.0591C53.4139 22.0591 53.4049 22.0591 53.3969 22.0591C51.3749 22.0591 50.7179 22.9101 50.6909 22.9461C50.5279 23.1641 50.2179 23.2161 49.9959 23.0571C49.7739 22.8981 49.7179 22.5951 49.8729 22.3711C49.9109 22.3171 50.8429 21.0771 53.4269 21.0581C56.1309 21.0681 56.7479 22.7831 56.7729 22.8561C56.8619 23.1171 56.7229 23.4011 56.4619 23.4911C56.4069 23.5101 56.3529 23.5181 56.2999 23.5181Z" fill="#2B3448"/>
<path d="M49.7975 20.9669C49.6495 20.9669 49.5045 20.9019 49.4055 20.7779C49.2335 20.5619 49.2695 20.2469 49.4865 20.0749C50.4045 19.3459 51.5515 18.8739 52.7165 18.7459C53.8825 18.6179 55.1035 18.8299 56.1575 19.3419C56.4065 19.4629 56.5095 19.7619 56.3885 20.0099C56.2675 20.2579 55.9685 20.3629 55.7205 20.2409C54.8335 19.8099 53.8065 19.6319 52.8245 19.7399C51.8445 19.8479 50.8795 20.2449 50.1075 20.8579C50.0155 20.9319 49.9055 20.9669 49.7975 20.9669Z" fill="#2B3448"/>
<path d="M52.3024 21.6471C52.1464 21.7591 52.1514 22.0061 52.1504 22.2121C52.1484 22.8421 52.6574 23.3551 53.2874 23.3581C53.9174 23.3601 54.4304 22.8511 54.4334 22.2211C54.4344 22.0061 54.3754 21.8041 54.2724 21.6321C54.2724 21.6321 52.7774 21.3081 52.3024 21.6471Z" fill="#2B3448"/>
<path d="M64.034 28.955C63.963 30.039 65.258 31.006 66.925 31.115C68.592 31.224 70.001 30.433 70.072 29.349C70.143 28.265 68.848 27.298 67.181 27.189C65.514 27.08 64.105 27.871 64.034 28.955Z" fill="#DF895D"/>
<path d="M49.0985 28.2441C49.0275 29.3281 50.3225 30.2951 51.9895 30.4041C53.6565 30.5131 55.0655 29.7221 55.1355 28.6381C55.2065 27.5541 53.9115 26.5871 52.2445 26.4781C50.5775 26.3691 49.1685 27.1601 49.0985 28.2441Z" fill="#DF895D"/>
<path d="M72.6532 29.117C72.6082 29.117 72.5632 29.111 72.5172 29.098C72.2512 29.023 72.0962 28.747 72.1712 28.481C72.6122 26.91 73.2672 25.406 74.1182 24.01C74.2622 23.774 74.5692 23.7 74.8052 23.844C75.0412 23.988 75.1162 24.295 74.9722 24.531C74.1702 25.848 73.5512 27.268 73.1352 28.752C73.0722 28.972 72.8712 29.117 72.6532 29.117Z" fill="#E06A43"/>
<path d="M46.0385 28.9081C45.8125 28.9081 45.6085 28.7551 45.5535 28.5261C45.1835 26.9991 44.5805 25.5461 43.7615 24.2071C43.6165 23.9711 43.6915 23.6641 43.9265 23.5191C44.1625 23.3751 44.4705 23.4491 44.6145 23.6841C45.4885 25.1121 46.1315 26.6621 46.5255 28.2901C46.5905 28.5581 46.4255 28.8281 46.1575 28.8941C46.1165 28.9041 46.0775 28.9081 46.0385 28.9081Z" fill="#E06A43"/>
<path d="M59.4006 35.2779C58.0236 35.2779 56.0306 34.9399 54.6296 33.2599C54.4526 33.0479 54.4816 32.7319 54.6936 32.5549C54.9066 32.3779 55.2216 32.4069 55.3986 32.6189C57.2946 34.8939 60.7156 34.1589 60.7506 34.1499C61.0196 34.0869 61.2876 34.2589 61.3486 34.5279C61.4096 34.7969 61.2416 35.0649 60.9726 35.1259C60.9076 35.1399 60.2796 35.2779 59.4006 35.2779Z" fill="#2B3448"/>
<path d="M59.1715 124.552C59.1015 124.552 59.0305 124.537 58.9635 124.506C58.7125 124.391 58.6025 124.095 58.7175 123.844L60.1495 120.723C60.2645 120.472 60.5605 120.36 60.8125 120.477C61.0635 120.592 61.1735 120.888 61.0585 121.139L59.6265 124.26C59.5425 124.443 59.3615 124.552 59.1715 124.552Z" fill="#E06A43"/>
<path d="M87.6447 166.129C87.6157 166.129 87.5857 166.126 87.5557 166.121C87.2837 166.072 87.1027 165.812 87.1517 165.54C92.0397 138.351 89.9187 132.876 87.8667 127.582C87.7247 127.213 87.5817 126.846 87.4417 126.472C85.3207 120.802 80.9917 113.009 80.9477 112.93C80.8137 112.689 80.9007 112.385 81.1417 112.25C81.3817 112.116 81.6867 112.202 81.8217 112.444C81.8657 112.523 86.2307 120.381 88.3777 126.122C88.5157 126.491 88.6567 126.855 88.7987 127.221C90.8997 132.644 93.0727 138.251 88.1357 165.718C88.0927 165.959 87.8817 166.129 87.6447 166.129Z" fill="#E06A43"/>
<path d="M89.6067 156.709C89.5397 156.709 89.4717 156.695 89.4067 156.667C89.1537 156.557 89.0387 156.262 89.1497 156.009C89.8167 154.484 90.6747 153.043 91.6987 151.728C91.8677 151.509 92.1817 151.469 92.4007 151.64C92.6187 151.81 92.6577 152.123 92.4877 152.341C91.5147 153.591 90.6997 154.96 90.0657 156.409C89.9827 156.598 89.7997 156.709 89.6067 156.709Z" fill="#E06A43"/>
<path d="M27.1067 80.533C27.0087 80.533 26.9107 80.505 26.8247 80.445C26.5967 80.289 26.5387 79.978 26.6957 79.75L32.2507 71.656C32.4077 71.428 32.7187 71.37 32.9457 71.527C33.1737 71.683 33.2317 71.994 33.0747 72.222L27.5197 80.316C27.4227 80.458 27.2657 80.533 27.1067 80.533Z" fill="#E06A43"/>
<path d="M14.1366 99.579C13.9396 99.579 13.7526 99.462 13.6736 99.267C12.9676 97.536 10.7436 97.808 10.6506 97.823C10.3816 97.857 10.1256 97.667 10.0886 97.394C10.0516 97.121 10.2416 96.87 10.5146 96.832C11.5786 96.685 13.7986 96.927 14.5986 98.89C14.7026 99.145 14.5796 99.437 14.3246 99.541C14.2636 99.567 14.1996 99.579 14.1366 99.579Z" fill="#E06A43"/>
<path d="M36.6835 127.671C36.5565 127.671 36.4295 127.623 36.3315 127.526C36.1355 127.332 36.1345 127.014 36.3285 126.819C36.5955 126.549 36.7545 126.148 36.9235 125.723C37.1495 125.154 37.4065 124.508 37.9915 124.095C38.5805 123.68 39.2955 123.646 39.8705 123.619C41.4915 123.542 42.9385 123.43 44.2295 122.827C44.4265 122.735 44.6445 122.62 44.7695 122.459C44.8555 122.348 44.8755 122.215 44.8455 122.155C44.7735 122.014 44.3935 121.945 44.2505 121.918L40.0235 121.133C39.2115 120.983 38.3715 120.826 37.5855 120.97C36.2965 121.203 35.2625 122.206 34.4215 123.156L33.9875 123.655C33.1805 124.588 32.3465 125.553 31.2195 126.174C30.9765 126.307 30.6735 126.218 30.5405 125.977C30.4075 125.735 30.4955 125.431 30.7375 125.297C31.7065 124.764 32.4465 123.907 33.2305 123.001L33.6725 122.494C34.5715 121.478 35.8085 120.276 37.4065 119.986C38.3715 119.81 39.3455 119.991 40.2045 120.151L44.4315 120.936C44.7565 120.996 45.4345 121.122 45.7325 121.697C45.9495 122.117 45.8815 122.656 45.5585 123.073C45.3015 123.405 44.9385 123.6 44.6505 123.734C43.1975 124.413 41.5815 124.54 39.9165 124.618C39.4485 124.64 38.9165 124.666 38.5665 124.912C38.2245 125.154 38.0435 125.61 37.8515 126.094C37.6525 126.593 37.4475 127.109 37.0375 127.523C36.9405 127.621 36.8125 127.671 36.6835 127.671Z" fill="#E06A43"/>
<path d="M46.9763 136.272C46.7933 136.272 46.6173 136.171 46.5293 135.997C46.4053 135.751 46.5043 135.45 46.7513 135.326C46.7463 135.323 46.7623 135.27 46.7543 135.215C46.7343 135.072 46.6313 134.904 46.5323 134.741L44.0453 130.688C43.6543 130.051 43.2123 129.331 42.5663 128.969C42.1433 128.732 41.6163 128.64 41.1073 128.551L35.5843 127.591C35.3123 127.544 35.1303 127.285 35.1773 127.013C35.2253 126.742 35.4803 126.552 35.7563 126.607L41.2783 127.567C41.8423 127.665 42.4833 127.776 43.0543 128.096C43.9273 128.585 44.4653 129.461 44.8973 130.164L47.3843 134.218C47.5233 134.445 47.6973 134.728 47.7443 135.076C47.8113 135.56 47.5933 136.02 47.1993 136.218C47.1283 136.255 47.0513 136.272 46.9763 136.272Z" fill="#E06A43"/>
<path d="M46.88 136.793C46.802 136.793 46.723 136.775 46.649 136.736C45.621 136.199 44.788 135.402 43.983 134.631C43.159 133.842 42.382 133.097 41.429 132.632C40.416 132.138 39.274 131.992 38.065 131.839C36.731 131.669 35.351 131.493 34.127 130.81C33.886 130.675 33.8 130.371 33.935 130.129C34.069 129.887 34.372 129.802 34.616 129.937C35.67 130.526 36.894 130.682 38.191 130.847C39.428 131.004 40.707 131.166 41.868 131.734C42.961 132.267 43.832 133.102 44.675 133.909C45.465 134.666 46.211 135.38 47.113 135.85C47.358 135.978 47.452 136.28 47.325 136.525C47.235 136.695 47.06 136.793 46.88 136.793Z" fill="#E06A43"/>
<path d="M42.9429 138.161C42.8069 138.161 42.6719 138.105 42.5719 137.997C40.0479 135.212 36.1549 133.73 32.4219 134.125C32.1469 134.156 31.9019 133.955 31.8719 133.681C31.8429 133.407 32.0419 133.16 32.3159 133.131C36.3599 132.7 40.577 134.309 43.3119 137.325C43.497 137.53 43.4819 137.846 43.2769 138.031C43.1829 138.118 43.0629 138.161 42.9429 138.161Z" fill="#E06A43"/>
<path d="M57.2176 254.263C57.1856 254.263 57.1526 254.26 57.1186 254.253C56.8476 254.199 56.6726 253.936 56.7266 253.665C56.7896 253.352 63.0026 222.269 65.4016 210.798C67.7826 199.414 62.0116 159.883 61.9536 159.485C61.9136 159.212 62.1016 158.958 62.3756 158.917C62.6476 158.883 62.9026 159.067 62.9426 159.339C63.1826 160.972 68.7976 199.446 66.3806 211.003C63.9826 222.47 57.7696 253.548 57.7076 253.86C57.6606 254.098 57.4516 254.263 57.2176 254.263Z" fill="#E06A43"/>
<path d="M58.0987 214.044C56.4447 214.044 54.7897 213.563 53.4087 212.644C53.1787 212.492 53.1167 212.181 53.2687 211.951C53.4217 211.721 53.7317 211.659 53.9617 211.812C55.7277 212.986 58.0037 213.348 60.0457 212.783C60.3117 212.707 60.5877 212.864 60.6617 213.131C60.7357 213.398 60.5797 213.673 60.3137 213.746C59.5927 213.945 58.8457 214.044 58.0987 214.044Z" fill="#E06A43"/>
<path d="M70.2268 213.434C70.0588 213.434 69.8918 213.429 69.7248 213.419C69.4498 213.403 69.2388 213.167 69.2548 212.891C69.2708 212.616 69.4968 212.386 69.7828 212.421C71.8418 212.547 73.9078 211.822 75.4498 210.449C75.6538 210.265 75.9698 210.283 76.1558 210.489C76.3398 210.696 76.3208 211.012 76.1148 211.195C74.5018 212.633 72.3798 213.434 70.2268 213.434Z" fill="#E06A43"/>
<path d="M52.7853 297.539C52.7593 297.539 52.7333 297.537 52.7063 297.533C52.4343 297.489 52.2483 297.233 52.2913 296.961C53.3433 290.337 53.3703 283.616 52.3693 276.985C52.3283 276.713 52.5163 276.458 52.7893 276.417C53.0633 276.373 53.3173 276.564 53.3583 276.837C54.3743 283.569 54.3473 290.393 53.2783 297.117C53.2393 297.363 53.0273 297.539 52.7853 297.539Z" fill="#E06A43"/>
<path d="M48.2361 300.338C48.1801 300.338 48.1241 300.329 48.0691 300.31C47.8091 300.217 47.6731 299.931 47.7651 299.671C48.0711 298.807 48.0881 297.849 47.8121 296.974C47.7291 296.71 47.8751 296.43 48.1391 296.347C48.4041 296.267 48.6831 296.411 48.7661 296.673C49.1071 297.754 49.0861 298.938 48.7071 300.005C48.6341 300.21 48.4411 300.338 48.2361 300.338Z" fill="#E06A43"/>
<path d="M44.709 300.151C44.647 300.151 44.585 300.14 44.525 300.116C44.268 300.014 44.143 299.723 44.244 299.467C44.521 298.768 44.614 298.004 44.512 297.257C44.475 296.984 44.666 296.732 44.94 296.694C45.211 296.659 45.465 296.847 45.503 297.122C45.628 298.038 45.514 298.976 45.174 299.836C45.096 300.032 44.908 300.151 44.709 300.151Z" fill="#E06A43"/>
<path d="M41.8234 299.637C41.7544 299.637 41.6834 299.622 41.6164 299.591C41.3644 299.477 41.2554 299.18 41.3694 298.929C41.6354 298.347 41.7684 297.701 41.7534 297.061C41.7474 296.785 41.9654 296.556 42.2414 296.549C42.4914 296.528 42.7464 296.761 42.7534 297.037C42.7714 297.828 42.6074 298.627 42.2784 299.345C42.1954 299.528 42.0134 299.637 41.8234 299.637Z" fill="#E06A43"/>
<path d="M40.0624 298.941C39.9854 298.941 39.9074 298.923 39.8334 298.885C39.5884 298.759 39.4914 298.457 39.6184 298.212C39.8624 297.737 40.0174 297.207 40.0684 296.677C40.0944 296.403 40.3384 296.208 40.6134 296.226C40.8884 296.252 41.0904 296.497 41.0634 296.771C41.0014 297.427 40.8094 298.084 40.5074 298.669C40.4194 298.843 40.2444 298.941 40.0624 298.941Z" fill="#E06A43"/>
<path d="M55.8049 298.384C55.5329 298.384 55.3099 298.167 55.3049 297.894L55.2579 295.579C55.2519 295.303 55.4709 295.074 55.7479 295.068C56.0219 295.056 56.2519 295.282 56.2579 295.557L56.3049 297.874C56.3099 298.149 56.0909 298.378 55.8149 298.384C55.8119 298.384 55.8079 298.384 55.8049 298.384Z" fill="#E06A43"/>
<path d="M59.4323 298.522C59.1593 298.522 58.9353 298.302 58.9323 298.028L58.9063 295.665C58.9033 295.389 59.1243 295.162 59.4013 295.159C59.4033 295.159 59.4043 295.159 59.4063 295.159C59.6793 295.159 59.9033 295.379 59.9063 295.653L59.9323 298.016C59.9353 298.292 59.7143 298.519 59.4373 298.522C59.4373 298.522 59.4343 298.522 59.4323 298.522Z" fill="#E06A43"/>
<path d="M62.3458 297.967C62.0938 297.967 61.8768 297.777 61.8488 297.521L61.6378 295.573C61.6078 295.299 61.8068 295.052 62.0808 295.022C62.3488 294.994 62.6008 295.19 62.6318 295.465L62.8428 297.413C62.8728 297.687 62.6748 297.934 62.3998 297.964C62.3828 297.966 62.3638 297.967 62.3458 297.967Z" fill="#E06A43"/>
<path d="M65.2133 297.133C64.9713 297.133 64.7593 296.957 64.7203 296.711L64.4693 295.132C64.4253 294.86 64.6123 294.604 64.8843 294.56C65.1573 294.521 65.4133 294.704 65.4563 294.976L65.7073 296.555C65.7503 296.827 65.5643 297.083 65.2913 297.127C65.2653 297.131 65.2393 297.133 65.2133 297.133Z" fill="#E06A43"/>
<path d="M43.1273 277.935C42.9223 277.935 42.7303 277.808 42.6563 277.604C42.5633 277.343 42.6983 277.057 42.9583 276.964C44.3653 276.46 45.9314 276.407 47.3664 276.818C47.6324 276.893 47.7863 277.17 47.7103 277.435C47.6353 277.701 47.3563 277.86 47.0923 277.779C45.8563 277.428 44.5073 277.472 43.2943 277.906C43.2393 277.926 43.1833 277.935 43.1273 277.935Z" fill="#E06A43"/>
<path d="M62.7224 272.452C62.6884 272.452 62.6534 272.448 62.6184 272.441C61.3624 272.175 60.0744 271.996 58.7894 271.907C58.5144 271.887 58.3064 271.649 58.3254 271.374C58.3444 271.099 58.5924 270.887 58.8594 270.909C60.1894 271.002 61.5244 271.187 62.8254 271.463C63.0954 271.521 63.2684 271.785 63.2114 272.056C63.1614 272.291 62.9544 272.452 62.7224 272.452Z" fill="#E06A43"/>
</svg>
