<svg width="101" height="310" viewBox="0 0 101 310" fill="none" xmlns="http://www.w3.org/2000/svg">
<path d="M52.5909 38.486L52.9229 40.548C52.0039 41.505 51.0839 42.289 50.1709 42.925C42.9589 47.956 36.2949 43.839 36.2949 43.839L36.4359 42.882L37.1269 38.395C39.0359 40.603 41.5219 42.404 44.5949 42.513C44.6979 42.524 44.7909 42.524 44.8939 42.524H44.8989C44.9969 42.524 45.0999 42.524 45.1979 42.513C48.2339 42.403 50.6929 40.651 52.5909 38.486Z" fill="#E06A43"/>
<path d="M75.6692 125.406C73.6732 126.298 71.1382 126.733 68.5492 125.335L65.1712 127.652C65.1712 127.652 63.5452 131.177 61.3092 131.617C60.7322 131.731 60.1122 131.639 59.4762 131.231L62.9032 125.688L67.0372 122.31L63.2572 122.914C63.2572 122.914 59.0472 129.697 56.4522 127.804L59.4762 122.06C59.4762 122.06 56.0442 123.67 54.4342 121.908L56.1962 119.743C56.1962 119.743 54.3092 120.396 53.5742 118.835L59.0192 114.549C59.0192 114.549 67.2322 112.292 69.8322 112.259C70.1152 112.254 70.3322 112.275 70.4632 112.33C71.8232 112.885 74.3412 115.506 74.3412 115.506C74.3412 115.506 84.8662 99.1389 86.1122 98.7959L71.4422 73.0899L70.9912 74.9069L70.5992 74.9019C70.6322 69.2609 68.1132 63.8769 66.8842 60.1119C65.5842 56.1199 64.5232 49.3859 64.2512 47.5959C69.2392 48.3189 74.7872 49.4779 77.8712 51.2399C84.3712 54.9709 90.6212 67.3189 94.3032 77.0489C97.9802 86.7739 102.163 101.645 100.651 105.274C99.1392 108.902 79.6822 122.614 79.6822 122.614C79.6822 122.614 78.0622 124.34 75.6692 125.406Z" fill="#E79E73"/>
<path d="M76.3935 127.848C76.7415 129.115 77.0575 130.421 77.3235 131.764C63.5565 137.84 48.3105 160.211 48.3105 160.211C40.5215 146.803 19.9505 142.316 19.9505 142.316C18.8195 141.261 17.9655 140.51 17.9655 140.51C17.7855 139.014 17.4375 136.202 17.0195 132.868L17.5905 132.797C17.5905 132.797 36.3075 139.297 61.6375 132.889C66.3525 131.7 71.2975 130.062 76.3935 127.848Z" fill="#E06A43"/>
<path d="M78.0255 136.149C81.5015 165.559 67.3645 211.451 67.3645 211.451C67.3645 211.451 69.8555 225.74 66.4565 236.173C63.0565 246.606 54.2075 287.661 54.2075 287.661C54.2075 287.661 55.8995 293.78 58.4175 297.511C60.9355 301.242 63.5145 306.638 50.9875 307.492C51.3955 306.089 51.0905 304.027 50.8565 302.956C50.5035 301.341 46.2715 282.667 46.2715 282.667C46.2715 282.667 48.5395 220.974 48.9915 217.575C49.4485 214.17 48.3115 160.212 48.3115 160.212C48.3115 160.212 63.5575 137.84 77.3245 131.765C77.6125 133.19 77.8455 134.648 78.0255 136.149Z" fill="#E79E73"/>
<path d="M76.3965 127.849C71.2965 130.059 66.3565 131.699 61.6365 132.889C36.3065 139.299 17.5865 132.799 17.5865 132.799L17.0165 132.869C16.6065 129.659 16.1265 125.969 15.6465 122.529C17.7565 114.409 20.9565 108.179 20.9565 108.179L20.1065 96.1491C20.1065 96.1491 38.8865 90.9391 65.0265 96.1491L65.1265 105.279C65.1265 105.279 67.2765 107.829 69.8365 112.259C73.4565 117.049 75.6665 125.409 75.6665 125.409C75.9265 126.199 76.1665 127.019 76.3965 127.849Z" fill="#E79E73"/>
<path d="M53.8796 46.504C53.8796 46.504 57.4256 46.711 61.9136 47.276C61.9136 47.276 61.3916 72.639 42.8216 71.655C24.2516 70.676 25.1496 47.211 25.1496 47.211C25.4546 47.162 36.1156 44.992 36.1156 44.992L36.2956 43.839C36.2956 43.839 42.9586 47.956 50.1716 42.925L51.5636 43.741C52.1886 43.806 52.8196 43.839 53.4506 43.839L53.8796 46.504Z" fill="#E79E73"/>
<path d="M52.9229 40.5481L53.4509 43.8391C52.8199 43.8391 52.1889 43.8061 51.5639 43.7411L50.1719 42.9251C51.0839 42.2881 52.0029 41.5051 52.9229 40.5481Z" fill="#E79E73"/>
<path d="M17.8649 88.974C16.9839 87.32 16.0209 85.041 15.4989 82.316C14.3619 76.42 18.8219 66.216 21.0149 61.146C23.2069 56.082 23.4359 47.145 23.4359 47.145C24.4529 47.161 25.0889 47.221 25.1489 47.21C25.1489 47.21 24.2519 70.675 42.8209 71.654C61.3909 72.638 61.9129 47.275 61.9129 47.275C62.6689 47.367 63.4519 47.476 64.2519 47.596C64.5239 49.385 65.5849 56.119 66.8849 60.112C68.1139 63.876 70.6329 69.261 70.5999 74.902C70.5889 76.213 70.4419 77.54 70.1099 78.862C68.3419 85.868 64.9699 90.513 64.9699 90.513L65.0299 96.154C38.8829 90.938 20.1019 96.154 20.1019 96.154L19.8079 91.993C19.8079 91.993 18.8879 90.899 17.8649 88.974Z" fill="#E06A43"/>
<path d="M60.4936 20.988C61.1246 21.227 61.5165 22.19 61.4775 24.339C61.4285 27.113 59.7805 29.283 59.0895 29.8C58.4045 30.306 57.5446 29.941 57.5446 29.941L57.3105 29.887C57.4355 29.365 57.5225 28.826 57.5775 28.288C57.6865 27.146 57.8275 25.623 57.9315 24.399C58.4755 23.42 58.9326 22.37 59.2696 21.266C59.4706 21.097 59.6775 20.978 59.8955 20.94C60.1125 20.901 60.3086 20.912 60.4936 20.988Z" fill="#E79E73"/>
<path d="M37.1267 38.394C36.8057 38.024 36.5017 37.643 36.2127 37.257C34.7657 35.315 33.7267 33.232 33.1017 31.785C32.8517 31.203 32.6447 30.61 32.4927 30.001C32.3457 29.435 32.2477 28.859 32.1877 28.277C32.0517 26.944 31.9427 25.563 31.8557 24.377C31.8227 23.828 31.7907 23.316 31.7637 22.87C31.7687 22.816 31.7797 22.745 31.7907 22.647C31.7967 22.598 31.8017 22.549 31.8127 22.489C31.8287 22.375 31.8507 22.239 31.8777 22.086C31.9047 21.945 31.9317 21.787 31.9647 21.618C31.9697 21.585 31.9807 21.558 31.9867 21.526C32.0027 21.45 32.0247 21.368 32.0407 21.287C32.1167 20.933 32.2147 20.531 32.3287 20.09C32.3557 19.981 32.3887 19.867 32.4207 19.753C32.4857 19.524 32.5567 19.285 32.6327 19.04C32.7467 18.676 32.8777 18.289 33.0187 17.892C33.1167 17.631 33.2197 17.359 33.3287 17.087C33.4427 16.81 33.5577 16.532 33.6827 16.249C34.1237 15.259 34.6617 14.236 35.3147 13.219C35.4997 12.931 35.6957 12.637 35.9017 12.354C36.1087 12.066 36.3257 11.783 36.5487 11.5C36.8917 11.076 37.2507 10.662 37.6367 10.26C37.7667 10.129 37.8977 9.993 38.0337 9.863C38.4357 9.471 38.8657 9.09101 39.3227 8.72601C39.5347 8.55201 39.7527 8.38901 39.9807 8.22601C40.2037 8.06301 40.4377 7.905 40.6767 7.747C40.9157 7.595 41.1607 7.448 41.4107 7.301C41.6607 7.16 41.9167 7.018 42.1827 6.888C42.1827 6.888 42.1987 6.888 42.2367 6.899C42.2587 6.899 42.2797 6.905 42.3077 6.91C42.3077 6.91 47.8237 21.982 58.0327 22.956H58.0387C58.0167 23.326 57.9737 23.826 57.9297 24.397C57.8267 25.621 57.6847 27.144 57.5757 28.286C57.5217 28.824 57.4347 29.363 57.3087 29.885C57.1507 30.565 56.9337 31.228 56.6557 31.87C56.0197 33.317 54.9857 35.367 53.5667 37.282C53.2617 37.69 52.9357 38.093 52.5877 38.484C50.6897 40.649 48.2307 42.4 45.1957 42.509C45.0977 42.52 44.9947 42.52 44.8967 42.52H44.8917C44.7887 42.52 44.6957 42.52 44.5927 42.509C41.5217 42.403 39.0357 40.602 37.1267 38.394Z" fill="#E79E73"/>
<path d="M50.8565 302.956C51.0905 304.028 51.3954 306.089 50.9874 307.492C50.7864 308.194 50.4054 308.738 49.7474 308.901C47.7834 309.407 34.2725 310.718 32.4125 308.096C30.5465 305.474 32.7604 300.133 33.8214 294.688C34.8825 289.243 34.4255 285.012 34.4255 285.012C34.4255 285.012 26.7124 244.386 25.6574 235.721C24.5964 227.051 26.7674 220.747 26.7674 220.747C12.4784 184.799 12.6524 163.139 12.6524 163.139C12.6524 163.139 13.2834 164.803 15.3724 165.913C15.3724 165.913 19.9364 171.755 21.3234 172.663C22.7104 173.571 23.4124 169.263 21.7254 166.614L24.9014 170.596C24.9014 170.596 27.1914 168.785 25.7064 165.962C24.2214 163.139 22.9324 159.712 22.9324 159.712L23.1885 157.139C23.1885 157.139 25.0264 160.212 26.9194 161.675C28.8064 163.138 30.7974 162.029 30.7974 162.029C30.7974 162.029 28.2794 159.07 28.2794 158.205C28.2794 157.34 26.1094 150.639 25.4564 148.572C25.0324 147.234 22.0244 144.253 19.9524 142.317C19.9524 142.317 40.5234 146.804 48.3124 160.212C48.3124 160.212 49.4494 214.17 48.9924 217.575C48.5414 220.975 46.2724 282.667 46.2724 282.667C46.2724 282.667 50.5025 301.34 50.8565 302.956Z" fill="#E79E73"/>
<path d="M67.4076 38.318C63.6976 41.853 58.5746 43.855 53.4506 43.839L52.9226 40.548L52.5906 38.486C52.9386 38.094 53.2646 37.692 53.5696 37.284C54.9896 35.369 56.0226 33.319 56.6596 31.872C56.9366 31.23 57.1546 30.567 57.3126 29.887L57.5466 29.941C57.5466 29.941 58.4056 30.305 59.0916 29.8C59.7826 29.283 61.4306 27.113 61.4796 24.339C61.5176 22.191 61.1256 21.228 60.4956 20.988C60.3106 20.912 60.1146 20.901 59.8976 20.939C59.6806 20.977 59.4736 21.097 59.2726 21.265C58.9356 22.369 58.4786 23.419 57.9346 24.398C57.9786 23.827 58.0216 23.326 58.0436 22.957H58.0376C47.8286 21.983 42.3126 6.911 42.3126 6.911C42.2366 6.889 42.1926 6.884 42.1926 6.884C42.1926 6.884 42.1866 6.884 42.1866 6.889C41.9206 7.02 41.6646 7.161 41.4146 7.302C41.1646 7.449 40.9196 7.596 40.6806 7.748C40.4416 7.906 40.2076 8.06301 39.9846 8.22701C39.7566 8.39001 39.5386 8.553 39.3266 8.728C38.8696 9.092 38.4396 9.47301 38.0376 9.86501C37.9016 9.99001 37.7706 10.126 37.6406 10.262C37.2546 10.664 36.8956 11.078 36.5526 11.502C36.3296 11.785 36.1116 12.068 35.9056 12.356C35.6986 12.639 35.5036 12.933 35.3186 13.221C34.6656 14.238 34.1276 15.261 33.6866 16.251C33.5616 16.534 33.4416 16.811 33.3326 17.089C33.2236 17.361 33.1206 17.633 33.0226 17.894C32.8756 18.291 32.7506 18.677 32.6366 19.042C32.5546 19.287 32.4846 19.526 32.4246 19.755C32.3916 19.869 32.3596 19.984 32.3326 20.092C32.2126 20.533 32.1146 20.935 32.0386 21.289C32.0226 21.371 32.0056 21.452 31.9896 21.528C31.9846 21.561 31.9736 21.588 31.9676 21.62C31.9346 21.789 31.9076 21.946 31.8806 22.088C31.8536 22.24 31.8316 22.376 31.8156 22.491C31.8046 22.551 31.7996 22.6 31.7936 22.649C31.7776 22.741 31.7666 22.818 31.7606 22.872C31.7556 22.932 31.7496 22.959 31.7496 22.959C31.7496 22.959 31.2166 21.844 30.5316 21.267C30.3356 21.098 30.1236 20.979 29.9116 20.941C29.3946 20.854 28.9656 21.039 28.6826 21.648C28.4376 22.186 28.3016 23.051 28.3236 24.34C28.3776 27.114 30.0256 29.284 30.7116 29.801C31.2066 30.16 32.0496 30.078 32.4956 30.002C32.6476 30.611 32.8546 31.204 33.1046 31.786C33.7296 33.233 34.7686 35.316 36.2156 37.258C36.5036 37.644 36.8086 38.025 37.1296 38.395L36.4386 42.882L36.3186 42.866C34.5456 42.512 32.7666 41.876 31.3796 40.995C29.2096 39.602 26.7346 38.259 24.1836 38.662C25.1576 33.799 25.1296 28.801 25.4616 23.851C25.7936 18.901 26.5276 13.859 28.8666 9.486C31.1946 5.113 36.9226 0.848004 41.8506 0.326004C41.8616 0.321004 41.8666 0.320999 41.8776 0.320999C42.8516 0.108999 43.8686 0 44.9016 0C50.5856 0 55.5406 3.34 58.1356 8.289C63.4806 17.344 62.9856 28.777 67.4076 38.318Z" fill="#2B3448"/>
<path d="M28.6797 21.646C28.9627 21.037 29.3927 20.852 29.9087 20.939C30.1207 20.977 30.3327 21.097 30.5287 21.265C31.2137 21.842 31.7467 22.957 31.7467 22.957C31.7467 22.957 31.7517 22.93 31.7577 22.87C31.7627 22.816 31.7737 22.739 31.7907 22.647C31.7797 22.745 31.7687 22.816 31.7637 22.87C31.7907 23.316 31.8237 23.827 31.8557 24.377C31.9427 25.563 32.0517 26.944 32.1877 28.277C32.2477 28.859 32.3457 29.436 32.4927 30.001C32.0467 30.077 31.2037 30.159 30.7087 29.8C30.0237 29.283 28.3757 27.113 28.3207 24.339C28.2987 23.05 28.4347 22.185 28.6797 21.646Z" fill="#E79E73"/>
<path d="M17.9637 140.511C17.9637 140.511 18.8176 141.262 19.9487 142.317C22.0207 144.253 25.0286 147.234 25.4526 148.572C26.1056 150.639 28.2756 157.34 28.2756 158.205C28.2756 159.07 30.7937 162.029 30.7937 162.029C30.7937 162.029 28.8027 163.139 26.9157 161.675C25.0227 160.212 23.1846 157.139 23.1846 157.139L22.9287 159.712C22.9287 159.712 24.2176 163.139 25.7026 165.962C27.1876 168.785 24.8977 170.596 24.8977 170.596L21.7217 166.614C23.4077 169.263 22.7057 173.571 21.3197 172.663C19.9327 171.755 15.3687 165.913 15.3687 165.913C13.2797 164.803 12.6487 163.139 12.6487 163.139C12.6487 163.139 10.0266 160.011 9.77165 155.578C9.51565 151.265 9.75565 144.047 9.77165 143.639C7.83565 137.46 0.399648 113.658 0.0516479 111.727C-0.356352 109.508 1.66167 67.021 5.79567 56.284C9.10867 47.684 19.3396 47.07 23.4356 47.146C23.4356 47.146 23.2067 56.083 21.0147 61.147C18.8227 66.216 14.3626 76.42 15.4986 82.317C16.0206 85.042 16.9837 87.321 17.8647 88.975L13.8616 111.428C14.3076 113.326 14.9716 117.689 15.6456 122.53C16.1246 125.973 16.6026 129.661 17.0166 132.87C17.4366 136.203 17.7847 139.015 17.9637 140.511Z" fill="#E79E73"/>
<path d="M28.875 21.593V21.584H29.875L28.875 21.593Z" fill="black"/>
<path d="M46.2279 30.474C46.2399 30.595 46.0939 30.694 45.9299 30.681C45.0549 30.587 42.6479 30.254 42.4409 29.349C42.2469 28.49 44.2519 24.75 45.1699 23.099C45.2729 22.906 45.6619 22.955 45.6799 23.162L46.2279 30.474Z" fill="#E06A43"/>
<path d="M42.0947 23.1609C41.8887 23.1609 41.6957 23.0319 41.6227 22.8259C41.6067 22.7879 41.1717 21.7219 39.2307 21.7219C39.2237 21.7219 39.2167 21.7219 39.2097 21.7219C37.1667 21.7289 36.5107 22.5929 36.4837 22.6299C36.3237 22.8489 36.0147 22.9049 35.7897 22.7469C35.5667 22.5899 35.5087 22.2869 35.6617 22.0609C35.6987 22.0069 36.5927 20.7319 39.2057 20.7219C39.2147 20.7219 39.2227 20.7219 39.2307 20.7219C41.9137 20.7219 42.5397 22.4229 42.5647 22.4949C42.6567 22.7549 42.5187 23.0409 42.2577 23.1319C42.2047 23.1519 42.1487 23.1609 42.0947 23.1609Z" fill="#2B3448"/>
<path d="M35.575 20.6579C35.429 20.6579 35.284 20.5949 35.185 20.4719C35.012 20.2569 35.045 19.9419 35.26 19.7689C36.173 19.0329 37.316 18.5519 38.48 18.4159C39.644 18.2819 40.867 18.4809 41.925 18.9859C42.175 19.1049 42.28 19.4029 42.161 19.6519C42.042 19.9019 41.743 20.0069 41.495 19.8879C40.604 19.4639 39.581 19.2959 38.597 19.4089C37.617 19.5239 36.655 19.9279 35.887 20.5469C35.795 20.6219 35.684 20.6579 35.575 20.6579Z" fill="#2B3448"/>
<path d="M40.0594 21.289C40.2514 21.347 40.2234 21.661 40.2244 21.877C40.2264 22.507 39.7174 23.02 39.0874 23.023C38.4574 23.025 37.9444 22.516 37.9414 21.886C37.9404 21.68 37.9944 21.487 38.0894 21.32C38.0894 21.32 39.2014 21.032 40.0594 21.289Z" fill="#2B3448"/>
<path d="M48.3156 23.134C48.2596 23.134 48.2036 23.125 48.1486 23.105C47.8916 23.012 47.7546 22.735 47.8436 22.477C47.8676 22.404 48.4856 20.688 51.1896 20.678C51.1996 20.678 51.2096 20.678 51.2186 20.678C53.8096 20.678 54.7066 21.937 54.7436 21.991C54.8996 22.218 54.8426 22.53 54.6156 22.686C54.3896 22.839 54.0836 22.787 53.9246 22.564C53.8886 22.517 53.2266 21.678 51.2196 21.678C51.2106 21.678 51.2016 21.678 51.1936 21.678C49.2356 21.685 48.8046 22.762 48.7876 22.807C48.7116 23.008 48.5186 23.134 48.3156 23.134Z" fill="#2B3448"/>
<path d="M54.8184 20.586C54.7094 20.586 54.5995 20.55 54.5075 20.478C53.7345 19.865 52.7695 19.467 51.7894 19.36C50.8094 19.253 49.7815 19.431 48.8945 19.861C48.6475 19.983 48.3465 19.878 48.2265 19.63C48.1055 19.381 48.2084 19.082 48.4574 18.961C49.5124 18.449 50.7315 18.239 51.8985 18.365C53.0625 18.493 54.2095 18.965 55.1275 19.694C55.3445 19.866 55.3805 20.18 55.2085 20.397C55.1115 20.521 54.9654 20.586 54.8184 20.586Z" fill="#2B3448"/>
<path d="M52.3107 21.266C52.4667 21.377 52.4617 21.625 52.4627 21.831C52.4647 22.461 51.9557 22.974 51.3257 22.977C50.6957 22.979 50.1827 22.47 50.1797 21.84C50.1787 21.625 50.2377 21.423 50.3407 21.251C50.3407 21.251 51.8367 20.928 52.3107 21.266Z" fill="#2B3448"/>
<path d="M40.5798 28.574C40.6508 29.658 39.3559 30.625 37.6889 30.734C36.0219 30.843 34.6128 30.052 34.5418 28.968C34.4708 27.884 35.7658 26.917 37.4328 26.808C39.1008 26.7 40.5088 27.49 40.5798 28.574Z" fill="#DF895D"/>
<path d="M55.5183 27.8639C55.5893 28.9479 54.2943 29.9149 52.6273 30.0239C50.9603 30.1329 49.5513 29.3419 49.4813 28.2579C49.4103 27.1739 50.7053 26.2069 52.3723 26.0979C54.0383 25.9889 55.4473 26.7799 55.5183 27.8639Z" fill="#DF895D"/>
<path d="M31.9615 28.7361C31.7435 28.7361 31.5425 28.5921 31.4805 28.3711C31.0635 26.8871 30.4455 25.4671 29.6435 24.1501C29.4995 23.9141 29.5745 23.6071 29.8105 23.4631C30.0465 23.3181 30.3535 23.3941 30.4975 23.6301C31.3475 25.0251 32.0025 26.5291 32.4445 28.1011C32.5195 28.3671 32.3645 28.6431 32.0985 28.7181C32.0525 28.7301 32.0065 28.7361 31.9615 28.7361Z" fill="#E06A43"/>
<path d="M58.5763 28.5279C58.5373 28.5279 58.4983 28.5239 58.4583 28.5139C58.1903 28.4489 58.0253 28.1789 58.0903 27.9099C58.4853 26.2819 59.1283 24.7319 60.0013 23.3039C60.1463 23.0669 60.4563 22.9939 60.6893 23.1379C60.9243 23.2829 60.9993 23.5899 60.8553 23.8259C60.0363 25.1649 59.4333 26.6179 59.0633 28.1459C59.0073 28.3749 58.8023 28.5279 58.5763 28.5279Z" fill="#E06A43"/>
<path d="M45.215 34.898C44.336 34.898 43.708 34.76 43.644 34.746C43.376 34.685 43.208 34.417 43.268 34.148C43.33 33.879 43.603 33.714 43.866 33.771C43.901 33.78 47.322 34.517 49.218 32.24C49.395 32.027 49.71 32.001 49.922 32.176C50.134 32.353 50.162 32.668 49.985 32.88C48.585 34.559 46.592 34.898 45.215 34.898Z" fill="#2B3448"/>
<path d="M25.4536 149.072C25.2416 149.072 25.0446 148.936 24.9766 148.723C24.5586 147.408 20.2846 142.827 17.5136 140.068C17.4296 139.984 17.3776 139.874 17.3686 139.755C16.8346 133.47 15.1686 122.713 15.1526 122.605C15.1096 122.332 15.2976 122.077 15.5706 122.034C15.8436 121.995 16.0986 122.179 16.1416 122.451C16.1586 122.558 17.7976 133.144 18.3496 139.488C19.4996 140.638 25.3316 146.538 25.9306 148.42C26.0136 148.683 25.8686 148.964 25.6056 149.048C25.5556 149.064 25.5046 149.072 25.4536 149.072Z" fill="#E06A43"/>
<path d="M28.364 163.827C28.217 163.827 28.067 163.801 27.917 163.742C27.539 163.595 27.305 163.288 27.134 163.065L22.821 157.424C22.654 157.204 22.696 156.891 22.915 156.723C23.136 156.555 23.448 156.598 23.616 156.817L27.929 162.458C28.033 162.595 28.163 162.765 28.281 162.81C28.494 162.898 28.819 162.591 28.947 162.286C29.32 161.39 28.994 160.319 28.596 159.21L24.748 148.471C24.655 148.21 24.79 147.924 25.05 147.831C25.307 147.739 25.596 147.873 25.689 148.133L29.537 158.872C29.985 160.122 30.38 161.445 29.869 162.671C29.605 163.303 29.013 163.827 28.364 163.827Z" fill="#E06A43"/>
<path d="M24.6879 169.854C24.0849 169.854 23.5089 169.496 23.1589 169.07C22.8659 168.715 22.6829 168.318 22.5049 167.935C22.4309 167.775 22.3569 167.616 22.2749 167.46C21.8049 166.576 21.0629 165.872 20.2759 165.126C19.4559 164.349 18.6069 163.544 18.0629 162.496C17.3269 161.08 17.2779 159.49 17.2309 157.952C17.1869 156.514 17.1439 155.157 16.5799 153.965C16.4609 153.716 16.5679 153.417 16.8179 153.299C17.0669 153.182 17.3659 153.287 17.4829 153.537C18.1369 154.917 18.1839 156.444 18.2299 157.921C18.2759 159.413 18.3199 160.821 18.9509 162.035C19.4179 162.933 20.1689 163.646 20.9649 164.4C21.7749 165.169 22.6119 165.963 23.1579 166.991C23.2489 167.161 23.3309 167.338 23.4119 167.513C23.5699 167.855 23.7199 168.177 23.9309 168.434C24.1649 168.718 24.5769 168.945 24.8769 168.814C25.3219 168.616 25.2859 167.774 25.1199 167.114C24.7599 165.683 24.2859 164.268 23.7099 162.909C23.6069 162.664 23.4999 162.421 23.3919 162.177C22.9869 161.257 22.5689 160.305 22.3339 159.288C21.9419 157.589 22.0909 155.849 22.2349 154.165C22.3699 152.588 22.4979 151.097 22.2199 149.633C22.1679 149.362 22.3459 149.1 22.6179 149.048C22.8899 149 23.1509 149.175 23.2019 149.445C23.5059 151.046 23.3659 152.675 23.2309 154.251C23.0869 155.931 22.9509 157.518 23.3079 159.064C23.5219 159.989 23.9029 160.856 24.3069 161.775C24.4159 162.023 24.5249 162.271 24.6299 162.519C25.2259 163.926 25.7159 165.39 26.0879 166.871C26.4419 168.278 26.1399 169.347 25.2809 169.729C25.0859 169.816 24.8859 169.854 24.6879 169.854Z" fill="#E06A43"/>
<path d="M21.0557 173.087C20.9117 173.087 20.7647 173.064 20.6167 173.015C20.1217 172.852 19.8117 172.452 19.5847 172.161L16.8077 168.591C16.0227 167.583 15.2117 166.541 14.6657 165.326C13.9327 163.694 13.7517 161.91 13.5777 160.184C13.4107 158.541 13.2547 156.99 12.6627 155.554C12.5577 155.299 12.6797 155.006 12.9347 154.902C13.1897 154.796 13.4827 154.918 13.5877 155.174C14.2347 156.744 14.4067 158.443 14.5737 160.084C14.7477 161.806 14.9127 163.433 15.5787 164.916C16.0757 166.022 16.8497 167.016 17.5977 167.977L20.3757 171.546C20.5677 171.793 20.7417 172.003 20.9317 172.066C21.3607 172.209 21.8447 171.574 22.0277 171.062C22.5397 169.625 22.3837 167.985 21.6097 166.672C21.4697 166.435 21.5487 166.128 21.7867 165.988C22.0237 165.847 22.3307 165.926 22.4717 166.165C23.3947 167.729 23.5807 169.686 22.9707 171.398C22.6497 172.286 21.9087 173.087 21.0557 173.087Z" fill="#E06A43"/>
<path d="M14.9415 166.001C14.8425 166.001 14.7435 165.972 14.6565 165.911C12.8565 164.658 11.9425 162.708 11.4915 161.292C10.9285 159.522 10.7635 157.678 10.6035 155.894C10.5795 155.619 10.7815 155.376 11.0565 155.351C11.3375 155.333 11.5745 155.53 11.5995 155.804C11.7545 157.534 11.9155 159.325 12.4445 160.99C12.8475 162.258 13.6575 163.999 15.2275 165.092C15.4545 165.249 15.5105 165.562 15.3525 165.788C15.2545 165.926 15.0995 166.001 14.9415 166.001Z" fill="#E06A43"/>
<path d="M49.7459 309.401C49.6289 309.401 49.5109 309.36 49.4159 309.276C49.2079 309.094 49.1879 308.778 49.3709 308.571C49.3769 308.563 50.4769 307.182 50.3549 302.97C50.2289 298.547 45.8328 282.96 45.7888 282.803C45.7748 282.753 45.7679 282.701 45.7699 282.648C45.7919 282.113 47.8818 229.024 48.4908 217.548C49.0968 206.096 47.8228 160.684 47.8098 160.226C47.8018 159.951 48.0199 159.72 48.2959 159.712C48.5259 159.727 48.8018 159.922 48.8098 160.198C48.8228 160.655 50.0979 206.108 49.4889 217.6C48.8919 228.864 46.8649 280.259 46.7729 282.607C47.1479 283.94 51.2279 298.509 51.3549 302.94C51.4899 307.62 50.1769 309.167 50.1209 309.23C50.0219 309.343 49.8849 309.401 49.7459 309.401Z" fill="#E06A43"/>
<path d="M37.6281 223.337C35.9381 223.337 34.2481 222.876 32.8231 221.95C32.5921 221.8 32.5261 221.49 32.6761 221.259C32.8271 221.028 33.1361 220.962 33.3681 221.113C35.9631 222.799 39.5521 222.744 42.0961 220.983C42.3231 220.828 42.6341 220.882 42.7921 221.109C42.9491 221.337 42.8921 221.648 42.6661 221.805C41.1931 222.825 39.4101 223.337 37.6281 223.337Z" fill="#E06A43"/>
<path d="M57.6524 220.425C56.2794 220.425 54.9104 220.162 53.6504 219.62C53.3964 219.512 53.2794 219.218 53.3884 218.964C53.4964 218.709 53.7914 218.59 54.0444 218.702C57.1514 220.035 61.0014 219.499 63.6224 217.36C63.8354 217.187 64.1515 217.217 64.3265 217.431C64.5005 217.646 64.4694 217.96 64.2554 218.135C62.4164 219.636 60.0294 220.425 57.6524 220.425Z" fill="#E06A43"/>
<path d="M37.6762 284.082C37.4642 284.082 37.2672 283.946 37.1992 283.733C37.1162 283.47 37.2602 283.189 37.5242 283.105C39.4282 282.5 41.4672 282.399 43.4192 282.816C43.6892 282.874 43.8612 283.139 43.8042 283.41C43.7452 283.68 43.4792 283.849 43.2102 283.795C41.4272 283.413 39.5652 283.505 37.8272 284.059C37.7772 284.075 37.7252 284.082 37.6762 284.082Z" fill="#E06A43"/>
<path d="M45.7608 309.497C45.5168 309.497 45.3028 309.317 45.2668 309.068L44.6848 305.033C44.6458 304.76 44.8348 304.506 45.1088 304.467C45.3758 304.431 45.6348 304.616 45.6748 304.891L46.2568 308.926C46.2958 309.199 46.1068 309.452 45.8328 309.492C45.8088 309.495 45.7848 309.497 45.7608 309.497Z" fill="#E06A43"/>
<path d="M42.0859 309.503C42.0759 309.503 42.0659 309.503 42.0569 309.502C41.7809 309.485 41.5709 309.249 41.5869 308.974C41.6519 307.872 41.5549 306.768 41.2969 305.692C41.2329 305.423 41.3989 305.154 41.6669 305.089C41.9389 305.021 42.2049 305.191 42.2699 305.459C42.5499 306.63 42.6569 307.832 42.5849 309.032C42.5689 309.298 42.3489 309.503 42.0859 309.503Z" fill="#E06A43"/>
<path d="M38.1917 309.707C38.1857 309.707 38.1797 309.707 38.1737 309.707C37.8977 309.697 37.6817 309.465 37.6917 309.189L37.8147 305.762C37.8247 305.487 38.0667 305.289 38.3327 305.28C38.6087 305.29 38.8247 305.522 38.8147 305.797L38.6917 309.224C38.6817 309.495 38.4607 309.707 38.1917 309.707Z" fill="#E06A43"/>
<path d="M35.1042 309.706C34.8302 309.706 34.6072 309.485 34.6042 309.211L34.5742 306.287C34.5712 306.011 34.7932 305.785 35.0692 305.782C35.3742 305.758 35.5712 306.002 35.5742 306.277L35.6042 309.201C35.6072 309.477 35.3853 309.703 35.1093 309.706C35.1093 309.706 35.1062 309.706 35.1042 309.706Z" fill="#E06A43"/>
<path d="M53.7298 307.175C53.6978 307.175 53.6658 307.172 53.6318 307.165C53.3608 307.112 53.1848 306.85 53.2378 306.578C53.4578 305.457 53.2888 304.282 52.7618 303.268C52.6338 303.023 52.7298 302.721 52.9748 302.594C53.2158 302.468 53.5208 302.561 53.6488 302.807C54.2808 304.02 54.4828 305.428 54.2188 306.771C54.1738 307.01 53.9638 307.175 53.7298 307.175Z" fill="#E06A43"/>
<path d="M57.0989 306.277C57.0769 306.277 57.0569 306.276 57.0349 306.273C56.7609 306.238 56.5669 305.988 56.6009 305.714C56.7099 304.85 56.5609 303.943 56.1809 303.158C56.0609 302.91 56.1639 302.611 56.4129 302.49C56.6629 302.371 56.9599 302.473 57.0809 302.722C57.5439 303.678 57.7259 304.785 57.5929 305.838C57.5609 306.092 57.3469 306.277 57.0989 306.277Z" fill="#E06A43"/>
<path d="M59.7302 304.564C59.4762 304.564 59.2582 304.372 59.2332 304.113C59.1572 303.336 58.9002 302.573 58.4922 301.908C58.3472 301.673 58.4212 301.365 58.6562 301.22C58.8902 301.074 59.1982 301.149 59.3442 301.384C59.8322 302.177 60.1382 303.087 60.2302 304.015C60.2562 304.289 60.0562 304.535 59.7812 304.562C59.7642 304.563 59.7472 304.564 59.7302 304.564Z" fill="#E06A43"/>
<path d="M84.4085 101.124C84.2855 101.124 84.1626 101.079 84.0656 100.988C83.8646 100.799 83.8546 100.482 84.0446 100.281C86.5676 97.603 89.9305 95.666 93.5115 94.827C93.7835 94.766 94.0496 94.932 94.1136 95.2C94.1766 95.469 94.0095 95.738 93.7405 95.801C90.3475 96.596 87.1636 98.43 84.7736 100.967C84.6746 101.072 84.5415 101.124 84.4085 101.124Z" fill="#E06A43"/>
<path d="M69.9199 77.4549C69.8499 77.4549 69.7779 77.4399 69.7099 77.4089C69.4589 77.2929 69.3509 76.9959 69.4659 76.7449L73.2139 68.6429C73.3309 68.3919 73.6269 68.2829 73.8779 68.3989C74.1289 68.5149 74.2369 68.8119 74.1219 69.0629L70.3739 77.1659C70.2889 77.3469 70.1079 77.4549 69.9199 77.4549Z" fill="#E06A43"/>
<path d="M18.3819 70.6999C18.1709 70.6999 17.9739 70.5649 17.9059 70.3539C17.3869 68.7459 16.6359 67.2259 15.6749 65.8379C15.5179 65.6109 15.5739 65.2989 15.8019 65.1419C16.0289 64.9839 16.3399 65.041 16.4979 65.268C17.5149 66.737 18.3089 68.345 18.8589 70.046C18.9439 70.309 18.7989 70.5909 18.5369 70.6749C18.4839 70.6919 18.4319 70.6999 18.3819 70.6999Z" fill="#E06A43"/>
<path d="M43.2443 121.075C43.1833 121.075 43.1202 121.064 43.0602 121.04C42.0722 120.647 41.2373 119.922 40.7093 118.998C40.5713 118.758 40.6543 118.453 40.8953 118.316C41.1303 118.178 41.4392 118.261 41.5772 118.502C41.9942 119.23 42.6513 119.801 43.4293 120.11C43.6863 120.212 43.8113 120.503 43.7093 120.759C43.6313 120.956 43.4423 121.075 43.2443 121.075Z" fill="#E06A43"/>
<path d="M55.1731 120.181C54.4771 120.181 53.9441 120.045 53.5841 119.772C53.2961 119.555 53.1211 119.251 53.0791 118.895C53.0441 118.601 52.9381 117.71 58.7581 114.124C58.8001 114.099 58.8451 114.079 58.8921 114.067C59.2721 113.965 68.2301 111.578 70.5201 111.834C72.9171 112.099 75.2171 116.024 75.4721 116.471C75.6091 116.711 75.5251 117.016 75.2841 117.153C75.0481 117.289 74.7401 117.206 74.6021 116.966C73.9801 115.875 72.0141 113.005 70.4101 112.828C68.6921 112.635 61.8201 114.324 59.2211 115.014C56.8811 116.46 54.2621 118.333 54.0671 118.871C54.0901 118.866 54.1161 118.922 54.1871 118.975C54.4861 119.2 55.2351 119.242 56.1861 119.091C56.4601 119.043 56.7151 119.233 56.7591 119.506C56.8021 119.779 56.6161 120.035 56.3441 120.078C55.9131 120.146 55.5211 120.181 55.1731 120.181Z" fill="#E06A43"/>
<path d="M56.8285 122.807C55.6035 122.807 54.5485 122.479 54.0355 122.195C53.8055 122.067 53.4975 121.856 53.4815 121.504C53.4695 121.277 53.4435 120.744 60.6945 115.85C61.4975 115.308 65.5095 115.924 67.8285 116.339C68.1005 116.388 68.2815 116.648 68.2325 116.92C68.1835 117.191 67.9175 117.373 67.6525 117.324C64.9585 116.842 61.7415 116.463 61.2365 116.689C59.5945 117.798 55.8165 120.457 54.7085 121.414C55.4975 121.748 57.5225 122.176 59.2455 121.212C59.4845 121.078 59.7905 121.163 59.9265 121.405C60.0615 121.646 59.9755 121.95 59.7345 122.085C58.7775 122.619 57.7555 122.806 56.8285 122.807Z" fill="#E06A43"/>
<path d="M60.331 131.78C59.808 131.78 59.456 131.734 59.409 131.727C59.246 131.705 59.105 131.604 59.031 131.457C58.957 131.311 58.96 131.137 59.038 130.993L61.724 126.042C61.755 125.984 61.7969 125.934 61.8479 125.893L64.782 123.505L63.507 123.431C63.187 123.879 62.408 124.942 61.247 126.352C60.127 127.711 57.531 129.342 56.383 128.734C56.099 128.583 55.666 128.181 55.959 127.197C56.617 124.99 59.992 119.883 61.05 119.236C62.044 118.628 66.645 119.145 68.03 119.318C68.303 119.352 68.498 119.602 68.464 119.876C68.43 120.15 68.173 120.337 67.905 120.31C65.238 119.977 62.058 119.798 61.571 120.088C60.785 120.569 57.529 125.431 56.918 127.481C56.832 127.77 56.87 127.87 56.87 127.87C57.2 128.058 59.259 127.192 60.475 125.716C61.967 123.903 62.836 122.644 62.845 122.631C62.945 122.486 63.106 122.401 63.286 122.415L66.1239 122.581C66.3299 122.593 66.507 122.73 66.57 122.926C66.633 123.122 66.57 123.338 66.41 123.468L62.556 126.605L60.293 130.775C60.296 130.775 60.299 130.775 60.302 130.775C61.398 130.775 63.411 130.552 64.5 129.05C66.254 126.628 68.146 125.02 68.226 124.953C68.382 124.821 68.606 124.799 68.784 124.894C68.815 124.911 71.818 126.466 75.476 124.944C75.732 124.838 76.024 124.958 76.13 125.213C76.235 125.468 76.115 125.761 75.86 125.866C72.43 127.292 69.572 126.331 68.633 125.926C68.077 126.431 66.636 127.804 65.31 129.635C63.963 131.497 61.624 131.78 60.331 131.78Z" fill="#E06A43"/>
</svg>
