<svg width="103" height="318" viewBox="0 0 103 318" fill="none" xmlns="http://www.w3.org/2000/svg">
<path d="M92.7934 58.8449C91.2634 57.4249 89.5133 56.4449 87.7533 55.9349C86.5933 55.5949 85.0434 55.0549 83.3634 54.4449C81.9834 53.9449 80.5033 53.3849 79.1033 52.8449C75.4833 51.4649 72.3334 50.1849 72.3334 50.1849L51.1633 47.1649C51.1633 47.1649 45.1033 48.4949 39.2233 49.9049C37.9033 50.2249 36.5934 50.5349 35.3634 50.8549C32.7234 51.5149 30.4434 52.1349 29.2434 52.5549C28.5034 52.8149 27.3033 54.0749 25.7933 56.0949C25.3033 55.3449 24.9934 54.4949 24.9034 53.6049C24.7034 51.6649 25.5734 49.6549 27.1234 48.4749C28.0234 47.7949 29.1333 47.3649 29.8133 46.4649C31.3033 44.4749 29.8534 41.4549 30.9234 39.2049C32.1634 36.6049 36.0033 36.4349 37.7933 34.1649C39.0833 32.5249 38.9834 30.2249 38.7334 28.1649C38.4734 26.0949 38.1434 23.8849 39.0834 22.0249C40.3434 19.5649 43.4934 18.4949 44.6734 15.9849C45.6034 14.0249 45.8634 6.11489 51.7034 4.76489V4.72488C55.8634 0.574884 62.3833 -1.04512 68.0133 0.684883C73.6333 2.41488 78.1233 7.41489 79.2233 13.2049C79.4233 14.2149 79.5234 15.2749 79.6534 16.3149C79.8834 18.0049 80.1834 19.6549 81.0834 21.0749C81.6134 21.9149 82.3433 22.6349 83.0333 23.3749C83.9133 24.3149 84.7334 25.2849 84.9934 26.5349C85.5734 29.3449 82.9934 32.2849 84.1134 34.9249C84.9634 36.9449 87.6834 37.8449 88.1434 39.9949C88.6134 42.1249 86.5133 44.3549 87.3433 46.3849C88.0133 48.0349 90.3034 48.5649 90.9834 50.2149C91.4834 51.4149 90.9534 52.7949 91.0834 54.0949C91.2334 55.5249 92.1933 56.7349 92.6333 58.0949C92.7133 58.3349 92.7634 58.5849 92.7934 58.8449Z" fill="#2B3448"/>
<path d="M53.537 39.2229C55.642 41.9159 58.5791 44.3519 62.3601 44.4769C62.4691 44.4879 62.567 44.4879 62.675 44.4879H62.6801C62.7831 44.4879 62.8921 44.4879 62.9951 44.4769C66.0301 44.3739 68.5211 42.7849 70.4791 40.7729L70.9741 43.2799C62.0161 53.4569 51.1641 47.1639 51.1641 47.1639L53.537 39.2229Z" fill="#E06A43"/>
<path d="M76.4035 26.365C76.2935 27.585 76.1435 29.115 76.0335 30.255C75.9735 30.795 75.8835 31.335 75.7535 31.855C75.7535 31.875 75.7435 31.885 75.7435 31.905H75.9935C75.9935 31.905 74.1135 43.125 64.1935 44.355C63.8995 44.396 63.5985 44.425 63.2895 44.445C63.1895 44.451 63.0945 44.472 62.9935 44.475C62.8935 44.485 62.7835 44.485 62.6835 44.485H62.6735C62.5635 44.485 62.4735 44.485 62.3635 44.475C51.1935 44.475 49.7035 32.735 49.6235 32.005C49.6135 31.975 49.6135 31.965 49.6135 31.965C49.4635 31.405 49.3635 30.825 49.3035 30.245C49.1535 28.915 49.0435 27.525 48.9435 26.345C48.9135 25.795 48.8835 25.285 48.8535 24.835C48.8535 24.785 48.8735 24.715 48.8835 24.615C48.8835 24.615 50.7235 8.09497 63.2135 8.09497C75.7035 8.09497 76.7835 22.475 76.4035 26.365Z" fill="#E79E73"/>
<path d="M96.5567 146.954C78.2157 146.421 62.8707 167.977 62.8707 167.977C54.0097 147.944 23.6367 141.33 23.6367 141.33C24.2187 138.692 24.9527 136.206 25.7687 133.916C25.7687 133.916 25.7687 133.916 25.7737 133.916C26.2687 134.313 55.9677 157.533 93.6667 135.858H93.6717C94.3897 138.273 95.1027 140.829 95.7717 143.484C96.0617 144.631 96.3227 145.79 96.5567 146.954Z" fill="#E06A43"/>
<path d="M29.1643 88.117C29.2953 82.34 31.5953 75.715 33.1733 70.097C35.1643 62.993 35.3603 51.184 35.3653 50.853C36.5943 50.538 37.9053 50.222 39.2273 49.907C39.2273 49.907 36.1973 79.823 61.5993 79.823C87.0003 79.823 79.1033 52.85 79.1033 52.85C80.5063 53.388 81.9803 53.943 83.3673 54.449C83.3673 54.449 91.8413 75.211 92.2933 84.969C92.7503 94.722 87.8273 102.054 87.8273 102.054C87.8273 102.054 87.5993 104.05 87.2784 106.786C62.8614 95.189 33.4453 106.786 33.4453 106.786H33.4393C33.3853 103.919 33.3743 101.749 33.3743 101.749C33.3743 101.749 31.3563 99.383 29.6433 92.78C29.2623 91.321 29.1263 89.754 29.1643 88.117Z" fill="#E06A43"/>
<path d="M92.7932 58.843C95.2902 61.144 97.2212 64.592 97.7372 69.091C98.5692 76.347 101.517 117.327 101.517 117.327C101.517 117.327 102.349 148.853 101.517 155.277C101.517 155.277 102.458 166.101 101.887 169.359C101.316 172.617 97.5852 179.068 97.5852 179.068L97.4602 179.052C98.5912 168.56 98.6622 157.414 96.5572 146.955C96.3232 145.791 96.0622 144.632 95.7742 143.485C95.1052 140.831 94.3922 138.274 93.6742 135.859C90.0732 123.767 86.2772 115.206 86.2772 115.206C86.6142 112.421 86.9902 109.288 87.2782 106.786C87.5992 104.05 87.8272 102.054 87.8272 102.054C87.8272 102.054 92.7502 94.722 92.2932 84.969C91.8412 75.211 83.3672 54.449 83.3672 54.449C85.0422 55.058 86.5982 55.591 87.7562 55.934C89.5132 56.449 91.2592 57.428 92.7932 58.843Z" fill="#E79E73"/>
<path d="M96.5573 146.954C98.6623 157.414 98.5912 168.559 97.4602 179.051C94.7952 203.675 86.2773 224.681 86.2773 224.681C86.2773 224.681 89.9542 246.982 87.3052 260.368C84.6622 273.749 80.0493 283.121 78.9883 292.574C77.9333 302.022 81.8603 309.713 80.0493 313.309C78.5703 316.241 67.5822 315.082 62.3932 312.178C62.8612 311.025 62.9533 309.812 62.8123 308.751C62.6163 307.31 61.7192 304.753 60.7402 301.702C62.3722 298.074 65.9242 290.704 65.9832 287.886C66.0592 284.182 62.7362 232.737 62.7362 232.737C62.8232 231.927 62.8723 231.486 62.8723 231.486C62.8723 231.486 64.8253 183.854 62.8723 167.977C62.8723 167.977 78.2153 146.421 96.5573 146.954Z" fill="#E79E73"/>
<path d="M93.6734 135.855C92.0934 136.765 90.5234 137.595 88.9734 138.345C88.9734 138.345 79.1934 150.315 64.9034 150.315C50.6234 150.315 38.0934 140.645 38.0934 140.645C30.4734 137.595 25.9634 134.065 25.7734 133.915C29.1934 124.305 33.9734 118.085 33.9734 118.085C33.6634 115.205 33.5134 110.425 33.4434 106.785C33.4434 106.785 46.5234 101.625 62.4734 101.625C70.4434 101.625 79.1334 102.915 87.2734 106.785C86.9934 109.285 86.6134 112.425 86.2734 115.205C86.2734 115.205 90.0734 123.765 93.6734 135.855Z" fill="#E79E73"/>
<path d="M79.101 22.9538C79.765 23.1928 80.178 24.1558 80.134 26.3048C80.085 29.0788 78.35 31.2488 77.621 31.7658C76.898 32.2718 75.995 31.9078 75.995 31.9078L75.75 31.8538C75.881 31.3318 75.973 30.7928 76.027 30.2548C76.141 29.1128 76.294 27.5898 76.402 26.3658C76.973 25.3868 77.457 24.3368 77.811 23.2328C78.023 23.0638 78.241 22.9448 78.469 22.9068C78.698 22.8668 78.905 22.8778 79.101 22.9538Z" fill="#E79E73"/>
<path d="M79.1017 52.8489C79.1017 52.8489 86.9997 79.8219 61.5977 79.8219C36.1957 79.8219 39.2257 49.9059 39.2257 49.9059C45.1057 48.4969 51.1647 47.1649 51.1647 47.1649C51.1647 47.1649 62.0157 53.4579 70.9747 43.2809L72.3347 50.1889C72.3347 50.1889 75.4787 51.4619 79.1017 52.8489Z" fill="#E79E73"/>
<path d="M62.3917 312.178C61.3857 314.664 58.6547 316.905 52.8297 316.905C44.2847 316.905 40.5037 313.141 41.7937 311.123C43.0777 309.105 44.9647 297.411 44.9647 297.411C44.9647 297.411 34.1567 252.129 33.7757 244.035C33.4007 235.947 37.1047 224.301 37.1047 224.301C30.0767 209.3 25.8947 188.054 23.8767 175.462C22.8537 169.082 22.3867 164.921 22.3867 164.921C23.7847 166.623 25.2147 168.386 25.5357 168.886C26.2157 169.947 29.9417 169.604 27.5757 163.822C25.2147 158.035 23.8447 156.523 23.8447 156.523C23.8447 156.523 25.8137 151.998 22.5447 148.609C22.7457 146.08 23.1317 143.648 23.6377 141.331C23.6377 141.331 54.0107 147.945 62.8717 167.978C64.8247 183.855 62.8717 231.487 62.8717 231.487C62.8717 231.487 62.8227 231.928 62.7357 232.738C61.8977 240.473 57.4817 281.795 57.8187 288.643C58.0367 292.918 59.4557 297.727 60.7397 301.703C61.7187 304.754 62.6167 307.311 62.8117 308.752C62.9527 309.812 62.8597 311.025 62.3917 312.178Z" fill="#E79E73"/>
<path d="M45.6011 23.6179V23.6119C45.9001 23.0029 46.352 22.8179 46.896 22.9049C47.119 22.9429 47.3421 23.0629 47.5491 23.2309C48.2731 23.8079 48.833 24.9229 48.833 24.9229C48.833 24.9229 48.838 24.8959 48.844 24.8359C48.849 24.7819 48.866 24.7049 48.882 24.6129C48.871 24.7109 48.855 24.7819 48.849 24.8359C48.882 25.2819 48.914 25.7929 48.947 26.3429C49.039 27.5289 49.154 28.9099 49.301 30.2429C49.361 30.8249 49.464 31.4019 49.617 31.9669C49.149 32.0429 48.263 32.1249 47.74 31.7659C47.017 31.2489 45.281 29.0789 45.227 26.3049C45.204 25.0209 45.3461 24.1559 45.6011 23.6179Z" fill="#E79E73"/>
<path d="M22.3858 164.92C22.3858 164.92 22.8538 169.081 23.8758 175.461H23.8708C23.8708 175.461 21.4178 174.591 20.5478 172.894C19.6778 171.192 15.3318 167.754 15.3318 167.754C15.3318 167.754 15.3318 167.754 15.1028 166.693C14.8748 165.632 14.9778 160.063 14.5208 156.69C14.0698 153.312 1.77083 117.777 0.813828 114.247C-0.143172 110.722 0.00883514 109.009 0.00883514 109.009C4.55084 92.2609 18.6278 65.6689 25.7908 56.0899C27.2978 54.0769 28.4998 52.8159 29.2388 52.5539C30.4458 52.1299 32.7198 51.5099 35.3638 50.8519C35.3588 51.1839 35.1628 62.9929 33.1718 70.0959C31.5948 75.7149 29.2938 82.3399 29.1628 88.1159L16.4348 111.625L20.5848 147.111C21.3848 147.568 22.0318 148.074 22.5428 148.607C25.8118 151.996 23.8428 156.521 23.8428 156.521C23.8428 156.521 25.2138 158.033 27.5738 163.82C29.9398 169.602 26.2138 169.945 25.5338 168.884C25.2148 168.385 23.7838 166.622 22.3858 164.92Z" fill="#E79E73"/>
<path d="M45.3633 22.6728V22.6638H46.3633L45.3633 22.6728Z" fill="black"/>
<path d="M63.7695 32.1099C63.7825 32.2389 63.6275 32.3439 63.4535 32.3299C62.5235 32.2299 59.9665 31.8759 59.7465 30.9149C59.5395 30.0019 61.6705 26.0279 62.6465 24.2729C62.7565 24.0669 63.1695 24.1199 63.1895 24.3399L63.7695 32.1099Z" fill="#E06A43"/>
<path d="M59.3786 24.3078C59.1726 24.3078 58.9796 24.1788 58.9066 23.9738C58.8896 23.9308 58.4216 22.7798 56.3336 22.7798C56.3266 22.7798 56.3196 22.7798 56.3136 22.7798C54.1246 22.7878 53.4206 23.7178 53.3926 23.7578C53.2316 23.9788 52.9206 24.0328 52.6986 23.8758C52.4756 23.7188 52.4166 23.4158 52.5696 23.1898C52.6086 23.1328 53.5496 21.7908 56.3096 21.7808C56.3176 21.7808 56.3266 21.7808 56.3336 21.7808C59.1646 21.7808 59.8236 23.5678 59.8506 23.6438C59.9426 23.9048 59.8046 24.1898 59.5436 24.2808C59.4886 24.2988 59.4326 24.3078 59.3786 24.3078Z" fill="#2B3448"/>
<path d="M52.4499 21.6479C52.3039 21.6479 52.1598 21.5849 52.0608 21.4619C51.8868 21.2469 51.9198 20.9329 52.1348 20.7589C53.0988 19.9809 54.3078 19.4729 55.5398 19.3279C56.7718 19.1839 58.0668 19.3979 59.1848 19.9309C59.4348 20.0499 59.5398 20.3479 59.4208 20.5979C59.3018 20.8479 59.0038 20.9529 58.7548 20.8339C57.8038 20.3799 56.7029 20.1989 55.6569 20.3219C54.6089 20.4449 53.5818 20.8769 52.7628 21.5379C52.6718 21.6119 52.5599 21.6479 52.4499 21.6479Z" fill="#2B3448"/>
<path d="M57.2158 22.3499C57.4198 22.4109 57.3908 22.7459 57.3918 22.9739C57.3948 23.6439 56.8538 24.1889 56.1838 24.1919C55.5138 24.1939 54.9688 23.6529 54.9668 22.9829C54.9658 22.7639 55.0228 22.5589 55.1238 22.3819C55.1218 22.3819 56.3038 22.0769 57.2158 22.3499Z" fill="#2B3448"/>
<path d="M65.9871 24.2799C65.9311 24.2799 65.8761 24.2699 65.8201 24.2509C65.5631 24.1589 65.427 23.8809 65.515 23.6229C65.54 23.5459 66.19 21.7429 69.041 21.7329C69.052 21.7329 69.0621 21.7329 69.0721 21.7329C71.8071 21.7329 72.7531 23.0579 72.7921 23.1139C72.9481 23.3409 72.8911 23.6529 72.6641 23.8089C72.4381 23.9619 72.13 23.9099 71.972 23.6869C71.934 23.6369 71.2251 22.7319 69.0731 22.7319C69.0631 22.7319 69.055 22.7319 69.045 22.7319C66.94 22.7399 66.4771 23.9029 66.4581 23.9529C66.3821 24.1529 66.1911 24.2799 65.9871 24.2799Z" fill="#2B3448"/>
<path d="M72.8972 21.5719C72.7882 21.5719 72.6782 21.5369 72.5862 21.4639C71.7602 20.8079 70.7292 20.3839 69.6822 20.2689C68.6382 20.1529 67.5352 20.3449 66.5882 20.8049C66.3402 20.9269 66.0402 20.8229 65.9192 20.5739C65.7992 20.3249 65.9022 20.0259 66.1512 19.9059C67.2672 19.3649 68.5542 19.1389 69.7922 19.2759C71.0242 19.4109 72.2362 19.9099 73.2082 20.6819C73.4252 20.8539 73.4612 21.1679 73.2892 21.3849C73.1902 21.5069 73.0452 21.5719 72.8972 21.5719Z" fill="#2B3448"/>
<path d="M70.2347 22.3259C70.4007 22.4439 70.3947 22.7079 70.3957 22.9259C70.3987 23.5959 69.8567 24.1409 69.1877 24.1439C68.5177 24.1459 67.9727 23.6049 67.9707 22.9349C67.9697 22.7059 68.0327 22.4919 68.1417 22.3089C68.1417 22.3089 69.7307 21.9659 70.2347 22.3259Z" fill="#2B3448"/>
<path d="M57.7686 30.0919C57.8436 31.2439 56.4685 32.2709 54.6965 32.3869C52.9245 32.5029 51.4275 31.6619 51.3525 30.5099C51.2775 29.3579 52.6525 28.3309 54.4245 28.2149C56.1965 28.0999 57.6936 28.9399 57.7686 30.0919Z" fill="#DF895D"/>
<path d="M73.6416 29.3358C73.7166 30.4878 72.3416 31.5148 70.5696 31.6308C68.7976 31.7458 67.3006 30.9058 67.2256 29.7538C67.1506 28.6018 68.5256 27.5748 70.2976 27.4588C72.0696 27.3438 73.5666 28.1838 73.6416 29.3358Z" fill="#DF895D"/>
<path d="M48.6098 30.2319C48.3908 30.2319 48.1908 30.0879 48.1288 29.8669C47.6848 28.2869 47.0258 26.7749 46.1728 25.3739C46.0288 25.1379 46.1038 24.8309 46.3398 24.6859C46.5728 24.5429 46.8828 24.6169 47.0258 24.8529C47.9268 26.3319 48.6228 27.9279 49.0908 29.5959C49.1648 29.8619 49.0108 30.1379 48.7448 30.2129C48.6998 30.2269 48.6548 30.2319 48.6098 30.2319Z" fill="#E06A43"/>
<path d="M76.8927 30.0108C76.8547 30.0108 76.8147 30.0068 76.7757 29.9968C76.5077 29.9318 76.3417 29.6618 76.4067 29.3928C76.8257 27.6658 77.5077 26.0218 78.4327 24.5078C78.5777 24.2708 78.8867 24.1978 79.1207 24.3418C79.3557 24.4858 79.4297 24.7938 79.2867 25.0298C78.4147 26.4558 77.7727 28.0028 77.3797 29.6288C77.3237 29.8578 77.1187 30.0108 76.8927 30.0108Z" fill="#E06A43"/>
<path d="M62.6921 36.7799C61.7611 36.7799 61.0961 36.6339 61.0291 36.6179C60.7601 36.5569 60.5921 36.2889 60.6531 36.0199C60.7151 35.7499 60.9862 35.5839 61.2512 35.6429C61.2892 35.6529 64.9401 36.4399 66.9691 34.0059C67.1461 33.7919 67.4622 33.7659 67.6732 33.9419C67.8852 34.1189 67.9131 34.4339 67.7361 34.6459C66.2561 36.4219 64.1491 36.7799 62.6921 36.7799Z" fill="#2B3448"/>
<path d="M97.4612 179.551C97.4432 179.551 97.4262 179.55 97.4082 179.548C97.1342 179.52 96.9332 179.274 96.9632 178.999C98.8272 161.135 96.2512 147.768 93.1902 135.983C90.3532 125.063 85.8702 115.513 85.8252 115.418C85.7852 115.333 85.7692 115.239 85.7812 115.146L86.7822 106.726C86.8152 106.452 87.0812 106.258 87.3372 106.288C87.6112 106.321 87.8082 106.569 87.7752 106.844L86.7922 115.123C87.3432 116.316 91.4802 125.417 94.1602 135.732C97.2452 147.608 99.8412 161.082 97.9592 179.103C97.9302 179.359 97.7142 179.551 97.4612 179.551Z" fill="#E06A43"/>
<path d="M62.7351 233.237C62.7061 233.237 62.6771 233.235 62.6481 233.229C62.3751 233.182 62.1941 232.923 62.2421 232.651C65.8941 211.716 62.4071 168.452 62.3721 168.017C62.3491 167.742 62.5541 167.5 62.8291 167.478C63.1041 167.463 63.3461 167.661 63.3681 167.935C63.4041 168.371 66.9011 211.762 63.2261 232.823C63.1841 233.066 62.9731 233.237 62.7351 233.237Z" fill="#E06A43"/>
<path d="M54.2248 229.186C53.0408 229.186 51.8558 228.989 50.7258 228.593C48.4248 227.788 46.4568 226.2 45.1848 224.121C45.0408 223.886 45.1148 223.578 45.3508 223.433C45.5828 223.291 45.8938 223.363 46.0388 223.599C47.1748 225.453 49.0038 226.93 51.0568 227.649C53.1098 228.367 55.4598 228.352 57.5058 227.61C57.7668 227.516 58.0528 227.65 58.1468 227.909C58.2418 228.169 58.1078 228.456 57.8478 228.55C56.6798 228.975 55.4528 229.186 54.2248 229.186Z" fill="#E06A43"/>
<path d="M74.2163 229.193C71.9763 229.193 69.7673 228.497 67.9323 227.201C67.7063 227.042 67.6533 226.73 67.8123 226.505C67.9733 226.277 68.2883 226.226 68.5083 226.385C70.3413 227.679 72.5773 228.313 74.8233 228.175C77.0623 228.035 79.2093 227.127 80.8673 225.616C81.0713 225.43 81.3873 225.444 81.5743 225.648C81.7603 225.852 81.7453 226.169 81.5413 226.355C79.7153 228.018 77.3513 229.019 74.8863 229.172C74.6633 229.186 74.4393 229.193 74.2163 229.193Z" fill="#E06A43"/>
<path d="M62.1056 312.491C62.0696 312.491 62.0316 312.487 61.9946 312.478C61.7246 312.416 61.5566 312.149 61.6186 311.879C62.3816 308.54 61.8786 304.9 60.2386 301.892C60.1066 301.65 60.1966 301.346 60.4386 301.213C60.6806 301.083 60.9846 301.171 61.1176 301.413C62.8716 304.633 63.4096 308.528 62.5936 312.101C62.5406 312.334 62.3346 312.491 62.1056 312.491Z" fill="#E06A43"/>
<path d="M56.7292 316.784C56.5712 316.784 56.4152 316.709 56.3182 316.568C55.1202 314.835 54.7572 312.593 55.3492 310.571C55.4262 310.307 55.7012 310.154 55.9692 310.232C56.2342 310.309 56.3862 310.586 56.3082 310.852C55.8092 312.561 56.1272 314.534 57.1402 315.999C57.2972 316.227 57.2412 316.537 57.0132 316.694C56.9262 316.756 56.8282 316.784 56.7292 316.784Z" fill="#E06A43"/>
<path d="M51.7337 317.012C51.5137 317.012 51.3137 316.867 51.2527 316.646C50.9027 315.39 50.8207 314.046 51.0147 312.76C51.0557 312.486 51.3137 312.296 51.5827 312.34C51.8557 312.381 52.0437 312.635 52.0027 312.908C51.8307 314.055 51.9037 315.256 52.2157 316.378C52.2897 316.644 52.1337 316.92 51.8677 316.993C51.8227 317.006 51.7777 317.012 51.7337 317.012Z" fill="#E06A43"/>
<path d="M48.2576 316.762C47.9946 316.762 47.7746 316.557 47.7586 316.291C47.6846 315.042 47.8616 313.756 48.2726 312.571C48.3626 312.309 48.6516 312.173 48.9086 312.261C49.1706 312.352 49.3076 312.636 49.2186 312.897C48.8516 313.96 48.6926 315.112 48.7576 316.232C48.7746 316.507 48.5636 316.744 48.2876 316.76C48.2776 316.762 48.2676 316.762 48.2576 316.762Z" fill="#E06A43"/>
<path d="M44.4059 315.251C44.3979 315.251 44.3889 315.251 44.3809 315.25C44.1059 315.236 43.8929 315.002 43.9069 314.726C43.9619 313.637 44.1569 312.56 44.4869 311.524C44.5719 311.262 44.8479 311.118 45.1159 311.2C45.3789 311.284 45.5239 311.565 45.4399 311.829C45.1349 312.782 44.9559 313.774 44.9049 314.777C44.8919 315.043 44.6709 315.251 44.4059 315.251Z" fill="#E06A43"/>
<path d="M66.1802 313.989C66.1212 313.989 66.0622 313.979 66.0042 313.957C65.7452 313.86 65.6142 313.572 65.7122 313.314C66.0272 312.473 66.2282 311.594 66.3062 310.702C66.3842 309.806 66.2382 309.183 65.8702 308.854C65.6652 308.669 65.6472 308.353 65.8322 308.148C66.0172 307.942 66.3332 307.926 66.5382 308.11C67.1512 308.661 67.4082 309.562 67.3022 310.789C67.2162 311.772 66.9962 312.74 66.6482 313.666C66.5732 313.865 66.3822 313.989 66.1802 313.989Z" fill="#E06A43"/>
<path d="M70.0135 314.921C69.9355 314.921 69.8575 314.903 69.7845 314.865C69.5395 314.738 69.4425 314.436 69.5695 314.191C70.0985 313.169 70.2365 311.943 69.9475 310.827C69.8795 310.559 70.0395 310.287 70.3065 310.218C70.5765 310.151 70.8466 310.31 70.9156 310.577C71.2646 311.928 71.0975 313.413 70.4575 314.65C70.3695 314.822 70.1945 314.921 70.0135 314.921Z" fill="#E06A43"/>
<path d="M73.5212 315.191C73.4572 315.191 73.3942 315.179 73.3322 315.154C73.0762 315.05 72.9542 314.758 73.0592 314.502C73.4342 313.585 73.5252 312.548 73.3152 311.58C73.2562 311.31 73.4272 311.044 73.6972 310.985C73.9722 310.927 74.2332 311.098 74.2922 311.367C74.5452 312.53 74.4371 313.778 73.9851 314.881C73.9051 315.074 73.7182 315.191 73.5212 315.191Z" fill="#E06A43"/>
<path d="M77.6721 314.594C77.6161 314.594 77.5611 314.585 77.5061 314.566C77.2451 314.474 77.1091 314.188 77.2001 313.928C77.4611 313.189 77.4791 312.369 77.2511 311.62C77.1711 311.356 77.3191 311.077 77.5841 310.996C77.8521 310.917 78.1281 311.065 78.2081 311.329C78.4981 312.28 78.4751 313.321 78.1441 314.26C78.0711 314.466 77.8781 314.594 77.6721 314.594Z" fill="#E06A43"/>
<path d="M75.1712 291.526C75.1092 291.526 75.0472 291.514 74.9862 291.491C73.3312 290.832 71.6002 290.371 69.8402 290.121C69.5672 290.082 69.3762 289.829 69.4152 289.556C69.4532 289.282 69.7112 289.095 69.9802 289.131C71.8182 289.392 73.6262 289.873 75.3542 290.562C75.6112 290.665 75.7362 290.956 75.6342 291.211C75.5572 291.407 75.3692 291.526 75.1712 291.526Z" fill="#E06A43"/>
<path d="M47.3964 295.016C47.2044 295.016 47.0194 294.904 46.9374 294.715C46.8284 294.462 46.9444 294.167 47.1974 294.057C48.6124 293.443 50.0984 292.981 51.6154 292.687C51.8744 292.638 52.1474 292.811 52.2014 293.084C52.2534 293.354 52.0764 293.617 51.8044 293.67C50.3604 293.95 48.9445 294.389 47.5955 294.976C47.5315 295.003 47.4634 295.016 47.3964 295.016Z" fill="#E06A43"/>
<path d="M62.7507 129.801C62.6417 129.801 62.5317 129.766 62.4397 129.693C62.2227 129.522 62.1867 129.207 62.3587 128.99L64.0497 126.856C64.2217 126.64 64.5357 126.603 64.7517 126.775C64.9687 126.946 65.0047 127.261 64.8327 127.477L63.1417 129.611C63.0437 129.736 62.8977 129.801 62.7507 129.801Z" fill="#E06A43"/>
<path d="M26.9469 170.024C26.8809 170.024 26.8219 170.016 26.7729 170.006C26.4099 169.935 26.1879 169.654 26.0679 169.502L19.2129 160.818C19.0419 160.601 19.0789 160.287 19.2959 160.116C19.5119 159.945 19.8259 159.981 19.9979 160.199L26.8529 168.884C26.8769 168.914 26.937 168.99 26.975 169.023C26.968 169 27.0289 168.949 27.1029 168.843C27.8919 167.725 28.0009 166.078 27.3959 164.439C26.8809 163.045 25.9499 161.794 25.0489 160.584L24.8079 160.26C24.1099 159.319 23.4689 158.381 23.2909 157.247C23.1759 156.51 23.2769 155.793 23.3749 155.099C23.4149 154.818 23.4549 154.536 23.4799 154.253C23.6639 152.082 22.7889 149.809 21.1979 148.319C20.9969 148.131 20.9859 147.814 21.1749 147.612C21.3639 147.411 21.6799 147.4 21.8819 147.589C23.6919 149.282 24.6859 151.869 24.4769 154.338C24.4519 154.639 24.41 154.939 24.367 155.239C24.275 155.888 24.189 156.503 24.281 157.093C24.423 158.002 24.9919 158.828 25.6119 159.664L25.8519 159.987C26.7949 161.254 27.7699 162.563 28.3339 164.092C29.0539 166.04 28.8989 168.03 27.9209 169.417C27.5719 169.914 27.2039 170.024 26.9469 170.024Z" fill="#E06A43"/>
<path d="M25.3941 182.797C25.1711 182.797 24.9681 182.648 24.9101 182.422C23.3561 176.423 22.1781 170.26 21.4121 164.106C21.3781 163.833 21.5721 163.583 21.8471 163.548C22.1161 163.507 22.3701 163.709 22.4051 163.983C23.1671 170.094 24.3361 176.214 25.8801 182.172C25.9491 182.439 25.7881 182.712 25.5211 182.781C25.4771 182.792 25.4351 182.797 25.3941 182.797Z" fill="#E06A43"/>
<path d="M22.5702 169.304C22.4492 169.304 22.3272 169.26 22.2312 169.171L19.6122 166.75C19.4092 166.562 19.3962 166.246 19.5842 166.044C19.7732 165.84 20.0882 165.828 20.2902 166.016L22.9092 168.437C23.1122 168.625 23.1252 168.941 22.9372 169.143C22.8392 169.25 22.7052 169.304 22.5702 169.304Z" fill="#E06A43"/>
</svg>
