<svg width="135" height="317" viewBox="0 0 135 317" fill="none" xmlns="http://www.w3.org/2000/svg">
<path d="M83.4774 44.0795C83.4774 44.0795 80.1374 46.2005 77.9294 44.4275L77.4995 42.2575L77.0645 40.0605C77.4295 39.6685 77.7775 39.2665 78.1085 38.8745C79.7025 36.9595 80.8604 34.9095 81.5734 33.4625C81.8834 32.8205 82.1284 32.1565 82.3024 31.4775L82.5684 31.5315C82.5684 31.5315 82.8675 31.6405 83.2645 31.6565C82.2695 33.9625 80.0715 39.4615 81.0015 41.1585C82.1945 43.3235 83.4774 44.0795 83.4774 44.0795Z" fill="#2B3448"/>
<path d="M86.6151 23.3226C86.4301 22.9146 86.1741 22.6806 85.8701 22.5776C85.6631 22.5016 85.4461 22.4906 85.2011 22.5286C84.9561 22.5666 84.722 22.6866 84.499 22.8546C84.118 23.9586 83.6071 25.0086 82.9981 25.9876C83.0471 25.4166 83.0961 24.9156 83.1231 24.5466H83.1121C82.7801 24.4976 82.4541 24.4436 82.1491 24.3886C82.0461 24.3666 81.9481 24.3446 81.8551 24.3236C81.7841 24.3076 81.7191 24.2966 81.6591 24.2806C81.5771 24.2586 81.5011 24.2426 81.4251 24.2206C81.3701 24.2046 81.316 24.1936 81.262 24.1766C81.224 24.1706 81.1911 24.1606 81.1591 24.1496C81.1371 24.1446 81.1211 24.1386 81.0991 24.1336C81.0771 24.1276 81.0551 24.1226 81.0341 24.1116C81.0291 24.1116 81.023 24.1116 81.018 24.1066H81.0131C81.0131 24.1066 81.002 24.1016 80.997 24.1016C80.975 24.0956 80.937 24.0856 80.9151 24.0746H80.91C80.856 24.0586 80.8121 24.0416 80.7631 24.0256C80.7581 24.0256 80.7581 24.0256 80.7581 24.0256C80.7091 24.0096 80.66 23.9926 80.611 23.9766C80.486 23.9326 80.361 23.8896 80.241 23.8406C80.007 23.7426 79.784 23.6396 79.577 23.5306C79.37 23.4216 79.1751 23.3076 78.9901 23.1876C78.8701 23.1056 78.756 23.0246 78.647 22.9376C78.533 22.8506 78.429 22.7636 78.332 22.6706C75.939 20.4896 76.341 16.9486 74.095 13.7936C73.339 12.7326 72.441 11.8736 71.517 11.1826C71.387 11.0796 71.2561 10.9866 71.1201 10.8946C70.9401 10.7746 70.766 10.6556 70.587 10.5466C70.304 10.3676 70.016 10.1986 69.733 10.0516C69.32 9.82365 68.912 9.63265 68.525 9.46465C68.302 9.36665 68.09 9.27964 67.872 9.19764C67.562 9.07764 67.263 8.97464 66.996 8.89264C66.86 8.84964 66.7351 8.81664 66.6101 8.77864C66.5451 8.75664 66.4851 8.74064 66.4201 8.72464C66.3661 8.70864 66.317 8.69764 66.268 8.68064H66.2631C66.2251 8.66964 66.1871 8.65864 66.1491 8.65364C66.0731 8.63164 66.002 8.61564 65.937 8.59964C65.904 8.59364 65.872 8.58365 65.845 8.57765C65.801 8.56665 65.763 8.55565 65.731 8.55065C65.715 8.55065 65.7091 8.55064 65.7041 8.54464C65.6601 8.53364 65.633 8.52865 65.595 8.52265H65.59C65.546 8.51165 65.5141 8.50664 65.4871 8.50064C65.4711 8.49464 65.4601 8.49465 65.4431 8.49465C65.3831 8.47865 65.351 8.47264 65.351 8.47264C65.351 8.47264 65.346 8.47265 65.346 8.47765C65.047 8.60865 64.759 8.74964 64.481 8.89064C64.198 9.03764 63.9261 9.18464 63.6541 9.33664C63.3871 9.49464 63.126 9.65165 62.876 9.81565C62.62 9.97865 62.3761 10.1416 62.1361 10.3156C61.6251 10.6796 61.141 11.0606 60.689 11.4526C60.537 11.5776 60.3951 11.7136 60.2481 11.8496C59.8131 12.2526 59.4101 12.6656 59.0241 13.0896C58.7741 13.3726 58.534 13.6556 58.301 13.9436C58.067 14.2266 57.85 14.5196 57.643 14.8086C56.909 15.8256 56.3051 16.8486 55.8101 17.8386C55.6741 18.1216 55.538 18.3986 55.418 18.6766C55.293 18.9486 55.179 19.2206 55.07 19.4816C54.901 19.8786 54.765 20.2646 54.635 20.6296C54.542 20.8746 54.4661 21.1136 54.3961 21.3426C54.3631 21.4566 54.325 21.5716 54.293 21.6796C54.261 21.7876 54.228 21.8966 54.2 22.0006C54.108 22.3156 54.026 22.6096 53.966 22.8766C53.944 22.9586 53.9281 23.0396 53.9121 23.1156C53.9011 23.1486 53.89 23.1756 53.885 23.2076C53.847 23.3766 53.8201 23.5336 53.7871 23.6756C53.7601 23.8276 53.732 23.9636 53.716 24.0776C53.7 24.1376 53.694 24.1866 53.689 24.2356C53.673 24.3276 53.662 24.4036 53.656 24.4586C53.645 24.5186 53.64 24.5456 53.64 24.5456C53.64 24.5456 53.042 23.4306 52.275 22.8536C52.057 22.6846 51.8181 22.5656 51.5791 22.5276C51.0021 22.4406 50.518 22.6256 50.203 23.2346V23.2396C49.926 23.7786 49.7731 24.6426 49.8001 25.9266C49.8601 28.7006 51.709 30.8706 52.476 31.3876C53.031 31.7466 53.977 31.6646 54.478 31.5886C54.647 32.1976 54.881 32.7906 55.158 33.3726C55.86 34.8196 57.029 36.9026 58.65 38.8446C58.982 39.2476 59.3411 39.6556 59.7111 40.0576L59.33 43.9246C56.958 45.8937 55.0711 43.9246 55.0711 43.9246C59.0041 41.0146 47.7711 32.6976 48.4511 28.1996C48.5541 27.5256 48.592 26.7586 48.587 25.9366C48.565 21.2916 47.2001 14.7536 48.4511 11.1796C49.9251 6.97464 55.0711 5.74565 55.0711 5.74565C55.0711 5.74565 58.389 -0.112357 68.392 0.00164255C69.018 0.00664255 69.632 0.0396421 70.247 0.0996421C79.445 0.953642 87.169 7.15464 88.518 9.60164C89.552 11.4876 87.7141 19.1836 86.6151 23.3226Z" fill="#2B3448"/>
<path d="M83.1241 24.5517C83.0941 24.9217 83.0441 25.4217 82.9941 25.9917C82.8841 27.2117 82.7241 28.7317 82.6041 29.8817C82.5441 30.4117 82.4441 30.9517 82.3041 31.4817C82.3041 31.5017 82.2941 31.5117 82.2941 31.5317H82.5741C82.5741 31.5317 83.0641 38.7017 77.3541 42.4317C75.3841 43.7217 72.674 44.6017 68.954 44.6317C68.884 44.6317 68.8041 44.6417 68.7241 44.6417C68.6141 44.6517 68.4941 44.6517 68.3841 44.6517H68.3741C68.2641 44.6517 68.1641 44.6517 68.0441 44.6417C67.8041 44.6317 67.5741 44.6117 67.3441 44.5917C63.8841 44.3917 61.3541 43.4217 59.5041 42.0917C54.2141 38.2917 54.4741 31.5917 54.4741 31.5917C54.3141 31.0217 54.1941 30.4517 54.1341 29.8717C53.9841 28.5317 53.8641 27.1517 53.7641 25.9717C53.7241 25.4217 53.6841 24.9017 53.6641 24.4617C53.6641 24.4017 53.6741 24.3317 53.6841 24.2417C53.6941 24.1917 53.6941 24.1417 53.7141 24.0817C53.7341 23.9617 53.7541 23.8317 53.7841 23.6817C53.8141 23.5317 53.8441 23.3817 53.8841 23.2117C53.8841 23.1717 53.8941 23.1517 53.9141 23.1117C53.9241 23.0417 53.9441 22.9617 53.9741 22.8817C54.0341 22.6117 54.1141 22.3217 54.1941 22.0017C54.2241 21.9017 54.2541 21.7917 54.2941 21.6817C54.3241 21.5717 54.364 21.4617 54.394 21.3417C54.474 21.1117 54.5441 20.8717 54.6341 20.6317C54.7641 20.2617 54.9141 19.8817 55.0641 19.4817C55.1741 19.2217 55.2941 18.9517 55.4141 18.6817C55.5441 18.4017 55.6741 18.1217 55.8041 17.8417C56.3041 16.8517 56.904 15.8317 57.644 14.8117C57.844 14.5217 58.0641 14.2317 58.2941 13.9417C58.5341 13.6617 58.774 13.3717 59.024 13.0917C59.404 12.6717 59.8141 12.2517 60.2441 11.8517C60.3941 11.7117 60.5341 11.5817 60.6841 11.4517C61.1341 11.0617 61.6241 10.6817 62.1341 10.3217C62.3741 10.1417 62.6141 9.98169 62.8741 9.82169C63.1241 9.65169 63.3841 9.50169 63.6541 9.34169C63.9241 9.19169 64.1941 9.04169 64.4741 8.89169C64.7541 8.75169 65.0441 8.61169 65.3441 8.48169C65.3441 8.48169 65.3641 8.48169 65.4041 8.49169H65.4441C65.4541 8.49169 65.4641 8.49169 65.4841 8.50169C65.5141 8.51169 65.544 8.51169 65.584 8.52169H65.5941C65.6341 8.53169 65.654 8.53169 65.704 8.54169C65.704 8.55169 65.7141 8.55169 65.7341 8.55169C65.7641 8.55169 65.8041 8.56169 65.8441 8.58169C65.8741 8.58169 65.9041 8.59168 65.9341 8.60168C66.0041 8.61168 66.074 8.63169 66.144 8.65169C66.184 8.66169 66.2241 8.67169 66.2641 8.68169C66.3141 8.70169 66.3641 8.71169 66.4241 8.72169C66.4841 8.74169 66.5441 8.76168 66.6141 8.78168C66.7341 8.82168 66.8641 8.85169 66.9941 8.89169C67.2641 8.98169 67.5641 9.08169 67.8741 9.20169C68.0941 9.28169 68.304 9.36169 68.524 9.46169C68.914 9.63169 69.3141 9.82169 69.7341 10.0517C70.0141 10.2017 70.304 10.3717 70.584 10.5417C70.764 10.6617 70.9441 10.7717 71.1241 10.9017C71.2541 10.9917 71.3841 11.0817 71.5141 11.1817C72.4441 11.8717 73.3341 12.7317 74.0941 13.7917C76.3441 16.9517 75.934 20.4917 78.334 22.6717C78.434 22.7617 78.534 22.8517 78.644 22.9417C78.754 23.0217 78.8741 23.1017 78.9941 23.1917C79.1741 23.3117 79.3741 23.4217 79.5741 23.5317C79.7841 23.6417 80.0041 23.7417 80.2441 23.8417C80.3641 23.8917 80.4841 23.9317 80.6141 23.9717C80.6641 23.9917 80.7041 24.0117 80.7541 24.0217C80.7541 24.0217 80.7541 24.0217 80.7641 24.0217C80.8041 24.0417 80.8541 24.0617 80.9041 24.0717C80.9341 24.0817 80.9741 24.0917 80.9941 24.1117C81.0041 24.1117 81.0041 24.1117 81.0141 24.1117C81.0241 24.1117 81.0341 24.1117 81.0341 24.1117C81.0541 24.1217 81.0741 24.1317 81.1041 24.1317C81.1241 24.1417 81.1341 24.1417 81.1641 24.1517C81.1941 24.1617 81.2241 24.1717 81.2641 24.1817C81.3141 24.1917 81.3741 24.2117 81.4241 24.2217C81.5041 24.2417 81.5841 24.2617 81.6641 24.2817C81.7241 24.3017 81.7941 24.3117 81.8541 24.3317C81.9541 24.3517 82.0541 24.3717 82.1541 24.3917C82.4541 24.4417 82.7841 24.5017 83.1141 24.5517H83.1241Z" fill="#E79E73"/>
<path d="M103.774 138.362L99.5136 141.952L98.9436 142.942C82.8436 151.032 65.5336 166.412 65.5336 166.412C56.3936 158.162 43.8536 153.802 35.1036 150.802C29.0036 148.702 20.9336 145.992 20.9336 145.992C21.3536 144.852 22.5436 140.692 22.9036 139.972C23.3936 139.922 30.6636 142.792 35.4136 144.522C37.5736 145.312 39.2036 145.872 39.4436 145.812V145.802C41.4836 146.532 63.2036 153.652 94.5336 140.292C95.2536 141.062 97.2836 142.902 98.9136 141.342C100.864 139.482 103.604 138.422 103.774 138.362Z" fill="#E06A43"/>
<path d="M95.3343 140.032L96.2043 139.972C96.2043 139.972 77.2243 155.072 60.9643 154.332C48.0843 153.742 39.5743 147.932 36.5943 145.532L22.9043 139.972C23.2943 138.842 25.0143 130.322 25.1243 129.132C25.7243 122.912 31.7243 111.142 31.7243 111.142C31.7243 111.142 65.4643 100.342 100.754 108.422C100.754 108.422 104.824 118.792 108.324 128.352H108.334C108.554 128.982 109.294 136.092 109.504 136.762C109.504 136.762 98.4443 139.202 95.3343 140.032Z" fill="#E79E73"/>
<path d="M77.3531 42.4315C71.1931 49.4415 58.9531 47.7115 58.9531 47.7115L59.3232 43.9315L59.5032 42.0916C61.3532 43.4216 63.8831 44.3916 67.3431 44.5916C67.5731 44.6116 67.8032 44.6315 68.0432 44.6415C68.1632 44.6515 68.2632 44.6516 68.3732 44.6516H68.3832C68.4932 44.6516 68.6131 44.6515 68.7231 44.6415C68.8031 44.6415 68.8831 44.6316 68.9531 44.6316C72.6731 44.6016 75.3832 43.7215 77.3531 42.4315Z" fill="#E06A43"/>
<path d="M114.993 130.679L116.337 101.992L100.743 92.0376H100.738C101.249 85.9946 98.2086 82.4156 96.3646 76.4376C93.6996 67.8216 96.3646 52.6086 96.3646 52.6086C98.4856 53.2726 102.51 52.6086 106.466 54.2136C110.773 55.9606 135.054 90.0096 134.94 99.8766C134.826 109.744 125.639 142.021 125.639 142.021C123.447 147.906 112.449 144.746 112.449 144.746L111.508 145.181L106.966 147.281C106.944 150.534 103.148 150.42 103.148 150.42L103.942 146.112L109.463 140.515L104.698 142.022C104.698 142.022 102.903 145.182 100.918 146.64C98.9327 148.098 96.7946 146.64 96.7946 146.64L98.9437 142.941L99.5206 141.951L103.78 138.366C103.611 138.426 100.87 139.481 98.9166 141.347C97.2846 142.903 95.2617 141.064 94.5377 140.292C94.3637 140.112 94.2656 139.987 94.2656 139.987L98.1216 137.262C95.2276 137.926 94.5646 135.902 94.5646 135.902C94.5646 135.902 100.804 131.708 102.735 131.077C104.617 130.457 108.816 130.305 108.996 130.299C108.784 129.63 108.561 128.983 108.332 128.352L114.299 130.647L114.993 130.679Z" fill="#E79E73"/>
<path d="M65.5337 166.41C68.9337 187.275 60.3937 235.815 60.8447 245.639C60.8447 245.639 60.8496 246.15 60.8606 247.064C60.8606 247.075 60.8606 247.091 60.8606 247.102C60.6376 258.873 53.5887 295.088 53.5887 295.088C53.5887 295.088 56.3087 308.697 56.6127 309.905C56.6457 310.047 56.7107 310.253 56.7817 310.503C57.2817 312.369 57.9237 316.725 47.3877 316.258C35.4427 315.725 36.8787 312.853 38.9187 309.301C40.9637 305.749 42.8517 296.448 42.8517 296.448C42.8517 296.448 32.4957 252.069 29.5907 244.28C26.6917 236.496 30.6027 226.591 30.6027 226.591C30.6027 226.591 23.1877 203.305 18.4986 178.355C15.5346 162.576 19.0667 149.047 20.9347 145.996C20.9347 145.996 29.0037 148.705 35.1007 150.799C43.8527 153.806 56.3957 158.158 65.5337 166.41Z" fill="#E79E73"/>
<path d="M74.7568 296.675C74.7568 298.981 80.8058 308.919 80.7288 312.019C80.6528 315.119 60.8429 317.845 58.0469 312.019C57.7909 311.48 57.6059 310.92 57.4869 310.338C56.3009 304.583 61.2289 296.811 61.2999 292.59C61.3649 288.456 60.9518 254.586 60.8588 247.101C60.8588 247.09 60.8588 247.074 60.8588 247.063C60.8638 246.535 60.8638 246.062 60.8428 245.638C60.3918 235.815 68.9309 187.274 65.5319 166.409C65.5319 166.409 82.8449 151.032 98.9399 142.938L96.7908 146.637C96.7908 146.637 98.9289 148.095 100.914 146.637C102.899 145.179 104.694 142.019 104.694 142.019L109.459 140.512L103.938 146.109L103.144 150.417C103.144 150.417 106.941 150.531 106.962 147.278L112.113 141.824C112.113 141.824 115.83 149.797 115.666 157.167C115.033 185.647 90.9318 223.809 90.9318 223.809C90.9318 223.809 96.0338 239.659 90.9318 253.29C85.8318 266.922 74.7568 294.369 74.7568 296.675Z" fill="#E79E73"/>
<path d="M27.6638 89.5317L17.7538 100.152L20.0238 130.082C20.0238 130.082 22.3238 127.072 26.4638 125.712C26.0238 126.832 25.5638 128.012 25.1238 129.132L32.8638 129.662L39.2738 135.252C38.5038 136.842 35.7838 135.612 35.5638 135.512L39.1538 139.562C37.6538 141.982 33.8538 139.242 33.6838 139.132L37.0838 145.072C35.7438 145.812 34.4438 145.802 33.2638 145.402C33.1938 145.372 33.1638 145.362 33.1638 145.362C30.5828 143.03 29.5578 141.074 29.5578 141.074L24.8138 138.962C25.1038 139.262 29.6138 144.022 30.0538 144.902C30.5038 145.812 31.2638 149.482 29.0138 148.672C26.7638 147.872 22.1238 142.682 22.1238 142.682C21.3538 142.832 20.6138 142.922 19.9038 142.952C15.3238 143.192 11.6838 141.152 8.62382 135.512C5.08382 128.992 -0.406184 99.9317 0.0238161 95.9717C0.463816 92.0017 23.7738 55.4217 34.3538 51.3117C36.5438 50.4717 40.5438 49.9717 42.7538 49.5117C42.7538 49.5117 42.7538 49.5217 42.7438 49.5317C42.5138 50.2617 37.5538 66.0417 34.0838 73.8717C32.2738 77.9417 29.0738 82.5417 28.0038 87.2317C27.8238 87.9917 27.7138 88.7617 27.6638 89.5317Z" fill="#E79E73"/>
<path d="M102.734 92.0417C102.514 94.7117 101.164 98.9917 99.1442 103.042L100.754 108.422C65.4642 100.342 31.7242 111.142 31.7242 111.142L33.2142 104.482C30.5542 101.602 28.1342 94.7117 27.7342 91.6517C27.6442 90.9417 27.6242 90.2417 27.6642 89.5317C27.7142 88.7617 27.8242 87.9917 28.0042 87.2317C29.0742 82.5417 32.2742 77.9417 34.0842 73.8717C37.5542 66.0417 42.5142 50.2617 42.7442 49.5317C42.7542 49.5217 42.7542 49.5117 42.7542 49.5117C43.5642 49.3017 44.3642 49.1117 45.1542 48.9517C45.1542 48.9517 34.6742 74.5417 67.4342 76.4017C92.7242 77.8317 90.5342 50.9417 90.5342 50.9417C92.6242 51.5017 94.6742 52.0817 96.3642 52.6117C96.3642 52.6117 93.6942 67.8217 96.3642 76.4417C98.2042 82.4117 103.244 85.9917 102.734 92.0417Z" fill="#E06A43"/>
<path d="M77.9286 44.4276L78.6136 47.8976C78.6136 47.8976 84.7496 49.3716 90.5366 50.9376C90.5366 50.9376 92.7236 77.8346 67.4356 76.3986C34.6746 74.5386 45.1566 48.9516 45.1566 48.9516C52.5926 47.4236 58.9556 47.7056 58.9556 47.7056C58.9556 47.7056 71.3896 49.4736 77.4986 42.2556L77.9286 44.4276Z" fill="#E79E73"/>
<path d="M86.6157 23.3227C86.8657 23.8607 87.0017 24.6987 86.9747 25.9277C86.9207 28.7017 85.0707 30.8717 84.2987 31.3887C83.9617 31.6117 83.5807 31.6657 83.2647 31.6557C82.8677 31.6397 82.5687 31.5307 82.5687 31.5307L82.3027 31.4767C82.4437 30.9547 82.5417 30.4157 82.6017 29.8777C82.7267 28.7357 82.8847 27.2127 82.9987 25.9887C83.6077 25.0097 84.1187 23.9597 84.4997 22.8557C84.7227 22.6867 84.9567 22.5677 85.2017 22.5297C85.4467 22.4917 85.6637 22.5027 85.8707 22.5787C86.1747 22.6817 86.4307 22.9157 86.6157 23.3227Z" fill="#E79E73"/>
<path d="M50.1991 23.2416V23.2366C50.5141 22.6276 50.998 22.4426 51.575 22.5296C51.814 22.5676 52.0541 22.6876 52.2711 22.8556C53.0381 23.4316 53.6361 24.5476 53.6361 24.5476C53.6361 24.5476 53.6411 24.5206 53.6521 24.4606C53.6571 24.4066 53.6681 24.3296 53.6851 24.2376C53.6741 24.3356 53.663 24.4066 53.658 24.4606C53.685 24.9066 53.7231 25.4176 53.7611 25.9676C53.8591 27.1536 53.9791 28.5346 54.1311 29.8676C54.1961 30.4496 54.3111 31.0266 54.4741 31.5916C53.9741 31.6676 53.0271 31.7496 52.4721 31.3906C51.7051 30.8736 49.856 28.7036 49.796 25.9296C49.769 24.6446 49.9211 23.7796 50.1991 23.2416Z" fill="#E79E73"/>
<path d="M60.9968 134.398C57.7498 134.398 56.8778 132.36 56.8418 132.273C56.7378 132.018 56.8598 131.726 57.1148 131.621C57.3638 131.517 57.6588 131.637 57.7648 131.89C57.7958 131.962 58.4619 133.398 60.9959 133.398C61.2719 133.398 61.4959 133.622 61.4959 133.898C61.4969 134.174 61.2728 134.398 60.9968 134.398Z" fill="#E06A43"/>
<path d="M60.9958 249.926C60.7428 249.926 60.5248 249.734 60.4998 249.476C59.9768 244.254 60.7178 237.69 62.3438 223.308C62.6208 220.848 62.9258 218.155 63.2548 215.193C65.4998 195.013 65.0378 166.702 65.0328 166.419C65.0278 166.143 65.2478 165.915 65.5238 165.91C65.8128 165.909 66.0278 166.125 66.0328 166.401C66.0378 166.685 66.5008 195.06 64.2488 215.304C63.9198 218.266 63.6148 220.959 63.3368 223.42C61.7198 237.73 60.9828 244.261 61.4938 249.376C61.5218 249.65 61.3208 249.896 61.0468 249.923C61.0298 249.925 61.0128 249.926 60.9958 249.926Z" fill="#E06A43"/>
<path d="M46.4209 231.03C42.2829 231.03 39.7949 228.353 39.7579 228.312C39.5729 228.108 39.5889 227.792 39.7929 227.607C39.9969 227.423 40.3139 227.437 40.4989 227.641C40.7009 227.863 45.5309 233.004 53.1449 227.57C53.3689 227.411 53.6819 227.463 53.8419 227.687C54.0019 227.912 53.9499 228.223 53.7249 228.384C50.9489 230.365 48.4799 231.03 46.4209 231.03Z" fill="#E06A43"/>
<path d="M79.9752 227.372C75.6932 227.372 72.3982 225.261 72.2152 225.142C71.9832 224.991 71.9192 224.681 72.0692 224.45C72.2212 224.22 72.5282 224.154 72.7612 224.304C72.8172 224.34 78.4162 227.912 84.2302 225.55C84.4852 225.443 84.7792 225.568 84.8812 225.824C84.9852 226.08 84.8622 226.372 84.6072 226.475C83.0052 227.127 81.4332 227.372 79.9752 227.372Z" fill="#E06A43"/>
<path d="M51.7079 316.224C51.4669 316.224 51.254 316.049 51.215 315.803C51.04 314.702 51.0299 313.583 51.1879 312.478C51.2269 312.204 51.4849 312.022 51.7529 312.053C52.0259 312.092 52.217 312.345 52.178 312.618C52.035 313.625 52.0429 314.643 52.2029 315.644C52.2459 315.917 52.06 316.173 51.788 316.217C51.761 316.222 51.7339 316.224 51.7079 316.224Z" fill="#E06A43"/>
<path d="M47.7162 316.531C47.7032 316.531 47.6912 316.531 47.6782 316.53C47.4032 316.509 47.1962 316.269 47.2162 315.994L47.4352 313.045C47.4562 312.77 47.6962 312.556 47.9712 312.583C48.2462 312.604 48.4532 312.844 48.4332 313.119L48.2142 316.068C48.1942 316.33 47.9752 316.531 47.7162 316.531Z" fill="#E06A43"/>
<path d="M44.4343 315.998C44.4203 315.998 44.4073 315.997 44.3943 315.996C44.1193 315.975 43.9123 315.734 43.9353 315.459L44.1263 313.043C44.1473 312.768 44.4103 312.568 44.6633 312.584C44.9383 312.605 45.1443 312.846 45.1223 313.121L44.9313 315.537C44.9103 315.799 44.6913 315.998 44.4343 315.998Z" fill="#E06A43"/>
<path d="M40.4301 315.696C40.1621 315.696 39.9411 315.485 39.9301 315.216C39.8951 314.319 40.0061 313.426 40.2601 312.563C40.3371 312.297 40.6151 312.15 40.8811 312.224C41.1461 312.302 41.2971 312.579 41.2191 312.844C40.9951 313.604 40.8991 314.388 40.9301 315.177C40.9411 315.452 40.7261 315.685 40.4501 315.697C40.4421 315.696 40.4361 315.696 40.4301 315.696Z" fill="#E06A43"/>
<path d="M65.9731 316.069C65.9021 316.069 65.8281 316.053 65.7601 316.021C65.5101 315.904 65.4031 315.606 65.5211 315.356C66.0631 314.204 65.8131 312.703 64.9251 311.788C64.7341 311.59 64.7391 311.273 64.9371 311.081C65.1361 310.889 65.4521 310.894 65.6441 311.093C66.8291 312.315 67.1501 314.242 66.4251 315.782C66.3401 315.962 66.1601 316.069 65.9731 316.069Z" fill="#E06A43"/>
<path d="M69.635 315.629C69.569 315.629 69.502 315.616 69.438 315.589C69.184 315.48 69.067 315.186 69.175 314.932C69.544 314.073 69.58 313.074 69.277 312.191C69.187 311.929 69.326 311.645 69.587 311.555C69.848 311.465 70.133 311.604 70.223 311.865C70.607 312.98 70.561 314.242 70.096 315.327C70.013 315.516 69.828 315.629 69.635 315.629Z" fill="#E06A43"/>
<path d="M73.9191 315.166C73.8901 315.166 73.8611 315.164 73.8321 315.158C73.5591 315.111 73.3781 314.852 73.4261 314.58C73.5871 313.652 73.5451 312.68 73.3021 311.769C73.2311 311.502 73.3901 311.228 73.6561 311.157C73.9241 311.084 74.1971 311.245 74.2681 311.511C74.5471 312.561 74.5961 313.682 74.4101 314.751C74.3681 314.995 74.1571 315.166 73.9191 315.166Z" fill="#E06A43"/>
<path d="M78.1523 314.336C77.8853 314.336 77.6643 314.125 77.6523 313.856C77.6203 313.054 77.4583 312.265 77.1733 311.512C77.0753 311.254 77.2053 310.965 77.4643 310.867C77.7203 310.771 78.0103 310.9 78.1083 311.158C78.4313 312.011 78.6143 312.904 78.6523 313.814C78.6633 314.089 78.4493 314.323 78.1733 314.335C78.1663 314.336 78.1593 314.336 78.1523 314.336Z" fill="#E06A43"/>
<path d="M46.6261 296.283C46.1671 296.283 45.708 296.271 45.25 296.248C44.975 296.234 44.762 296 44.776 295.724C44.79 295.45 44.989 295.209 45.3 295.25C46.781 295.322 48.2791 295.272 49.7541 295.099C50.0111 295.056 50.2771 295.26 50.3091 295.537C50.3421 295.81 50.1461 296.059 49.8711 296.092C48.7981 296.219 47.7111 296.283 46.6261 296.283Z" fill="#E06A43"/>
<path d="M70.5225 296.867C70.4795 296.867 70.4355 296.861 70.3915 296.849C69.1065 296.5 67.7505 296.318 66.4455 296.347C66.4435 296.347 66.4415 296.347 66.4395 296.347C66.1665 296.347 65.9425 296.127 65.9395 295.853C65.9365 295.577 66.1575 295.35 66.4335 295.347C67.8675 295.33 69.2805 295.511 70.6535 295.884C70.9205 295.956 71.0775 296.231 71.0055 296.497C70.9445 296.721 70.7435 296.867 70.5225 296.867Z" fill="#E06A43"/>
<path d="M37.5484 136.855C36.8284 136.822 36.1174 136.55 35.5814 136.071C35.3754 135.887 35.3584 135.57 35.5424 135.364C35.7264 135.158 36.0444 135.142 36.2494 135.325C36.8214 135.838 37.6894 136.003 38.4084 135.733C38.6814 135.632 38.8514 135.437 38.8334 135.355C38.8164 135.276 38.6664 135.144 38.5754 135.066L34.2174 131.243C33.6334 130.731 32.9724 130.15 32.2204 129.929C31.6264 129.754 30.9754 129.797 30.2844 129.84L29.9664 129.86C27.6864 129.99 25.4144 129.732 23.2164 129.093C22.9514 129.016 22.7984 128.739 22.8754 128.473C22.9524 128.21 23.2304 128.056 23.4954 128.133C25.5844 128.74 27.7414 128.986 29.9114 128.861L30.2224 128.842C30.9664 128.794 31.7404 128.745 32.5034 128.969C33.4674 129.252 34.2174 129.91 34.8794 130.49L39.2374 134.313C39.4314 134.483 39.7234 134.74 39.8114 135.14C39.9704 135.863 39.3764 136.439 38.7594 136.669C38.3734 136.815 37.9594 136.874 37.5484 136.855Z" fill="#E06A43"/>
<path d="M37.0624 141.068C35.7784 141.01 34.5054 140.505 33.5564 139.646C33.3514 139.461 33.3354 139.144 33.5214 138.94C33.7064 138.734 34.0254 138.72 34.2274 138.905C35.2394 139.821 36.7044 140.245 38.0514 140.011C38.3414 139.961 38.5324 139.829 38.5534 139.771C38.5464 139.728 38.4354 139.597 38.3934 139.549L35.1754 135.803C34.4044 134.905 33.5294 133.887 32.4054 133.424C31.5254 133.061 30.5174 133.043 29.5434 133.024L24.8114 132.933C24.8064 132.933 24.8014 132.933 24.7974 132.932C24.5274 132.92 24.3154 132.695 24.3204 132.423C24.3264 132.147 24.5544 131.927 24.8294 131.932L29.5624 132.023C30.5804 132.044 31.7324 132.065 32.7854 132.498C34.1314 133.052 35.0884 134.167 35.9334 135.15L39.1494 138.896C39.2824 139.05 39.5054 139.308 39.5444 139.662C39.6174 140.299 39.0734 140.848 38.2204 140.996C37.8404 141.062 37.4514 141.086 37.0624 141.068Z" fill="#E06A43"/>
<path d="M34.4108 146.312C33.8588 146.287 33.3098 146.194 32.7808 146.031C32.5168 145.95 32.3688 145.67 32.4498 145.406C32.5308 145.143 32.8078 144.994 33.0748 145.075C34.2358 145.435 35.5017 145.398 36.6407 144.98C36.6667 144.97 36.6888 144.962 36.7068 144.954C36.7018 144.944 36.6938 144.933 36.6868 144.921L33.1227 139.169C32.7707 138.6 32.3708 137.955 31.8118 137.6C31.3248 137.292 30.7007 137.184 30.0967 137.079L24.7648 136.158C24.4918 136.111 24.3107 135.853 24.3567 135.58C24.4047 135.306 24.6668 135.119 24.9348 135.172L30.2678 136.093C30.9358 136.21 31.6927 136.341 32.3467 136.756C33.0997 137.233 33.5638 137.982 33.9728 138.643L37.5358 144.394C37.6228 144.534 37.8058 144.826 37.7358 145.178C37.6688 145.513 37.4157 145.763 36.9847 145.92C36.1607 146.22 35.2828 146.352 34.4108 146.312Z" fill="#E06A43"/>
<path d="M14.5353 135.707C14.4463 135.703 14.3583 135.676 14.2803 135.623C14.0513 135.47 13.9893 135.159 14.1433 134.93C15.5983 132.756 17.5623 130.912 19.8223 129.596C20.0573 129.459 20.3663 129.537 20.5053 129.777C20.6453 130.016 20.5633 130.322 20.3243 130.461C18.1953 131.7 16.3453 133.438 14.9743 135.486C14.8723 135.636 14.7033 135.714 14.5353 135.707Z" fill="#E06A43"/>
<path d="M108.963 131.53C108.737 131.53 108.533 131.377 108.478 131.149L107.862 128.631C107.797 128.363 107.961 128.092 108.228 128.027C108.499 127.964 108.767 128.127 108.832 128.394L109.448 130.911C109.514 131.179 109.35 131.45 109.082 131.515C109.042 131.525 109.002 131.53 108.963 131.53Z" fill="#E06A43"/>
<path d="M97.6223 137.757C96.5423 137.757 95.4783 137.326 94.7033 136.572C94.3433 136.222 94.1933 135.858 94.2593 135.492C94.3443 135.021 94.7433 134.778 94.9583 134.648L98.1503 132.724C99.2543 132.058 100.397 131.37 101.695 131C103.126 130.592 104.596 130.614 106.019 130.635C108.546 130.672 111.411 130.715 113.931 131.861C114.182 131.975 114.293 132.272 114.179 132.523C114.065 132.775 113.77 132.884 113.517 132.771C111.187 131.711 108.434 131.67 106.004 131.635C104.653 131.615 103.258 131.595 101.968 131.962C100.798 132.295 99.7143 132.949 98.6653 133.581L95.4753 135.504C95.3213 135.598 95.2633 135.649 95.2443 135.676C95.2553 135.68 95.2863 135.744 95.4003 135.856C95.9903 136.429 96.7993 136.757 97.6223 136.757C97.6273 136.757 97.6323 136.757 97.6373 136.757C97.9123 136.757 98.1363 136.98 98.1373 137.255C98.1383 137.537 97.9053 137.776 97.6223 137.757Z" fill="#E06A43"/>
<path d="M94.5177 140.948C94.4697 140.948 94.4207 140.941 94.3717 140.927C94.1787 140.867 94.0197 140.732 93.9267 140.543C93.8227 140.337 93.8097 140.084 93.8897 139.866C93.9987 139.576 94.2197 139.398 94.3667 139.281L99.5127 135.165C100.171 134.639 100.916 134.043 101.793 133.7C103.137 133.176 104.556 133.305 105.924 133.432C107.048 133.534 108.109 133.632 109.113 133.395C109.382 133.325 109.652 133.498 109.715 133.766C109.778 134.034 109.612 134.304 109.344 134.367C108.179 134.642 106.987 134.534 105.832 134.427C104.518 134.308 103.278 134.193 102.156 134.631C101.422 134.918 100.768 135.441 100.138 135.945L94.9917 140.061C94.9707 140.079 94.9367 140.105 94.9057 140.131C95.0077 140.256 95.0467 140.427 94.9967 140.592C94.9307 140.81 94.7317 140.948 94.5177 140.948Z" fill="#E06A43"/>
<path d="M103.991 138.646C103.75 138.646 103.538 138.471 103.498 138.225C103.455 137.952 103.641 137.696 103.913 137.652L109.503 136.761C109.781 136.721 110.031 136.903 110.076 137.176C110.119 137.449 109.933 137.705 109.661 137.749L104.071 138.64C104.044 138.644 104.018 138.646 103.991 138.646Z" fill="#E06A43"/>
<path d="M98.6204 147.685C98.2094 147.685 97.8095 147.622 97.4375 147.494C96.7575 147.259 96.5854 146.839 96.5424 146.608C96.4764 146.241 96.6424 145.927 96.7404 145.741L98.6834 142.096C98.8144 141.852 99.1184 141.761 99.3604 141.89C99.6034 142.02 99.6965 142.323 99.5665 142.567L97.6245 146.211C97.5995 146.259 97.5285 146.392 97.5275 146.438C97.5275 146.438 97.5904 146.49 97.7634 146.55C98.6124 146.844 99.6774 146.663 100.61 146.073C101.545 145.48 102.266 144.568 102.85 143.755L102.983 143.567C103.381 143.006 103.794 142.427 104.37 141.978C105.156 141.368 106.093 141.117 106.998 140.873C107.769 140.666 108.496 140.471 109.1 140.073C109.327 139.922 109.639 139.984 109.792 140.216C109.943 140.446 109.88 140.756 109.648 140.908C108.91 141.393 108.069 141.62 107.256 141.838C106.408 142.066 105.609 142.281 104.983 142.767C104.523 143.125 104.17 143.622 103.797 144.147L103.661 144.336C103.021 145.229 102.223 146.232 101.143 146.916C100.349 147.421 99.4614 147.685 98.6204 147.685Z" fill="#E06A43"/>
<path d="M103.852 151.301C103.227 151.301 102.751 151.037 102.578 150.591C102.445 150.251 102.531 149.922 102.589 149.705L103.045 147.982C103.225 147.303 103.428 146.535 103.846 145.868C104.24 145.239 104.78 144.759 105.301 144.293L105.462 144.15C107.163 142.621 108.69 140.893 109.997 139.017C110.155 138.789 110.47 138.737 110.693 138.893C110.92 139.051 110.975 139.363 110.817 139.589C109.465 141.528 107.888 143.313 106.129 144.894L105.966 145.04C105.475 145.478 105.011 145.891 104.693 146.399C104.355 146.937 104.18 147.598 104.011 148.238L103.555 149.961C103.537 150.025 103.496 150.182 103.509 150.229C103.525 150.246 103.668 150.311 103.87 150.301C104.939 150.286 105.975 149.546 106.334 148.54C106.383 148.401 106.423 148.257 106.462 148.113C106.573 147.71 106.699 147.253 107.023 146.876C107.355 146.489 107.809 146.288 108.173 146.126L112.351 144.274C112.599 144.162 112.898 144.274 113.01 144.529C113.122 144.781 113.008 145.077 112.755 145.188L108.578 147.04C108.277 147.174 107.966 147.311 107.782 147.526C107.603 147.734 107.517 148.047 107.426 148.379C107.38 148.547 107.333 148.714 107.276 148.876C106.774 150.283 105.381 151.28 103.885 151.301C103.874 151.301 103.862 151.301 103.852 151.301Z" fill="#E06A43"/>
<path d="M121.549 133.942C121.451 133.942 121.353 133.914 121.267 133.855C119.605 132.717 117.671 131.971 115.676 131.696C115.403 131.658 115.211 131.406 115.249 131.132C115.287 130.858 115.546 130.669 115.812 130.705C117.96 131.001 120.041 131.804 121.831 133.028C122.059 133.184 122.117 133.496 121.962 133.723C121.864 133.865 121.708 133.942 121.549 133.942Z" fill="#E06A43"/>
<path d="M17.5726 100.495C17.4236 100.495 17.2746 100.428 17.1766 100.3C16.1636 98.9817 14.7316 97.9857 13.1436 97.4947C12.8796 97.4127 12.7316 97.1337 12.8136 96.8697C12.8946 96.6057 13.1746 96.4557 13.4386 96.5397C15.2226 97.0907 16.8316 98.2097 17.9696 99.6907C18.1376 99.9097 18.0966 100.224 17.8776 100.392C17.7866 100.461 17.6796 100.495 17.5726 100.495Z" fill="#E06A43"/>
<path d="M26.0052 91.6926C25.8152 91.6926 25.6322 91.5826 25.5492 91.3966C24.8562 89.8516 23.8943 88.4636 22.6893 87.2726C22.4933 87.0786 22.4913 86.7616 22.6853 86.5656C22.8793 86.3686 23.1963 86.3676 23.3923 86.5616C24.6853 87.8406 25.7173 89.3296 26.4613 90.9876C26.5743 91.2396 26.4623 91.5356 26.2103 91.6486C26.1443 91.6786 26.0742 91.6926 26.0052 91.6926Z" fill="#E06A43"/>
<path d="M96.7034 81.3406C96.6384 81.3406 96.5724 81.3276 96.5094 81.3006C96.2544 81.1936 96.1354 80.8996 96.2424 80.6456C97.1314 78.5466 98.4624 76.5956 100.093 75.0036C100.291 74.8116 100.608 74.8146 100.8 75.0126C100.993 75.2106 100.99 75.5266 100.792 75.7196C99.2555 77.2196 98.0005 79.0576 97.1645 81.0346C97.0835 81.2266 96.8974 81.3406 96.7034 81.3406Z" fill="#E06A43"/>
<path d="M116.332 102.643C116.289 102.643 116.245 102.638 116.202 102.626C115.935 102.554 115.777 102.279 115.849 102.013C116.304 100.328 117.689 98.9576 119.378 98.5226C119.649 98.4526 119.918 98.6156 119.987 98.8826C120.055 99.1496 119.895 99.4226 119.628 99.4916C118.302 99.8326 117.171 100.952 116.814 102.274C116.755 102.496 116.553 102.643 116.332 102.643Z" fill="#E06A43"/>
<path d="M50.4785 22.9016V22.8916H51.4785L50.4785 22.9016Z" fill="black"/>
<path d="M69.2029 32.5067C69.2159 32.6377 69.058 32.7447 68.881 32.7307C67.934 32.6287 65.331 32.2687 65.108 31.2897C64.898 30.3597 67.067 26.3157 68.06 24.5287C68.172 24.3197 68.592 24.3727 68.612 24.5967L69.2029 32.5067Z" fill="#E06A43"/>
<path d="M64.7341 24.5567C64.5271 24.5567 64.3351 24.4277 64.2621 24.2217C64.2441 24.1787 63.7671 23.0007 61.6371 23.0007C61.6291 23.0007 61.6221 23.0007 61.6151 23.0007C59.3811 23.0087 58.6631 23.9587 58.6331 23.9997C58.4721 24.2207 58.1621 24.2737 57.9391 24.1177C57.7151 23.9607 57.6571 23.6567 57.8101 23.4317C57.8501 23.3737 58.8061 22.0117 61.6111 22.0017C61.6201 22.0017 61.6291 22.0017 61.6371 22.0017C64.5111 22.0017 65.1791 23.8147 65.2051 23.8927C65.2971 24.1537 65.1591 24.4387 64.8981 24.5297C64.8451 24.5477 64.7891 24.5567 64.7341 24.5567Z" fill="#2B3448"/>
<path d="M57.6821 21.8497C57.5361 21.8497 57.3911 21.7867 57.2921 21.6627C57.1191 21.4477 57.153 21.1327 57.368 20.9597C58.349 20.1677 59.5801 19.6517 60.8301 19.5047C62.0841 19.3587 63.3971 19.5747 64.5351 20.1177C64.7851 20.2367 64.8901 20.5347 64.7711 20.7837C64.6521 21.0347 64.354 21.1397 64.105 21.0197C63.134 20.5577 62.0121 20.3747 60.9471 20.4977C59.8811 20.6227 58.8331 21.0627 57.9951 21.7377C57.9031 21.8137 57.7921 21.8497 57.6821 21.8497Z" fill="#2B3448"/>
<path d="M62.5322 22.5726C62.7402 22.6346 62.7103 22.9756 62.7113 23.2086C62.7143 23.8906 62.1632 24.4456 61.4812 24.4476C60.7992 24.4506 60.2442 23.8996 60.2422 23.2176C60.2412 22.9956 60.2992 22.7866 60.4022 22.6056C60.4022 22.6056 61.6042 22.2956 62.5322 22.5726Z" fill="#2B3448"/>
<path d="M71.4626 24.5276C71.4066 24.5276 71.3515 24.5186 71.2965 24.4986C71.0385 24.4066 70.9015 24.1286 70.9895 23.8706C71.0165 23.7926 71.6745 21.9636 74.5705 21.9536C74.5815 21.9536 74.5936 21.9536 74.6036 21.9536C77.3826 21.9536 78.3416 23.2976 78.3816 23.3556C78.5376 23.5826 78.4806 23.8946 78.2536 24.0506C78.0276 24.2036 77.7195 24.1526 77.5625 23.9286C77.5225 23.8756 76.7975 22.9536 74.6045 22.9536C74.5935 22.9536 74.5846 22.9536 74.5746 22.9536C72.4256 22.9616 71.9536 24.1506 71.9336 24.2016C71.8586 24.4016 71.6666 24.5276 71.4626 24.5276Z" fill="#2B3448"/>
<path d="M78.4953 21.7726C78.3863 21.7726 78.2763 21.7366 78.1833 21.6646C77.3423 20.9966 76.2913 20.5636 75.2233 20.4466C74.1603 20.3306 73.0352 20.5236 72.0702 20.9926C71.8232 21.1136 71.5223 21.0106 71.4023 20.7616C71.2813 20.5126 71.3842 20.2136 71.6322 20.0936C72.7652 19.5436 74.0753 19.3126 75.3323 19.4526C76.5853 19.5906 77.8183 20.0986 78.8063 20.8816C79.0223 21.0536 79.0583 21.3676 78.8863 21.5846C78.7883 21.7076 78.6423 21.7726 78.4953 21.7726Z" fill="#2B3448"/>
<path d="M75.7855 22.5476C75.9545 22.6686 75.9485 22.9356 75.9495 23.1586C75.9525 23.8406 75.4015 24.3956 74.7195 24.3976C74.0375 24.4006 73.4825 23.8496 73.4805 23.1676C73.4795 22.9346 73.5435 22.7166 73.6545 22.5306C73.6545 22.5306 75.2725 22.1816 75.7855 22.5476Z" fill="#2B3448"/>
<path d="M63.0974 30.4526C63.1734 31.6256 61.7734 32.6706 59.9704 32.7886C58.1674 32.9066 56.6434 32.0506 56.5674 30.8786C56.4914 29.7056 57.8914 28.6606 59.6944 28.5426C61.4974 28.4246 63.0204 29.2806 63.0974 30.4526Z" fill="#DF895D"/>
<path d="M79.2517 29.6836C79.3277 30.8566 77.9287 31.9016 76.1247 32.0196C74.3217 32.1376 72.7977 31.2816 72.7217 30.1096C72.6457 28.9366 74.0447 27.8916 75.8487 27.7736C77.6527 27.6556 79.1757 28.5116 79.2517 29.6836Z" fill="#DF895D"/>
<path d="M53.7724 30.5867C53.5534 30.5867 53.3534 30.4427 53.2904 30.2217C52.8384 28.6127 52.1683 27.0727 51.2993 25.6457C51.1563 25.4097 51.2303 25.1027 51.4663 24.9577C51.6993 24.8137 52.0093 24.8887 52.1533 25.1247C53.0703 26.6297 53.7764 28.2537 54.2544 29.9507C54.3284 30.2167 54.1744 30.4927 53.9084 30.5677C53.8624 30.5807 53.8174 30.5867 53.7724 30.5867Z" fill="#E06A43"/>
<path d="M82.5627 30.3626C82.5247 30.3626 82.4847 30.3586 82.4457 30.3486C82.1767 30.2836 82.0117 30.0136 82.0767 29.7456C82.5017 27.9896 83.1957 26.3166 84.1397 24.7746C84.2847 24.5386 84.5937 24.4646 84.8277 24.6096C85.0627 24.7536 85.1376 25.0616 84.9936 25.2976C84.1036 26.7506 83.4497 28.3256 83.0507 29.9816C82.9927 30.2086 82.7877 30.3626 82.5627 30.3626Z" fill="#E06A43"/>
<path d="M68.1085 37.2516C67.1625 37.2516 66.4865 37.1036 66.4175 37.0876C66.1485 37.0266 65.9815 36.7586 66.0415 36.4896C66.1025 36.2206 66.3675 36.0506 66.6395 36.1126C66.6765 36.1216 70.3985 36.9266 72.4685 34.4426C72.6465 34.2306 72.9605 34.2036 73.1725 34.3786C73.3845 34.5556 73.4125 34.8706 73.2355 35.0836C71.7315 36.8876 69.5905 37.2516 68.1085 37.2516Z" fill="#2B3448"/>
<path d="M29.1462 116.149C27.2092 119.979 25.6832 124.004 24.6042 128.159C24.4422 128.782 25.4062 129.048 25.5682 128.425C26.6262 124.352 28.1102 120.409 30.0092 116.654C30.2992 116.081 29.4372 115.574 29.1462 116.149Z" fill="#E06A43"/>
<path d="M33.3415 145.231C31.9145 144.236 31.0635 142.665 30.2035 141.199C29.9795 140.817 29.7435 140.544 29.3165 140.394C28.8995 140.248 28.4645 140.152 28.0455 140.011C27.0985 139.691 26.1885 139.285 25.3125 138.806C25.1865 138.737 25.0655 138.733 24.9575 138.762C24.5365 138.578 24.0385 139.174 24.4185 139.592C26.5355 141.92 28.7155 144.189 30.9575 146.397C31.4165 146.849 32.1235 146.142 31.6645 145.69C29.9635 144.015 28.3105 142.294 26.6815 140.549C26.9335 140.653 27.1815 140.763 27.4375 140.856C27.8935 141.02 28.3565 141.159 28.8215 141.291C29.0505 141.356 29.1485 141.391 29.2745 141.592C29.3895 141.774 29.4915 141.965 29.6005 142.151C30.4685 143.635 31.4035 145.096 32.8365 146.095C33.3655 146.463 33.8665 145.596 33.3415 145.231Z" fill="#E06A43"/>
</svg>
