<svg width="118" height="310" viewBox="0 0 118 310" fill="none" xmlns="http://www.w3.org/2000/svg">
<path d="M70.267 51.3C65.845 56.685 55.668 54.895 55.668 54.895L56.979 49.053C58.779 50.892 61.031 52.295 63.729 52.387C63.832 52.398 63.925 52.398 64.028 52.398H64.033C64.131 52.398 64.234 52.398 64.332 52.387C66.546 52.305 68.455 51.353 70.065 49.994L70.267 51.3Z" fill="#E06A43"/>
<path d="M40.748 56.6518C41.303 56.6078 41.879 56.5758 42.461 56.5378V56.5428C42.461 56.5428 42.439 57.7828 42.559 59.7518L41.02 59.8658C40.884 57.8698 40.748 56.6518 40.748 56.6518Z" fill="#E06A43"/>
<path d="M82.7812 57.3918L84.3802 57.4738C84.3802 57.4738 79.1642 76.5548 85.1312 81.5968C84.3422 86.8728 83.0753 95.4128 81.9163 103.24C66.4363 96.2068 38.3423 101.015 38.3423 101.015C37.7603 96.9628 37.1733 92.8288 36.6562 89.2118C41.8672 82.1788 41.4702 66.6058 41.0182 59.8668L42.5573 59.7528C43.0303 67.4658 45.6953 79.2018 60.5013 79.2018C79.0993 79.2008 82.7812 57.3918 82.7812 57.3918Z" fill="#E06A43"/>
<path d="M84.3806 57.4728L82.7816 57.3908C82.7816 57.3908 79.0996 79.2008 60.5026 79.2008C45.6966 79.2008 43.0316 67.4648 42.5586 59.7518C42.4386 57.7828 42.4606 56.5428 42.4606 56.5428V56.5378C48.4876 56.2008 55.3626 56.2438 55.3626 56.2438L55.6676 54.8948C55.6676 54.8948 65.8446 56.6848 70.2666 51.2998L71.1806 57.1578C71.1786 57.1578 78.2826 57.1138 84.3806 57.4728Z" fill="#E79E73"/>
<path d="M33.5295 133.215C27.0025 135.01 24.1635 128.57 24.1635 128.57C24.1635 128.57 1.32948 103.669 0.627483 102.614C-0.0795175 101.553 -0.329517 98.0779 0.627483 96.3639C1.58448 94.6509 30.1625 58.7619 34.7975 57.4509C36.0975 57.0859 38.2785 56.8309 40.7485 56.6509C40.7485 56.6509 40.8845 57.8689 41.0205 59.8659C41.4715 66.6049 41.8695 82.1779 36.6585 89.2109C35.7665 82.9339 35.1025 78.2179 35.1025 78.2179L14.3845 97.2719L29.8105 123.402C29.8105 123.402 33.8685 121.884 37.1645 120.688C39.1665 119.959 40.8855 119.345 41.2275 119.268C42.1195 119.067 43.1695 119.399 43.1695 119.399C43.1695 119.399 51.9755 123.767 51.7855 124.713C51.5955 125.659 49.4685 126.089 47.8035 126.051C46.1395 126.013 43.1425 124.136 43.1425 124.136L41.8585 125.24C41.8585 125.24 46.7045 128.014 46.7425 128.618C46.7805 129.227 46.6175 132.551 46.6175 132.551C46.6175 132.551 48.5705 135.603 48.4065 136.13C48.2435 136.658 45.7625 136.255 45.7625 136.255C45.7625 136.255 46.3395 137.136 45.9145 137.691C45.4845 138.246 43.0155 137.871 43.0155 137.871L42.8635 138.573C40.1925 138.927 38.4255 134.999 38.4255 134.999L34.3465 132.954C34.0675 133.058 33.7955 133.145 33.5295 133.215Z" fill="#E79E73"/>
<path d="M82.2538 120.879C82.9338 120.531 83.3738 120.313 83.3738 120.313C83.3738 120.313 84.4238 119.987 85.3158 120.188C86.2128 120.389 96.7328 124.322 96.7328 124.322L103.505 98.4799L85.8928 76.4779C85.8928 76.4779 85.5938 78.4629 85.1308 81.5959C79.1638 76.5539 84.3798 57.4729 84.3798 57.4729C87.4148 57.6529 90.2048 57.9299 91.7448 58.3649C96.3788 59.6759 116.309 95.8579 117.266 97.5709C118.223 99.2839 117.973 102.765 117.266 103.821C116.559 104.882 102.379 129.484 102.379 129.484C102.379 129.484 99.2998 136.468 92.1968 133.868L88.1118 135.913C88.1118 135.913 87.8558 136.479 87.3988 137.159C86.6478 138.279 85.3368 139.71 83.6778 139.493L83.5258 138.786C83.5258 138.786 81.0568 139.161 80.6268 138.612C80.1968 138.057 80.7788 137.171 80.7788 137.171C80.7788 137.171 78.2988 137.579 78.1348 137.046C77.9718 136.535 79.8098 133.646 79.9188 133.472L79.9238 133.466C79.9238 133.466 79.7548 130.143 79.7928 129.539C79.8308 128.93 84.6828 126.161 84.6828 126.161L83.3988 125.051C83.3988 125.051 80.4018 126.928 78.7378 126.966C77.0738 127.004 74.9408 126.574 74.7568 125.628C74.6118 124.899 79.8878 122.097 82.2538 120.879Z" fill="#E79E73"/>
<path d="M79.5243 209.616C79.5243 209.616 80.9173 220.554 80.6663 229.426C80.4103 238.298 74.9443 280.577 74.9443 280.577L75.0643 286.816C75.0643 286.816 77.9313 304.989 76.9353 306.343C75.9403 307.692 65.8283 306.626 65.8283 306.626C65.8283 306.626 64.0063 306.74 62.8153 306.229C62.9073 302.965 63.1093 296.514 62.7773 292.511C63.0713 289.982 63.4413 287.773 63.9143 286.713C65.2963 283.613 66.3513 279.8 66.3513 279.8L63.8543 235.459C64.5283 225.668 65.0403 218.01 65.0403 217.128C65.0403 214.506 62.8483 157.818 62.8483 157.818L87.8253 139.167C88.2933 141.631 88.5273 143.861 88.5103 145.58C88.5103 145.58 87.0473 173.553 79.5243 209.616Z" fill="#E79E73"/>
<path d="M87.8246 139.166L62.8476 157.817L33.2036 147.232C32.6816 141.406 32.9266 138.6 32.9266 138.6C32.9266 138.6 53.6016 145.432 79.9216 133.471C79.8126 133.645 77.9746 136.533 78.1376 137.045C78.3006 137.578 80.7816 137.17 80.7816 137.17C80.7816 137.17 80.1996 138.057 80.6296 138.611C81.0596 139.16 83.5286 138.785 83.5286 138.785L83.6806 139.492C85.3396 139.709 86.6506 138.279 87.4016 137.158C87.5576 137.844 87.6996 138.513 87.8246 139.166Z" fill="#E06A43"/>
<path d="M84.6889 126.16C84.6889 126.16 84.6689 126.17 84.6389 126.19C84.0989 126.5 79.8289 128.97 79.7989 129.54C79.7589 130.14 79.9289 133.47 79.9289 133.47H79.9189C53.5989 145.43 32.9289 138.6 32.9289 138.6C32.9089 137.03 33.1389 135.18 33.5289 133.22C33.7989 133.14 36.8889 120.79 37.1589 120.69C38.7089 116.36 40.0889 113.15 40.0889 113.15C39.5889 109.71 38.9689 105.42 38.3389 101.02C38.3389 101.02 66.4389 96.2098 81.9189 103.24C81.2189 107.98 80.5489 112.46 80.0689 115.79C80.0689 115.79 83.4189 123.1 84.6889 126.16Z" fill="#E79E73"/>
<path d="M79.6273 30.8639C80.2583 31.1029 80.6493 32.0659 80.6123 34.2149C80.5633 36.9889 78.9153 39.1589 78.2243 39.6759C77.5393 40.1819 76.6793 39.8169 76.6793 39.8169L76.4453 39.7629C76.5703 39.2409 76.6573 38.7019 76.7123 38.1639C76.8213 37.0219 76.9623 35.4989 77.0663 34.2749C77.6103 33.2959 78.0673 32.2459 78.4043 31.1419C78.6053 30.9729 78.8123 30.8539 79.0293 30.8159C79.2463 30.7769 79.4423 30.7879 79.6273 30.8639Z" fill="#E79E73"/>
<path d="M57.1467 11.6469C59.2137 10.5099 61.5527 9.8739 64.0327 9.8739C67.8347 9.8739 71.3047 11.3699 73.9647 13.8389C77.1627 16.7979 79.1807 21.1599 79.1807 26.0339C79.1807 27.8179 78.9087 29.5369 78.4027 31.1409C78.0657 32.2449 77.6087 33.2949 77.0647 34.2739C77.1087 33.7029 77.1517 33.2019 77.1737 32.8329H77.1687C76.8697 32.7839 76.5807 32.7299 76.3097 32.6749C76.2177 32.6529 76.1307 32.6309 76.0487 32.6099C75.9887 32.5939 75.9287 32.5829 75.8747 32.5659C75.8037 32.5439 75.7337 32.5279 75.6627 32.5059C75.5807 32.4839 75.4997 32.4619 75.4237 32.4349C75.4127 32.4289 75.4017 32.4289 75.3907 32.4239C75.3857 32.4239 75.3747 32.4179 75.3687 32.4179C75.3627 32.4129 75.3577 32.4129 75.3527 32.4129C75.3367 32.4019 75.3257 32.4019 75.3147 32.3969C75.3097 32.3969 75.3037 32.3969 75.2987 32.3919H75.2927C75.2927 32.3919 75.2877 32.3869 75.2817 32.3869C75.2707 32.3869 75.2597 32.3819 75.2437 32.3759C75.2277 32.3709 75.2167 32.3649 75.2057 32.3599H75.2007C75.1517 32.3439 75.1137 32.3269 75.0697 32.3109C75.0647 32.3109 75.0647 32.3109 75.0647 32.3109C75.0217 32.2949 74.9777 32.2779 74.9337 32.2619C74.8247 32.2189 74.7107 32.1749 74.6077 32.1259C74.3957 32.0279 74.1997 31.9249 74.0147 31.8159C73.8297 31.7069 73.6557 31.5929 73.4927 31.4729C73.3837 31.3909 73.2807 31.3099 73.1827 31.2229C73.0847 31.1359 72.9927 31.0489 72.9057 30.9559C70.7677 28.7749 71.1267 25.2339 69.1257 22.0789C68.4517 21.0179 67.6517 20.1589 66.8247 19.4679C66.7107 19.3649 66.5907 19.2719 66.4707 19.1799C66.3127 19.0599 66.1557 18.9409 65.9977 18.8319C65.7417 18.6519 65.4867 18.4839 65.2357 18.3369C64.8657 18.1089 64.5017 17.9179 64.1587 17.7499C63.9577 17.6519 63.7667 17.5649 63.5767 17.4829C63.2997 17.3629 63.0327 17.2599 62.7937 17.1779C62.6737 17.1349 62.5597 17.1019 62.4507 17.0639C62.3907 17.0419 62.3367 17.0259 62.2817 17.0099C62.2327 16.9939 62.1897 16.9829 62.1457 16.9669H62.1397C61.9987 16.9229 61.8737 16.8909 61.7647 16.8639C61.7267 16.8529 61.6937 16.8419 61.6617 16.8369C61.6507 16.8369 61.6457 16.8369 61.6397 16.8309C61.6017 16.8199 61.5747 16.8149 61.5417 16.8089H61.5367C61.4987 16.7979 61.4717 16.7929 61.4447 16.7869C61.3687 16.7649 61.3247 16.7599 61.3247 16.7599C61.3247 16.7599 61.3197 16.7599 61.3197 16.7659C61.0527 16.8969 60.7977 17.0379 60.5477 17.1789C60.2977 17.3259 60.0527 17.4729 59.8137 17.6249C59.5747 17.7829 59.3407 17.9399 59.1177 18.1039C58.8887 18.2669 58.6717 18.4299 58.4597 18.6039C58.0027 18.9689 57.5727 19.3489 57.1707 19.7409C57.0347 19.8659 56.9037 20.0019 56.7737 20.1379C56.3877 20.5409 56.0287 20.9539 55.6857 21.3779C55.4627 21.6609 55.2447 21.9439 55.0387 22.2319C54.8317 22.5149 54.6357 22.8079 54.4517 23.0969C53.7987 24.1139 53.2607 25.1369 52.8197 26.1269C52.6947 26.4099 52.5747 26.6869 52.4657 26.9649C52.3567 27.2369 52.2537 27.5089 52.1557 27.7699C52.0087 28.1669 51.8837 28.5529 51.7697 28.9179C51.6877 29.1629 51.6177 29.4019 51.5577 29.6309C51.5247 29.7449 51.4927 29.8589 51.4657 29.9679C51.3457 30.4089 51.2477 30.8109 51.1717 31.1649C51.1557 31.2469 51.1387 31.3279 51.1227 31.4039C51.1177 31.4369 51.1067 31.4639 51.1007 31.4959C51.0677 31.6649 51.0407 31.8219 51.0137 31.9639C50.9867 32.1159 50.9647 32.2519 50.9487 32.3669C50.9377 32.4269 50.9327 32.4759 50.9267 32.5249C50.9107 32.6169 50.8997 32.6939 50.8937 32.7479C50.8877 32.8079 50.8827 32.8349 50.8827 32.8349C50.8827 32.8349 50.3497 31.7199 49.6647 31.1429C49.1587 29.5379 48.8867 27.8199 48.8867 26.0359C48.8847 19.7519 52.2407 14.3119 57.1467 11.6469Z" fill="#2B3448"/>
<path d="M56.9765 49.0529C56.3835 48.4489 55.8395 47.7959 55.3445 47.1329C53.8975 45.1909 52.8585 43.1079 52.2335 41.6609C51.9835 41.0789 51.7765 40.4859 51.6245 39.8769C51.4775 39.3109 51.3795 38.7349 51.3195 38.1529C51.1835 36.8199 51.0745 35.4389 50.9875 34.2529C50.9545 33.7039 50.9225 33.1919 50.8945 32.7459C50.8995 32.6919 50.9105 32.6209 50.9215 32.5229C50.9265 32.4739 50.9325 32.4249 50.9435 32.3649C50.9595 32.2509 50.9815 32.1149 51.0085 31.9619C51.0355 31.8209 51.0625 31.6629 51.0955 31.4939C51.1005 31.4609 51.1115 31.4339 51.1175 31.4019C51.1335 31.3259 51.1555 31.2439 51.1715 31.1629C51.2475 30.8089 51.3455 30.4069 51.4595 29.9659C51.4865 29.8569 51.5195 29.7429 51.5515 29.6289C51.6165 29.3999 51.6875 29.1609 51.7635 28.9159C51.8775 28.5519 52.0085 28.1649 52.1495 27.7679C52.2475 27.5069 52.3505 27.2349 52.4595 26.9629C52.5735 26.6859 52.6885 26.4079 52.8135 26.1249C53.2545 25.1349 53.7925 24.1119 54.4455 23.0949C54.6305 22.8069 54.8265 22.5129 55.0325 22.2299C55.2395 21.9419 55.4565 21.6589 55.6795 21.3759C56.0225 20.9519 56.3815 20.5379 56.7675 20.1359C56.8985 20.0049 57.0285 19.8699 57.1645 19.7389C57.5665 19.3469 57.9965 18.9669 58.4535 18.6019C58.6655 18.4279 58.8835 18.2649 59.1115 18.1019C59.3345 17.9389 59.5685 17.7809 59.8075 17.6229C60.0465 17.4709 60.2915 17.3239 60.5415 17.1769C60.7915 17.0359 61.0475 16.8939 61.3135 16.7639C61.3135 16.7639 61.3295 16.7639 61.3675 16.7749C61.3895 16.7749 61.4105 16.7809 61.4385 16.7859C61.4655 16.7919 61.4925 16.7969 61.5305 16.8079H61.5355C61.5685 16.8129 61.5955 16.8189 61.6335 16.8299C61.6385 16.8359 61.6445 16.8359 61.6555 16.8359C61.6885 16.8409 61.7205 16.8519 61.7585 16.8629C61.8615 16.8899 61.9925 16.9279 62.1335 16.9659H62.1395C62.1825 16.9819 62.2265 16.9929 62.2755 17.0089C62.3295 17.0249 62.3845 17.0419 62.4445 17.0629C62.5535 17.1009 62.6675 17.1339 62.7875 17.1769C63.0265 17.2639 63.2935 17.3669 63.5705 17.4819C63.7605 17.5639 63.9515 17.6509 64.1525 17.7489C64.4955 17.9179 64.8595 18.1079 65.2295 18.3359C65.4795 18.4829 65.7355 18.6509 65.9915 18.8309C66.1495 18.9449 66.3065 19.0589 66.4645 19.1849C66.5845 19.2769 66.7035 19.3699 66.8185 19.4679C67.6455 20.1589 68.4445 21.0179 69.1195 22.0789C71.1215 25.2339 70.7625 28.7749 72.8995 30.9559C72.9865 31.0479 73.0795 31.1349 73.1765 31.2229C73.2745 31.3099 73.3775 31.3919 73.4865 31.4729C73.6495 31.5929 73.8235 31.7069 74.0085 31.8159C74.1935 31.9299 74.3895 32.0279 74.6015 32.1259C74.7045 32.1749 74.8195 32.2179 74.9275 32.2619C74.9715 32.2779 75.0145 32.2949 75.0585 32.3109C75.0585 32.3109 75.0585 32.3109 75.0635 32.3109C75.1015 32.3269 75.1455 32.3439 75.1885 32.3599C75.1945 32.3599 75.1945 32.3599 75.1945 32.3599C75.2105 32.3659 75.2215 32.3709 75.2385 32.3759C75.2495 32.3819 75.2655 32.3869 75.2765 32.3919C75.2815 32.3919 75.2815 32.3919 75.2875 32.3919H75.2935C75.2985 32.3969 75.3045 32.3969 75.3095 32.3969C75.3205 32.4019 75.3315 32.4019 75.3475 32.4129C75.3525 32.4179 75.3585 32.4179 75.3635 32.4179C75.3685 32.4179 75.3795 32.4239 75.3855 32.4239C75.3965 32.4289 75.4075 32.4289 75.4185 32.4349C75.4945 32.4619 75.5765 32.4839 75.6575 32.5059C75.7285 32.5279 75.7985 32.5439 75.8695 32.5659C75.9235 32.5819 75.9835 32.5989 76.0435 32.6149C76.1305 32.6369 76.2175 32.6529 76.3045 32.6749C76.5765 32.7289 76.8645 32.7839 77.1635 32.8329H77.1685C77.1465 33.2029 77.1035 33.7029 77.0595 34.2739C76.9565 35.4979 76.8145 37.0209 76.7055 38.1629C76.6515 38.7009 76.5645 39.2399 76.4385 39.7619C76.2805 40.4419 76.0635 41.1059 75.7855 41.7469C75.1495 43.1939 74.1155 45.2439 72.6955 47.1589C71.9335 48.1819 71.0525 49.1659 70.0575 49.9929C68.4475 51.3529 66.5385 52.3049 64.3245 52.3859C64.2265 52.3969 64.1235 52.3969 64.0255 52.3969H64.0205C63.9175 52.3969 63.8245 52.3969 63.7215 52.3859C61.0295 52.2949 58.7775 50.8919 56.9765 49.0529Z" fill="#E79E73"/>
<path d="M75.2821 8.9979C75.3801 10.7009 74.9341 12.4469 73.9661 13.8389C71.3061 11.3699 67.8361 9.8739 64.0341 9.8739C61.5541 9.8739 59.2151 10.5099 57.1481 11.6469C56.2451 10.8469 55.6851 9.6239 55.6411 8.3999C55.5871 6.6489 56.4511 4.96191 57.6921 3.72791C58.9321 2.49891 60.5151 1.67191 62.1411 1.01891C63.8221 0.344906 65.6331 -0.167096 67.4391 0.0509037C69.5981 0.311904 71.5401 1.61691 72.9271 3.29291C74.2651 4.90791 75.1621 6.9099 75.2821 8.9979Z" fill="#2B3448"/>
<path d="M63.8532 235.458C62.5152 254.865 60.5132 282.649 60.5132 282.649C60.5132 282.649 61.2202 286.544 62.3192 289.758C62.5262 290.367 62.6732 291.335 62.7762 292.51C63.1082 296.513 62.9072 302.964 62.8142 306.228C62.7922 307.033 62.7762 307.648 62.7762 307.979C62.7822 310.057 58.6152 309.415 58.6152 309.415C58.6152 309.415 48.4432 309.567 47.5732 308.131C46.7032 306.695 51.2062 288.849 51.2062 288.849L51.8862 282.648C51.8862 282.648 45.6472 245.791 45.0812 237.29C44.5102 228.783 49.1602 208.255 49.1602 208.255C37.5422 177.539 34.1422 157.599 33.2012 147.232L62.8452 157.817C62.8452 157.817 65.0372 214.505 65.0372 217.127C65.0392 218.009 64.5272 225.667 63.8532 235.458Z" fill="#E79E73"/>
<path d="M47.8134 31.522C48.0964 30.913 48.5264 30.728 49.0424 30.815C49.2544 30.853 49.4664 30.973 49.6624 31.141C50.3474 31.718 50.8804 32.833 50.8804 32.833C50.8804 32.833 50.8854 32.806 50.8914 32.746C50.8964 32.692 50.9074 32.615 50.9244 32.523C50.9134 32.621 50.9024 32.692 50.8974 32.746C50.9244 33.192 50.9574 33.703 50.9904 34.253C51.0774 35.439 51.1864 36.82 51.3224 38.153C51.3824 38.735 51.4804 39.312 51.6274 39.877C51.1814 39.953 50.3384 40.035 49.8434 39.676C49.1584 39.159 47.5104 36.989 47.4554 34.215C47.4334 32.926 47.5694 32.061 47.8134 31.522Z" fill="#E79E73"/>
<path d="M79.4355 31.4948V31.4858H80.4355L79.4355 31.4948Z" fill="black"/>
<path d="M63.0847 40.3759C63.0727 40.4979 63.2187 40.5959 63.3827 40.5829C64.2577 40.4879 66.6647 40.1549 66.8717 39.2509C67.0657 38.3919 65.0607 34.6519 64.1427 33.0009C64.0397 32.8069 63.6507 32.8569 63.6317 33.0639L63.0847 40.3759Z" fill="#E06A43"/>
<path d="M67.2172 33.059C67.1602 33.059 67.1032 33.049 67.0472 33.028C66.7912 32.934 66.6562 32.655 66.7472 32.398C66.7722 32.325 67.3992 30.624 70.0832 30.624C70.0912 30.624 70.0992 30.624 70.1062 30.624C72.7192 30.634 73.6132 31.909 73.6502 31.963C73.8052 32.192 73.7462 32.502 73.5172 32.657C73.2912 32.811 72.9831 32.755 72.8271 32.531C72.7921 32.485 72.1322 31.632 70.1022 31.624C70.0962 31.624 70.0892 31.624 70.0822 31.624C68.1402 31.624 67.7051 32.69 67.6871 32.736C67.6101 32.934 67.4192 33.059 67.2172 33.059Z" fill="#2B3448"/>
<path d="M73.7374 30.5599C73.6274 30.5599 73.5164 30.5239 73.4244 30.4489C72.6574 29.8299 71.6954 29.4259 70.7154 29.3099C69.7364 29.1949 68.7064 29.3659 67.8174 29.7889C67.5664 29.9079 67.2684 29.8009 67.1504 29.5529C67.0314 29.3029 67.1374 29.0049 67.3864 28.8859C68.4444 28.3819 69.6684 28.1799 70.8324 28.3159C71.9974 28.4529 73.1404 28.9339 74.0524 29.6699C74.2674 29.8429 74.3014 30.1579 74.1274 30.3729C74.0284 30.4969 73.8834 30.5599 73.7374 30.5599Z" fill="#2B3448"/>
<path d="M69.2518 31.1909C69.0598 31.2479 69.0878 31.5629 69.0868 31.7789C69.0848 32.4099 69.5938 32.9229 70.2238 32.9249C70.8538 32.9269 71.3668 32.4179 71.3698 31.7879C71.3708 31.5819 71.3168 31.3889 71.2228 31.2219C71.2228 31.2219 70.1098 30.9339 69.2518 31.1909Z" fill="#2B3448"/>
<path d="M60.9952 33.0399C60.7872 33.0399 60.5932 32.9099 60.5222 32.7019C60.5072 32.6639 60.0762 31.5879 58.1182 31.5799C56.0672 31.5299 55.4132 32.4309 55.3862 32.4669C55.2232 32.6849 54.9132 32.7369 54.6912 32.5779C54.4692 32.4189 54.4132 32.1159 54.5682 31.8919C54.6052 31.8379 55.5032 30.5789 58.0922 30.5789C58.1022 30.5789 58.1122 30.5789 58.1222 30.5789C60.8262 30.5889 61.4432 32.3039 61.4682 32.3769C61.5572 32.6379 61.4182 32.9219 61.1562 33.0119C61.1032 33.0309 61.0492 33.0399 60.9952 33.0399Z" fill="#2B3448"/>
<path d="M54.4948 30.4889C54.3478 30.4889 54.2018 30.4239 54.1028 30.2999C53.9308 30.0839 53.9668 29.7689 54.1838 29.5969C55.1008 28.8679 56.2488 28.3959 57.4138 28.2679C58.5788 28.1399 59.8018 28.3519 60.8558 28.8639C61.1038 28.9849 61.2078 29.2839 61.0868 29.5319C60.9658 29.7799 60.6698 29.8849 60.4188 29.7629C59.5318 29.3319 58.5018 29.1559 57.5238 29.2619C56.5438 29.3699 55.5788 29.7669 54.8068 30.3799C54.7138 30.4529 54.6038 30.4889 54.4948 30.4889Z" fill="#2B3448"/>
<path d="M56.9997 31.1679C56.8437 31.2789 56.8487 31.5269 56.8477 31.7329C56.8457 32.3639 57.3547 32.8759 57.9847 32.8789C58.6147 32.8809 59.1277 32.3719 59.1307 31.7419C59.1317 31.5269 59.0727 31.3249 58.9697 31.1529C58.9697 31.1529 57.4747 30.8299 56.9997 31.1679Z" fill="#2B3448"/>
<path d="M68.7313 38.4769C68.6603 39.5609 69.9553 40.5279 71.6223 40.6369C73.2893 40.7459 74.6983 39.9549 74.7693 38.8709C74.8403 37.7869 73.5453 36.8199 71.8783 36.7119C70.2113 36.6019 68.8023 37.3919 68.7313 38.4769Z" fill="#DF895D"/>
<path d="M53.7958 37.7658C53.7248 38.8498 55.0198 39.8168 56.6868 39.9258C58.3538 40.0348 59.7628 39.2438 59.8338 38.1598C59.9048 37.0758 58.6098 36.1088 56.9428 35.9998C55.2748 35.8908 53.8658 36.6818 53.7958 37.7658Z" fill="#DF895D"/>
<path d="M77.3525 38.638C77.3075 38.638 77.2614 38.632 77.2164 38.619C76.9504 38.544 76.7955 38.268 76.8705 38.002C77.3125 36.429 77.9675 34.925 78.8175 33.531C78.9605 33.295 79.2675 33.22 79.5045 33.364C79.7405 33.508 79.8155 33.815 79.6715 34.051C78.8695 35.367 78.2515 36.787 77.8345 38.272C77.7715 38.494 77.5705 38.638 77.3525 38.638Z" fill="#E06A43"/>
<path d="M50.7353 38.4299C50.5093 38.4299 50.3053 38.2769 50.2503 38.0479C49.8803 36.5219 49.2773 35.0689 48.4583 33.7289C48.3143 33.4939 48.3883 33.1859 48.6243 33.0409C48.8593 32.8969 49.1663 32.9709 49.3123 33.2069C50.1863 34.6349 50.8283 36.1849 51.2223 37.8119C51.2873 38.0809 51.1223 38.3509 50.8543 38.4159C50.8133 38.4259 50.7743 38.4299 50.7353 38.4299Z" fill="#E06A43"/>
<path d="M64.0979 44.7999C62.7209 44.7999 60.7279 44.4619 59.3269 42.7819C59.1499 42.5699 59.1789 42.2539 59.3909 42.0769C59.6039 41.8999 59.9189 41.9289 60.0959 42.1409C61.9919 44.4169 65.4129 43.6809 65.4479 43.6719C65.7149 43.6089 65.9849 43.7809 66.0459 44.0489C66.1069 44.3179 65.9389 44.5859 65.6699 44.6469C65.6049 44.6619 64.9769 44.7999 64.0979 44.7999Z" fill="#2B3448"/>
<path d="M46.6361 136.92C46.2531 136.92 45.8781 136.852 45.5621 136.715C45.3091 136.605 45.1921 136.31 45.3031 136.057C45.4121 135.803 45.7061 135.69 45.9611 135.797C46.3601 135.972 46.9701 135.96 47.4131 135.773C47.6311 135.681 47.7851 135.555 47.8331 135.426C47.8741 135.125 47.1151 133.903 46.2361 132.876C46.1541 132.781 46.1111 132.659 46.1161 132.535C46.1701 130.847 46.1511 128.819 46.0281 128.486C45.8371 128.311 43.7721 126.986 41.9141 125.85C41.7941 125.777 41.7101 125.657 41.6831 125.518C41.6571 125.38 41.6901 125.237 41.7741 125.124L42.7391 123.835C42.8241 123.723 42.9511 123.651 43.0901 123.637C43.2331 123.622 43.3691 123.669 43.4731 123.762C43.4961 123.783 45.7971 125.816 48.0461 125.552C49.7501 125.358 50.4671 124.84 50.5341 124.674C50.5171 124.688 50.4551 124.629 50.3061 124.558C49.9411 124.383 49.1881 123.976 48.2731 123.482C46.3851 122.461 42.8731 120.562 42.1441 120.47C41.2741 120.36 38.3291 120.942 37.2701 121.175C37.0001 121.233 36.7331 121.064 36.6741 120.794C36.6141 120.524 36.7851 120.258 37.0551 120.198C37.4621 120.108 41.0661 119.33 42.2691 119.478C43.1151 119.585 45.7041 120.956 48.7481 122.602C49.6441 123.086 50.3801 123.485 50.7381 123.656C51.5581 124.05 51.5591 124.614 51.5211 124.838C51.3531 125.834 49.6751 126.374 48.1601 126.546C46.0691 126.785 44.0751 125.493 43.2281 124.85L42.9031 125.284C44.4451 126.232 46.6011 127.595 46.8641 127.947C46.9671 128.084 47.2371 128.446 47.1211 132.373C47.9311 133.339 49.0921 134.928 48.7671 135.78C48.6171 136.175 48.2831 136.49 47.8001 136.693C47.4461 136.845 47.0371 136.92 46.6361 136.92Z" fill="#E06A43"/>
<path d="M45.2456 138.695C44.4636 138.695 43.5166 138.302 43.1726 138.148C42.9216 138.034 42.8086 137.738 42.9226 137.487C43.0356 137.235 43.3306 137.126 43.5836 137.236C44.3396 137.576 45.2446 137.789 45.4466 137.674C45.4156 136.868 44.8926 135.926 44.3866 135.015C44.2796 134.822 44.1726 134.629 44.0716 134.44C43.6886 133.721 43.6256 132.635 43.5756 131.762C43.5566 131.437 43.5326 131.008 43.4906 130.814C42.7006 130.425 39.4066 128.713 39.2556 128.635C39.0106 128.508 38.9156 128.206 39.0426 127.961C39.1696 127.715 39.4696 127.617 39.7166 127.748C40.8176 128.319 43.7396 129.833 44.0396 129.968C44.4866 130.169 44.5176 130.714 44.5746 131.704C44.6196 132.479 44.6756 133.444 44.9556 133.969C45.0536 134.153 45.1576 134.341 45.2626 134.53C45.8306 135.553 46.4186 136.611 46.4156 137.694C46.4146 138.048 46.2636 138.339 45.9896 138.515C45.7856 138.644 45.5266 138.695 45.2456 138.695ZM43.6246 130.878L43.6266 130.879L43.6246 130.878Z" fill="#E06A43"/>
<path d="M42.1257 138.763C41.9097 138.763 41.6927 138.713 41.4887 138.613C40.4977 138.124 39.2417 137.159 38.7567 135.324L34.3397 133.494C33.6347 133.759 31.2357 134.545 29.4197 133.789C29.1647 133.682 29.0437 133.39 29.1497 133.135C29.2557 132.881 29.5497 132.762 29.8027 132.865C31.5207 133.579 34.1247 132.505 34.1507 132.494C34.2747 132.442 34.4137 132.442 34.5357 132.493L39.3737 134.498C39.5257 134.561 39.6367 134.694 39.6707 134.854C40.0177 136.468 41.0907 137.301 41.9297 137.716C42.1277 137.814 42.2877 137.733 42.3487 137.694C42.4097 137.653 42.5487 137.535 42.5347 137.31C42.4557 136.058 41.9457 134.614 41.4427 134.218C40.4787 133.457 36.5457 130.591 36.5057 130.563C36.2827 130.4 36.2337 130.087 36.3957 129.865C36.5587 129.641 36.8707 129.592 37.0947 129.755C37.2577 129.873 41.0827 132.661 42.0617 133.434C42.9017 134.096 43.4467 135.893 43.5327 137.247C43.5657 137.764 43.3297 138.242 42.9037 138.526C42.6677 138.684 42.3977 138.763 42.1257 138.763Z" fill="#E06A43"/>
<path d="M28.0312 125.518C27.9492 125.518 27.8662 125.498 27.7892 125.455C27.5472 125.321 27.4602 125.016 27.5942 124.775C27.6252 124.719 28.3642 123.408 29.6342 122.934C29.8932 122.838 30.1812 122.969 30.2772 123.227C30.3742 123.486 30.2422 123.774 29.9842 123.87C29.0702 124.211 28.4752 125.248 28.4692 125.259C28.3772 125.425 28.2062 125.518 28.0312 125.518Z" fill="#E06A43"/>
<path d="M98.1498 127.409C97.9188 127.409 97.7108 127.248 97.6608 127.013C97.5068 126.283 97.1568 125.609 96.6478 125.065C96.4598 124.863 96.4708 124.546 96.6718 124.358C96.8748 124.17 97.1898 124.181 97.3788 124.383C98.0108 125.061 98.4468 125.899 98.6388 126.807C98.6958 127.077 98.5228 127.342 98.2528 127.4C98.2188 127.405 98.1838 127.409 98.1498 127.409Z" fill="#E06A43"/>
<path d="M79.9203 133.971C79.6823 133.971 79.4723 133.801 79.4283 133.559C79.3333 133.026 78.8823 130.319 79.3413 129.328C79.7253 128.502 82.3763 126.9 83.8203 126.074L83.3383 125.658C82.4503 126.141 79.8663 127.493 77.9983 127.9C75.9413 128.351 74.6773 126.736 74.2963 125.82C74.1913 125.567 74.3083 125.278 74.5593 125.169C76.4473 124.348 81.9113 120.509 81.9663 120.471C82.1923 120.311 82.5043 120.366 82.6623 120.592C82.8213 120.818 82.7673 121.13 82.5413 121.288C82.3303 121.436 77.7063 124.686 75.4493 125.85C75.7973 126.379 76.5523 127.189 77.7853 126.923C79.8773 126.466 83.1223 124.634 83.1553 124.616C83.3383 124.512 83.5683 124.535 83.7293 124.673L85.0133 125.783C85.1363 125.89 85.2003 126.05 85.1833 126.213C85.1663 126.375 85.0713 126.52 84.9283 126.599C82.8493 127.751 80.4693 129.283 80.2493 129.75C80.0083 130.27 80.2003 132.188 80.4133 133.384C80.4613 133.655 80.2813 133.915 80.0093 133.964C79.9793 133.968 79.9493 133.971 79.9203 133.971Z" fill="#E06A43"/>
<path d="M80.2154 137.984C80.0754 137.984 79.9374 137.925 79.8374 137.812C79.6564 137.604 79.6784 137.288 79.8864 137.107C80.9144 136.212 81.5634 134.865 81.6224 133.503C81.6284 133.357 81.6284 133.209 81.6294 133.062C81.6304 132.617 81.6324 132.156 81.7764 131.69C82.0904 130.679 82.9134 130.082 83.7094 129.503C84.3354 129.049 84.9264 128.619 85.2214 128.027C85.3444 127.78 85.6454 127.679 85.8924 127.802C86.1394 127.925 86.2404 128.225 86.1174 128.472C85.7134 129.285 84.9934 129.806 84.2974 130.312C83.6034 130.816 82.9474 131.291 82.7324 131.986C82.6324 132.308 82.6314 132.675 82.6304 133.063C82.6294 133.224 82.6294 133.385 82.6224 133.544C82.5524 135.176 81.7744 136.789 80.5434 137.86C80.4484 137.944 80.3314 137.984 80.2154 137.984Z" fill="#E06A43"/>
<path d="M83.1606 139.578C83.0236 139.578 82.8876 139.522 82.7886 139.413C82.6036 139.207 82.6206 138.892 82.8256 138.707C83.1756 138.392 83.3636 137.836 83.4016 137.007L83.4156 136.565C83.4306 135.929 83.4466 135.272 83.7006 134.634C84.0496 133.758 84.7526 133.155 85.4316 132.572C86.1036 131.994 86.7396 131.449 86.9236 130.715C86.9896 130.445 87.2606 130.286 87.5296 130.351C87.7976 130.418 87.9606 130.69 87.8926 130.957C87.6316 132.001 86.8446 132.677 86.0826 133.331C85.4676 133.858 84.8876 134.356 84.6286 135.005C84.4406 135.475 84.4286 136.016 84.4146 136.588C84.4116 136.743 84.4076 136.898 84.4006 137.052C84.3496 138.162 84.0536 138.947 83.4946 139.449C83.3996 139.537 83.2796 139.578 83.1606 139.578Z" fill="#E06A43"/>
<path d="M63.2227 245.032C63.2107 245.032 63.1997 245.032 63.1877 245.031C62.9117 245.011 62.7047 244.773 62.7227 244.498C62.7347 244.335 63.8577 228.038 64.5387 217.097C65.2187 206.185 62.3757 158.33 62.3467 157.849C62.3297 157.573 62.5397 157.336 62.8157 157.32C63.0837 157.296 63.3287 157.513 63.3447 157.789C63.3737 158.272 66.2207 206.188 65.5367 217.16C64.8547 228.104 63.7317 244.404 63.7207 244.567C63.7027 244.83 63.4837 245.032 63.2227 245.032Z" fill="#E06A43"/>
<path d="M59.2082 213.347C56.8372 213.347 54.4592 212.421 52.7932 210.721C52.6002 210.524 52.6032 210.207 52.8002 210.014C52.9972 209.822 53.3132 209.823 53.5072 210.022C55.6642 212.223 59.1692 212.959 62.0292 211.818C62.2862 211.714 62.5762 211.84 62.6792 212.096C62.7822 212.353 62.6572 212.643 62.4002 212.745C61.3852 213.152 60.2972 213.347 59.2082 213.347Z" fill="#E06A43"/>
<path d="M73.5217 214.874C71.6787 214.874 69.8287 214.296 68.3707 213.184C68.1517 213.017 68.1087 212.704 68.2757 212.484C68.4427 212.263 68.7567 212.22 68.9767 212.389C71.0817 213.992 74.1157 214.335 76.5247 213.243C76.7767 213.128 77.0727 213.241 77.1867 213.492C77.3007 213.743 77.1887 214.04 76.9377 214.153C75.8717 214.637 74.6977 214.874 73.5217 214.874Z" fill="#E06A43"/>
<path d="M34.9033 78.4229C34.6593 78.4229 34.4473 78.2449 34.4093 77.9969C34.1373 76.1809 33.7293 74.3689 33.1993 72.6129C33.1193 72.3489 33.2683 72.0699 33.5333 71.9899C33.7953 71.9109 34.0763 72.0599 34.1563 72.3239C34.7003 74.1259 35.1193 75.9839 35.3993 77.8479C35.4403 78.1209 35.2523 78.3759 34.9783 78.4169C34.9533 78.4209 34.9283 78.4229 34.9033 78.4229Z" fill="#E06A43"/>
<path d="M85.5416 76.9799C85.5276 76.9799 85.5136 76.9788 85.5006 76.9788C85.2256 76.9558 85.0206 76.7139 85.0426 76.4389C85.1836 74.7389 85.7186 73.0659 86.5916 71.6009C86.7336 71.3629 87.0396 71.2849 87.2776 71.4269C87.5146 71.5689 87.5926 71.8749 87.4516 72.1129C86.6556 73.4489 86.1676 74.9729 86.0396 76.5219C86.0176 76.7829 85.7996 76.9799 85.5416 76.9799Z" fill="#E06A43"/>
<path d="M103.531 98.985C103.445 98.985 103.357 98.963 103.277 98.915C103.039 98.775 102.961 98.468 103.101 98.231C103.98 96.744 105.353 95.586 106.967 94.971C107.223 94.87 107.513 95.002 107.613 95.26C107.711 95.518 107.582 95.807 107.324 95.906C105.921 96.441 104.727 97.447 103.962 98.74C103.868 98.897 103.702 98.985 103.531 98.985Z" fill="#E06A43"/>
<path d="M14.4051 97.6939C14.3001 97.6939 14.1931 97.6609 14.1021 97.5909C13.1401 96.8569 11.898 96.4739 10.685 96.5389C10.409 96.5639 10.1731 96.3429 10.1591 96.0669C10.1431 95.7919 10.3551 95.5559 10.6311 95.5409C12.0711 95.4539 13.5611 95.9189 14.7101 96.7959C14.9301 96.9629 14.9721 97.2769 14.8041 97.4969C14.7041 97.6259 14.5561 97.6939 14.4051 97.6939Z" fill="#E06A43"/>
<path d="M59.977 129.915C59.865 129.915 59.752 129.878 59.659 129.801L57.421 127.949C57.209 127.772 57.179 127.458 57.355 127.245C57.529 127.031 57.845 127 58.059 127.178L60.297 129.03C60.509 129.207 60.54 129.521 60.363 129.734C60.264 129.854 60.121 129.915 59.977 129.915Z" fill="#E06A43"/>
<path d="M54.101 285.571C53.872 285.571 53.665 285.413 53.614 285.18C53.553 284.91 53.723 284.643 53.993 284.582C55.363 284.275 56.768 284.176 58.17 284.276C58.445 284.297 58.652 284.537 58.632 284.812C58.611 285.087 58.366 285.289 58.097 285.274C56.791 285.176 55.485 285.272 54.211 285.558C54.174 285.567 54.137 285.571 54.101 285.571Z" fill="#E06A43"/>
<path d="M72.4493 283.709C72.3883 283.709 72.3263 283.698 72.2663 283.675C71.1533 283.237 69.8993 283.153 68.7353 283.435C68.4653 283.494 68.1963 283.334 68.1313 283.067C68.0663 282.799 68.2313 282.528 68.4993 282.463C69.8593 282.135 71.3263 282.232 72.6303 282.744C72.8873 282.846 73.0144 283.136 72.9134 283.392C72.8374 283.589 72.6483 283.709 72.4493 283.709Z" fill="#E06A43"/>
<path d="M66.2567 307.049C66.0657 307.049 65.8827 306.939 65.7997 306.753C65.6867 306.501 65.7997 306.205 66.0517 306.093C66.4467 305.916 66.6187 305.381 66.5857 304.945C66.5437 304.386 66.2567 303.839 65.9787 303.309C65.8507 303.064 65.9447 302.762 66.1887 302.634C66.4347 302.504 66.7357 302.601 66.8637 302.844C67.1737 303.435 67.5247 304.105 67.5827 304.868C67.6427 305.655 67.3177 306.621 66.4597 307.005C66.3937 307.036 66.3237 307.049 66.2567 307.049Z" fill="#E06A43"/>
<path d="M69.9333 307.602C69.8193 307.602 69.7053 307.563 69.6113 307.484C69.4003 307.306 69.3733 306.991 69.5513 306.78C69.7943 306.492 69.9163 306.096 69.8773 305.722C69.8383 305.348 69.6383 304.987 69.3413 304.755C69.1233 304.585 69.0843 304.271 69.2543 304.053C69.4233 303.836 69.7373 303.795 69.9563 303.966C70.4713 304.367 70.8053 304.97 70.8723 305.618C70.9393 306.266 70.7373 306.925 70.3163 307.424C70.2173 307.541 70.0763 307.602 69.9333 307.602Z" fill="#E06A43"/>
<path d="M72.3262 307.38C72.2142 307.38 72.1022 307.343 72.0092 307.266C71.7962 307.091 71.7652 306.776 71.9412 306.563C72.1702 306.284 72.1622 305.854 72.0772 305.543C71.9612 305.117 71.6932 304.714 71.4332 304.323C71.2802 304.094 71.3432 303.783 71.5732 303.63C71.8022 303.479 72.1122 303.54 72.2662 303.771C72.5552 304.206 72.8822 304.699 73.0412 305.28C73.2362 305.995 73.1132 306.712 72.7132 307.198C72.6142 307.318 72.4712 307.38 72.3262 307.38Z" fill="#E06A43"/>
<path d="M74.7414 307.324C74.5944 307.324 74.4494 307.26 74.3494 307.136C74.1774 306.92 74.2124 306.606 74.4284 306.434C74.6624 306.248 74.8174 305.958 74.8434 305.662C74.8694 305.364 74.7674 305.053 74.5704 304.828C74.3884 304.62 74.4084 304.305 74.6164 304.122C74.8234 303.941 75.1384 303.961 75.3224 304.168C75.7014 304.601 75.8904 305.178 75.8394 305.75C75.7894 306.322 75.5024 306.857 75.0524 307.216C74.9614 307.288 74.8514 307.324 74.7414 307.324Z" fill="#E06A43"/>
<path d="M58.7594 309.951C58.6394 309.951 58.5194 309.908 58.4244 309.821C57.7174 309.181 57.2594 308.268 57.1694 307.318C57.0784 306.368 57.3554 305.385 57.9284 304.623C58.0934 304.402 58.4084 304.355 58.6284 304.523C58.8494 304.688 58.8934 305.002 58.7284 305.222C58.3034 305.788 58.0974 306.518 58.1654 307.222C58.2324 307.928 58.5724 308.605 59.0964 309.08C59.3014 309.265 59.3174 309.581 59.1314 309.786C59.0314 309.895 58.8954 309.951 58.7594 309.951Z" fill="#E06A43"/>
<path d="M55.0185 309.383C54.8385 309.383 54.6645 309.286 54.5755 309.116C54.0225 308.066 54.0975 306.701 54.7635 305.719C54.9185 305.49 55.2295 305.431 55.4575 305.585C55.6865 305.74 55.7465 306.051 55.5915 306.279C55.1275 306.965 55.0745 307.917 55.4605 308.649C55.5895 308.894 55.4955 309.196 55.2515 309.325C55.1765 309.365 55.0965 309.383 55.0185 309.383Z" fill="#E06A43"/>
<path d="M52.2418 309.46C52.0628 309.46 51.8898 309.364 51.8008 309.195C51.1598 307.996 51.5028 306.409 52.5828 305.582C52.8028 305.415 53.1168 305.456 53.2838 305.676C53.4518 305.895 53.4108 306.209 53.1908 306.377C52.5128 306.896 52.2798 307.971 52.6828 308.725C52.8128 308.968 52.7208 309.271 52.4778 309.402C52.4018 309.442 52.3218 309.46 52.2418 309.46Z" fill="#E06A43"/>
<path d="M49.58 309.036C49.427 309.036 49.275 308.966 49.177 308.833C48.517 307.94 48.437 306.687 48.978 305.718C49.112 305.477 49.416 305.39 49.658 305.525C49.899 305.66 49.986 305.964 49.851 306.205C49.503 306.829 49.557 307.666 49.981 308.24C50.145 308.462 50.098 308.775 49.876 308.939C49.787 309.003 49.683 309.036 49.58 309.036Z" fill="#E06A43"/>
<path d="M62.7911 307.602C62.7881 307.602 62.7841 307.602 62.7811 307.602C62.5051 307.596 62.2861 307.368 62.2911 307.091C62.2931 307.011 62.4581 298.981 62.4531 297.068C62.4491 295.205 62.1881 291.684 62.0391 290.697C61.8981 289.759 61.0961 287.43 61.0881 287.407C60.9981 287.146 61.1361 286.861 61.3981 286.771C61.6571 286.682 61.943 286.82 62.034 287.081C62.068 287.18 62.8741 289.52 63.0291 290.549C63.1851 291.587 63.4491 295.128 63.4541 297.066C63.4591 298.99 63.2931 307.032 63.2921 307.113C63.2851 307.385 63.0621 307.602 62.7911 307.602Z" fill="#E06A43"/>
</svg>
