<svg width="102" height="318" viewBox="0 0 102 318" fill="none" xmlns="http://www.w3.org/2000/svg">
<path d="M67.1635 19.2024C67.1635 29.2838 59.7898 37.4568 50.694 37.4568C41.5983 37.4568 34.2246 29.2838 34.2246 19.2024C34.2246 9.121 41.064 3.56799 50.1598 3.56799C59.2555 3.56799 67.1635 9.121 67.1635 19.2024Z" fill="url(#paint0_linear_3334_36149)"/>
<path d="M10.3303 312.605C10.3303 312.605 8.34463 313.89 8.02502 314.34C7.70541 314.79 7.34524 319.135 14.3385 317.269C14.3385 317.269 17.9257 317.931 22.578 315.683C27.2302 313.435 35.2073 316.447 38.4619 313.74C41.7164 311.035 37.9598 306.896 36.9568 304.117C36.5657 303.034 36.1614 293.178 36.1614 293.178L26.0806 295.245C26.0806 295.245 26.356 303.313 25.1551 304.299C23.9542 305.286 16.1727 309.51 15.2115 309.924C14.2514 310.34 12.5675 311.319 10.3303 312.605Z" fill="url(#paint1_linear_3334_36149)"/>
<path d="M91.6569 312.605C91.6569 312.605 93.6425 313.89 93.9621 314.34C94.2817 314.79 94.6419 319.135 87.6487 317.269C87.6487 317.269 84.0614 317.931 79.4092 315.683C74.757 313.435 66.7798 316.447 63.5253 313.74C60.2708 311.035 64.0274 306.896 65.0303 304.117C65.4215 303.034 65.8246 293.178 65.8246 293.178L75.9054 295.245C75.9054 295.245 75.6299 303.313 76.8308 304.299C78.0317 305.286 85.8133 309.51 86.7745 309.924C87.7357 310.34 89.4196 311.319 91.6569 312.605Z" fill="url(#paint2_linear_3334_36149)"/>
<path d="M3.50686 100.373C3.50686 100.373 -2.15189 133.637 0.907057 154.186C0.907057 154.186 -1.26105 176.165 6.63974 184.405C6.63974 184.405 8.55026 184.405 8.16864 180.375C8.16864 180.375 11.2264 187.628 13.1369 184.405C15.0474 181.181 4.30231 172.059 7.02137 168.288C10.4596 163.518 10.8436 179.57 12.7541 174.331C14.6646 169.093 7.02137 152.976 7.02137 152.976C7.02137 152.976 21.1534 109.838 16.5667 97.7504L3.50686 100.373Z" fill="url(#paint3_linear_3334_36149)"/>
<path d="M98.2665 100.373C98.2665 100.373 103.924 133.637 100.866 154.186C100.866 154.186 103.034 176.165 95.1336 184.405C95.1336 184.405 93.2231 184.405 93.6047 180.375C93.6047 180.375 90.5469 187.628 88.6353 184.405C86.7247 181.181 97.4698 172.059 94.7508 168.287C91.3126 163.518 90.9286 179.569 89.0181 174.331C87.1076 169.093 94.7508 152.976 94.7508 152.976C94.7508 152.976 80.899 109.397 85.4857 97.309L98.2665 100.373Z" fill="url(#paint4_linear_3334_36149)"/>
<path d="M78.2578 212.88C82.396 176.877 78.6692 142.047 78.6692 142.047H23.1073C23.1073 142.047 19.3805 176.877 23.5187 212.88C23.5187 212.88 19.4604 264.157 25.7285 298.116C25.7285 298.116 33.5602 301.831 36.3019 297.29C36.3019 297.29 41.9725 254.478 42.9672 219.429C43.0757 215.587 43.3059 211.756 44.7226 208.215C47.004 202.513 50.4267 193.218 52.3778 184.454C53.6824 193.918 56.2989 203.625 57.9328 209.136C58.8367 212.189 58.8582 215.381 58.8797 218.578C59.1265 255.607 65.477 297.29 65.477 297.29C68.2187 301.831 76.0503 298.116 76.0503 298.116C81.6375 270.372 78.2578 212.88 78.2578 212.88Z" fill="url(#paint5_linear_3334_36149)"/>
<path d="M79.074 59.6273C74.132 54.3094 60.6094 50.9125 60.6094 50.9125L50.8875 52.142L42.2271 50.8547C42.2271 50.8547 25.6026 55.6446 21.5681 60.9864C21.0935 61.6149 11.7473 70.0142 3.50781 100.373L17.5086 105.292C17.5086 105.292 20.9206 95.3089 25.6098 86.9813C25.6098 86.9813 26.218 130.568 23.1066 142.047C23.1066 142.047 23.9628 142.469 25.4786 143.085C39.1669 148.638 62.6082 148.638 76.2965 143.085C77.8134 142.47 78.6685 142.047 78.6685 142.047C75.5571 130.568 76.1653 86.9813 76.1653 86.9813C80.2308 93.6632 84.2664 105.292 84.2664 105.292L98.2672 100.373C90.8709 68.4729 79.9231 60.5401 79.074 59.6273Z" fill="url(#paint6_linear_3334_36149)"/>
<path d="M3.50781 100.373L17.5086 105.292C17.5086 105.292 17.9487 104.007 18.7262 101.98L4.48691 96.8566C4.16253 97.9931 3.83696 99.1598 3.50781 100.373Z" fill="url(#paint7_linear_3334_36149)"/>
<path d="M98.2664 100.373C97.9921 99.1886 97.7166 98.0496 97.4423 96.9382L83.0957 102.099C83.8268 104.028 84.2668 105.292 84.2668 105.292L98.2664 100.373Z" fill="url(#paint8_linear_3334_36149)"/>
<path d="M37.0517 54.586C38.7583 59.3369 47.7992 60.6054 52.8724 60.6054C56.2033 60.6054 64.1601 60.1139 66.1207 55.5591C66.4343 54.8324 66.6395 53.8744 66.457 52.7178C63.1619 51.5549 60.6051 50.9125 60.6051 50.9125L50.8832 52.142L42.2228 50.8547C42.2228 50.8547 39.9044 51.5235 36.7894 52.6386C36.7322 53.3841 36.8562 54.0416 37.0517 54.586Z" fill="url(#paint9_linear_3334_36149)"/>
<path d="M41.8967 50.8988C43.6319 49.282 45.9133 46.4483 46.6074 42.3021H58.6631C58.6631 42.3021 57.975 46.7488 61.6624 51.1942C71.0587 62.5278 31.6644 60.4308 41.8967 50.8988Z" fill="url(#paint10_linear_3334_36149)"/>
<path opacity="0.65" d="M58.6642 42.3032H46.6086C46.2913 44.2003 45.6342 45.8095 44.8555 47.1673C46.4237 48.4169 48.2781 49.5019 50.4868 50.3392C51.5661 50.7478 52.7574 50.7289 53.8176 50.2675C55.1724 49.6791 57.139 48.554 59.1234 46.5198C58.3923 44.0859 58.6642 42.3032 58.6642 42.3032Z" fill="url(#paint11_linear_3334_36149)"/>
<path d="M67.5704 20.8758C66.6927 19.4414 65.6826 20.984 65.3403 20.9689C64.5401 18.5375 61.8294 7.52951 49.9824 8.13925C41.2527 8.58806 37.1563 18.506 37.1563 18.506C37.1563 18.506 37.1587 20.344 37.0382 21.8866C36.5254 21.1977 35.582 19.9116 34.4992 20.8771C32.3144 22.8257 34.2607 30.9673 37.9338 32.8028C39.5068 38.2967 43.0106 43.9251 50.4856 46.7563C51.5649 47.1649 52.7563 47.146 53.8165 46.6859C56.6739 45.4451 62.2563 41.8621 64.979 32.2509C68.0928 29.7076 68.9979 23.2092 67.5704 20.8758Z" fill="url(#paint12_linear_3334_36149)"/>
<path opacity="0.6" d="M49.8115 157.1C49.8115 157.1 45.2571 178.549 49.1162 196.137C50.341 192.38 51.505 188.365 52.3755 184.454C52.3755 184.454 47.7603 173.527 49.8115 157.1Z" fill="white"/>
<path opacity="0.55" d="M25.0536 124.395C24.9677 126.096 24.8687 127.753 24.7578 129.341C35.6555 133.566 66.1174 133.568 77.0151 129.341C76.903 127.753 76.8053 126.096 76.7194 124.395C65.6774 128.472 36.0956 128.472 25.0536 124.395Z" fill="white"/>
<path opacity="0.55" d="M25.5058 111.127C25.4712 112.814 25.4282 114.523 25.377 116.23C36.865 120.049 64.9084 120.049 76.3964 116.23C76.3451 114.523 76.3034 112.814 76.2676 111.127C64.7462 114.891 37.0296 114.891 25.5058 111.127Z" fill="white"/>
<path d="M53.1765 5.06527C42.4028 4.13621 34.5306 9.97585 37.4274 27.1968L39.5359 17.563C39.865 16.0619 41.3808 15.2133 42.7379 15.7853C46.1797 17.2361 52.6756 18.9295 59.348 15.1328C60.6777 14.376 62.3319 15.1467 62.7421 16.6804C63.4028 19.1508 64.2316 22.769 64.6001 26.5129L65.8106 19.7467C65.8106 19.7467 63.9502 5.99559 53.1765 5.06527Z" fill="url(#paint13_linear_3334_36149)"/>
<path d="M37.8121 8.9977C37.8121 8.9977 35.5999 2.33334 38.9188 0C38.9188 0 47.2954 5.33173 54.4079 2.66523C61.5204 -5.99474e-06 65.7874 9.66275 62.942 11.8289C61.4417 12.9717 41.6057 15.6621 37.8121 8.9977Z" fill="url(#paint14_linear_3334_36149)"/>
<defs>
<linearGradient id="paint0_linear_3334_36149" x1="49.0073" y1="-22.1322" x2="50.9692" y2="21.1389" gradientUnits="userSpaceOnUse">
<stop stop-color="#0E052B"/>
<stop offset="1" stop-color="#27078A"/>
</linearGradient>
<linearGradient id="paint1_linear_3334_36149" x1="23.8243" y1="286.92" x2="23.8243" y2="319.168" gradientUnits="userSpaceOnUse">
<stop stop-color="#FFEFB4"/>
<stop offset="1" stop-color="#FF9F33"/>
</linearGradient>
<linearGradient id="paint2_linear_3334_36149" x1="78.1623" y1="286.92" x2="78.1623" y2="319.168" gradientUnits="userSpaceOnUse">
<stop stop-color="#FFEFB4"/>
<stop offset="1" stop-color="#FF9F33"/>
</linearGradient>
<linearGradient id="paint3_linear_3334_36149" x1="9.67497" y1="52.3701" x2="7.96867" y2="166.477" gradientUnits="userSpaceOnUse">
<stop stop-color="#FFEFB4"/>
<stop offset="1" stop-color="#FF9F33"/>
</linearGradient>
<linearGradient id="paint4_linear_3334_36149" x1="94.097" y1="53.0425" x2="92.3832" y2="167.656" gradientUnits="userSpaceOnUse">
<stop stop-color="#FFEFB4"/>
<stop offset="1" stop-color="#FF9F33"/>
</linearGradient>
<linearGradient id="paint5_linear_3334_36149" x1="50.8884" y1="93.5986" x2="50.8884" y2="264.546" gradientUnits="userSpaceOnUse">
<stop stop-color="#0E052B"/>
<stop offset="1" stop-color="#27078A"/>
</linearGradient>
<linearGradient id="paint6_linear_3334_36149" x1="57.3007" y1="176.99" x2="40.7075" y2="-1.39838" gradientUnits="userSpaceOnUse">
<stop stop-color="#FF7B00"/>
<stop offset="1" stop-color="#F50000"/>
</linearGradient>
<linearGradient id="paint7_linear_3334_36149" x1="9.6293" y1="107.559" x2="13.1726" y2="93.8759" gradientUnits="userSpaceOnUse">
<stop stop-color="#0E052B"/>
<stop offset="1" stop-color="#27078A"/>
</linearGradient>
<linearGradient id="paint8_linear_3334_36149" x1="92.2244" y1="107.858" x2="88.681" y2="94.1756" gradientUnits="userSpaceOnUse">
<stop stop-color="#0E052B"/>
<stop offset="1" stop-color="#27078A"/>
</linearGradient>
<linearGradient id="paint9_linear_3334_36149" x1="39.8781" y1="24.6814" x2="57.2454" y2="62.8087" gradientUnits="userSpaceOnUse">
<stop stop-color="#0E052B"/>
<stop offset="1" stop-color="#27078A"/>
</linearGradient>
<linearGradient id="paint10_linear_3334_36149" x1="43.0207" y1="32.7159" x2="55.8181" y2="60.8107" gradientUnits="userSpaceOnUse">
<stop stop-color="#FFEFB4"/>
<stop offset="1" stop-color="#FF9F33"/>
</linearGradient>
<linearGradient id="paint11_linear_3334_36149" x1="42.1195" y1="-37.6391" x2="54.621" y2="58.4815" gradientUnits="userSpaceOnUse">
<stop stop-color="#FFEFB4"/>
<stop offset="1" stop-color="#FF9F33"/>
</linearGradient>
<linearGradient id="paint12_linear_3334_36149" x1="52.1982" y1="84.2736" x2="50.5457" y2="14.7814" gradientUnits="userSpaceOnUse">
<stop stop-color="#FFEFB4"/>
<stop offset="1" stop-color="#FF9F33"/>
</linearGradient>
<linearGradient id="paint13_linear_3334_36149" x1="51.4443" y1="-20.7335" x2="51.2806" y2="26.5796" gradientUnits="userSpaceOnUse">
<stop stop-color="#0E052B"/>
<stop offset="1" stop-color="#27078A"/>
</linearGradient>
<linearGradient id="paint14_linear_3334_36149" x1="50.5477" y1="-20.7368" x2="50.3841" y2="26.5767" gradientUnits="userSpaceOnUse">
<stop stop-color="#0E052B"/>
<stop offset="1" stop-color="#27078A"/>
</linearGradient>
</defs>
</svg>
