<svg width="102" height="318" viewBox="0 0 102 318" fill="none" xmlns="http://www.w3.org/2000/svg">
<path d="M67.1635 19.2024C67.1635 29.2838 59.7898 37.4568 50.694 37.4568C41.5983 37.4568 34.2246 29.2838 34.2246 19.2024C34.2246 9.121 41.064 3.56799 50.1598 3.56799C59.2555 3.56799 67.1635 9.121 67.1635 19.2024Z" fill="url(#paint0_linear_3334_36169)"/>
<path d="M10.3303 312.605C10.3303 312.605 8.34463 313.89 8.02502 314.34C7.70541 314.79 7.34526 319.135 14.3385 317.269C14.3385 317.269 17.9258 317.931 22.578 315.683C27.2302 313.435 35.2073 316.447 38.4619 313.74C41.7164 311.035 37.9598 306.896 36.9568 304.117C36.5657 303.034 36.1626 293.178 36.1626 293.178L26.0818 295.245C26.0818 295.245 26.3573 303.313 25.1563 304.299C23.9554 305.285 16.1739 309.51 15.2127 309.924C14.2514 310.34 12.5675 311.319 10.3303 312.605Z" fill="url(#paint1_linear_3334_36169)"/>
<path d="M91.6569 312.605C91.6569 312.605 93.6425 313.89 93.9622 314.34C94.2818 314.79 94.6419 319.135 87.6487 317.269C87.6487 317.269 84.0614 317.931 79.4092 315.683C74.757 313.435 66.7798 316.447 63.5253 313.74C60.2708 311.035 64.0274 306.896 65.0303 304.117C65.4215 303.034 65.8258 293.178 65.8258 293.178L75.9066 295.245C75.9066 295.245 75.6311 303.313 76.8321 304.299C78.033 305.285 85.8145 309.51 86.7757 309.924C87.7357 310.34 89.4197 311.319 91.6569 312.605Z" fill="url(#paint2_linear_3334_36169)"/>
<path d="M3.50697 100.373C3.50697 100.373 -2.15059 133.637 0.905974 154.185C0.905974 154.185 -1.26092 176.165 6.63868 184.404C6.63868 184.404 8.5492 184.404 8.16757 180.375C8.16757 180.375 11.2253 187.628 13.1358 184.404C15.0475 181.181 4.30125 172.059 7.02031 168.287C10.4585 163.517 10.8425 179.569 12.7542 174.331C14.6647 169.093 7.02031 152.976 7.02031 152.976C7.02031 152.976 20.872 109.397 16.2854 97.3089L3.50697 100.373Z" fill="url(#paint3_linear_3334_36169)"/>
<path d="M98.266 100.373C98.266 100.373 103.925 133.637 100.867 154.185C100.867 154.185 103.035 176.165 95.1343 184.404C95.1343 184.404 93.2227 184.404 93.6055 180.375C93.6055 180.375 90.5477 187.628 88.6372 184.404C86.7255 181.181 97.4718 172.059 94.7527 168.287C91.3145 163.517 90.9305 179.569 89.02 174.331C87.1095 169.093 94.7527 152.976 94.7527 152.976C94.7527 152.976 80.901 109.397 85.4876 97.3089L98.266 100.373Z" fill="url(#paint4_linear_3334_36169)"/>
<path d="M78.2541 212.88C84.867 174.749 82.7895 142.047 82.7895 142.047H18.9785C16.5969 147.648 18.1735 181.301 23.5139 212.88C23.5139 212.88 17.0143 263.155 25.7237 298.116C25.7237 298.116 33.5553 301.831 36.297 297.29C42.0321 253.991 41.9689 254.43 42.9623 219.429C43.0708 215.587 43.301 211.756 44.7178 208.215C46.9992 202.513 50.4219 193.218 52.3729 184.454C53.6776 193.918 56.2941 203.625 57.9279 209.136C58.8319 212.188 58.8534 215.381 58.8748 218.578C59.1217 255.616 59.0942 255.424 65.4721 297.29C68.2138 301.831 76.0455 298.116 76.0455 298.116C83.3631 267.736 78.2541 212.88 78.2541 212.88Z" fill="url(#paint5_linear_3334_36169)"/>
<path d="M79.074 59.6272C74.132 54.3093 60.6094 50.9123 60.6094 50.9123L50.8875 52.1419L42.2271 50.8545C42.2271 50.8545 25.6014 55.6444 21.5681 60.9862C21.0935 61.6148 11.7473 70.0141 3.50781 100.373L17.5086 105.292C17.5086 105.292 23.2449 98.6855 25.6098 86.9811C25.6098 86.9811 22.0929 130.568 18.9826 142.047C18.9826 142.047 19.8389 142.468 21.3547 143.084C35.043 148.637 66.7321 148.637 80.4204 143.084C81.9374 142.47 82.7924 142.047 82.7924 142.047C79.681 130.568 76.1653 86.9811 76.1653 86.9811C77.8933 97.2297 84.2665 105.292 84.2665 105.292L98.2672 100.373C90.8709 68.4728 79.9231 60.5399 79.074 59.6272Z" fill="url(#paint6_linear_3334_36169)"/>
<path d="M37.053 54.5858C38.7595 59.3367 47.8004 60.6053 52.8736 60.6053C56.2033 60.6053 64.1613 60.1137 66.1231 55.5589C66.4368 54.8322 66.6419 53.8743 66.4594 52.7177C63.1643 51.5548 60.6075 50.9123 60.6075 50.9123L50.8856 52.1419L42.2251 50.8545C42.2251 50.8545 39.9068 51.5233 36.7918 52.6384C36.7334 53.384 36.8586 54.0415 37.053 54.5858Z" fill="url(#paint7_linear_3334_36169)"/>
<path d="M41.8967 50.8986C43.6319 49.2819 45.9133 46.4482 46.6073 42.302H58.6631C58.6631 42.302 57.975 46.7486 61.6624 51.1941C71.0587 62.5276 31.6644 60.4306 41.8967 50.8986Z" fill="url(#paint8_linear_3334_36169)"/>
<path opacity="0.65" d="M58.6643 42.3032H46.6086C46.2913 44.2003 45.6342 45.8095 44.8555 47.1673C46.4237 48.4169 48.2782 49.5019 50.4868 50.3392C51.5661 50.7478 52.7575 50.7289 53.8177 50.2675C55.1724 49.6791 57.139 48.554 59.1234 46.5198C58.3924 44.0859 58.6643 42.3032 58.6643 42.3032Z" fill="url(#paint9_linear_3334_36169)"/>
<path d="M67.5704 20.8757C66.6927 19.4412 65.6826 20.9838 65.3403 20.9687C64.5401 18.5373 61.8294 7.52936 49.9824 8.13909C41.2527 8.58791 37.1562 18.5059 37.1562 18.5059C37.1562 18.5059 37.1586 20.3439 37.0382 21.8865C36.5254 21.1975 35.582 19.9114 34.4992 20.8769C32.3144 22.8256 34.2607 30.9671 37.9338 32.8026C39.5068 38.2965 43.0106 43.925 50.4856 46.7562C51.5649 47.1648 52.7563 47.1459 53.8165 46.6858C56.6739 45.4449 62.2563 41.8619 64.979 32.2507C68.0928 29.7074 68.9979 23.209 67.5704 20.8757Z" fill="url(#paint10_linear_3334_36169)"/>
<path opacity="0.6" d="M49.8115 157.1C49.8115 157.1 45.2571 178.549 49.1163 196.137C50.341 192.38 51.505 188.365 52.3756 184.454C52.3756 184.454 47.7603 173.527 49.8115 157.1Z" fill="white"/>
<path d="M3.50781 100.373L17.5086 105.292C17.5086 105.292 18.4758 104.167 19.7745 102.055L4.49767 96.8601C4.16613 98.0003 3.83577 99.1633 3.50781 100.373Z" fill="url(#paint11_linear_3334_36169)"/>
<path d="M98.2659 100.373C97.9928 99.1934 97.7126 98.0569 97.4299 96.9418L82.1328 102.16C83.3564 104.142 84.2651 105.292 84.2651 105.292L98.2659 100.373Z" fill="url(#paint12_linear_3334_36169)"/>
<path opacity="0.55" d="M21.8371 124.696C21.6296 126.361 21.4185 127.985 21.2051 129.538C32.6049 133.496 69.1751 133.496 80.5749 129.538C80.3614 127.985 80.1503 126.361 79.9428 124.696C68.202 128.37 33.5768 128.37 21.8371 124.696Z" fill="white"/>
<path opacity="0.55" d="M23.3094 111.663C23.1364 113.321 22.9563 114.997 22.7715 116.67C35.0979 119.898 66.6725 119.898 78.9989 116.67C78.8141 114.997 78.634 113.321 78.4611 111.663C65.9975 114.709 35.7729 114.709 23.3094 111.663Z" fill="white"/>
<path d="M53.1784 5.06524C42.4047 4.13618 34.5326 9.97582 37.4293 27.1968L39.5378 17.563C39.8669 16.0619 41.3827 15.2133 42.7398 15.7853C46.1816 17.2361 52.6775 18.9295 59.35 15.1328C60.6797 14.376 62.3338 15.1466 62.7441 16.6804C63.4047 19.1508 64.2336 22.769 64.6021 26.5129L65.8125 19.7467C65.8125 19.7467 63.9521 5.99556 53.1784 5.06524Z" fill="url(#paint13_linear_3334_36169)"/>
<path d="M37.8141 8.9977C37.8141 8.9977 35.6018 2.33334 38.9207 0C38.9207 0 47.2974 5.33173 54.4099 2.66523C61.5224 -5.99474e-06 65.7894 9.66275 62.9439 11.8289C61.4437 12.9717 41.6076 15.6621 37.8141 8.9977Z" fill="url(#paint14_linear_3334_36169)"/>
<defs>
<linearGradient id="paint0_linear_3334_36169" x1="49.0074" y1="-22.1322" x2="50.9694" y2="21.1389" gradientUnits="userSpaceOnUse">
<stop stop-color="#0E052B"/>
<stop offset="1" stop-color="#27078A"/>
</linearGradient>
<linearGradient id="paint1_linear_3334_36169" x1="23.8245" y1="286.92" x2="23.8245" y2="319.168" gradientUnits="userSpaceOnUse">
<stop stop-color="#FFEFB4"/>
<stop offset="1" stop-color="#FF9F33"/>
</linearGradient>
<linearGradient id="paint2_linear_3334_36169" x1="78.1625" y1="286.92" x2="78.1625" y2="319.168" gradientUnits="userSpaceOnUse">
<stop stop-color="#FFEFB4"/>
<stop offset="1" stop-color="#FF9F33"/>
</linearGradient>
<linearGradient id="paint3_linear_3334_36169" x1="9.5495" y1="51.7049" x2="7.83459" y2="166.382" gradientUnits="userSpaceOnUse">
<stop stop-color="#FFEFB4"/>
<stop offset="1" stop-color="#FF9F33"/>
</linearGradient>
<linearGradient id="paint4_linear_3334_36169" x1="94.0966" y1="53.0423" x2="92.3827" y2="167.656" gradientUnits="userSpaceOnUse">
<stop stop-color="#FFEFB4"/>
<stop offset="1" stop-color="#FF9F33"/>
</linearGradient>
<linearGradient id="paint5_linear_3334_36169" x1="50.4995" y1="93.5986" x2="50.4995" y2="264.546" gradientUnits="userSpaceOnUse">
<stop stop-color="#0E052B"/>
<stop offset="1" stop-color="#27078A"/>
</linearGradient>
<linearGradient id="paint6_linear_3334_36169" x1="57.3206" y1="177.228" x2="40.6962" y2="-1.49631" gradientUnits="userSpaceOnUse">
<stop stop-color="#FF7B00"/>
<stop offset="1" stop-color="#F50000"/>
</linearGradient>
<linearGradient id="paint7_linear_3334_36169" x1="39.8792" y1="24.6812" x2="57.2467" y2="62.8085" gradientUnits="userSpaceOnUse">
<stop stop-color="#0E052B"/>
<stop offset="1" stop-color="#27078A"/>
</linearGradient>
<linearGradient id="paint8_linear_3334_36169" x1="43.0207" y1="32.7158" x2="55.8181" y2="60.8105" gradientUnits="userSpaceOnUse">
<stop stop-color="#FFEFB4"/>
<stop offset="1" stop-color="#FF9F33"/>
</linearGradient>
<linearGradient id="paint9_linear_3334_36169" x1="42.1195" y1="-37.6392" x2="54.6211" y2="58.4816" gradientUnits="userSpaceOnUse">
<stop stop-color="#FFEFB4"/>
<stop offset="1" stop-color="#FF9F33"/>
</linearGradient>
<linearGradient id="paint10_linear_3334_36169" x1="52.1981" y1="84.2735" x2="50.5457" y2="14.7812" gradientUnits="userSpaceOnUse">
<stop stop-color="#FFEFB4"/>
<stop offset="1" stop-color="#FF9F33"/>
</linearGradient>
<linearGradient id="paint11_linear_3334_36169" x1="10.1322" y1="107.689" x2="13.6756" y2="94.0058" gradientUnits="userSpaceOnUse">
<stop stop-color="#0E052B"/>
<stop offset="1" stop-color="#27078A"/>
</linearGradient>
<linearGradient id="paint12_linear_3334_36169" x1="91.7639" y1="107.977" x2="88.2204" y2="94.2942" gradientUnits="userSpaceOnUse">
<stop stop-color="#0E052B"/>
<stop offset="1" stop-color="#27078A"/>
</linearGradient>
<linearGradient id="paint13_linear_3334_36169" x1="51.4462" y1="-20.7335" x2="51.2827" y2="26.5796" gradientUnits="userSpaceOnUse">
<stop stop-color="#0E052B"/>
<stop offset="1" stop-color="#27078A"/>
</linearGradient>
<linearGradient id="paint14_linear_3334_36169" x1="50.5498" y1="-20.7368" x2="50.3861" y2="26.5767" gradientUnits="userSpaceOnUse">
<stop stop-color="#0E052B"/>
<stop offset="1" stop-color="#27078A"/>
</linearGradient>
</defs>
</svg>
