<svg width="102" height="318" viewBox="0 0 102 318" fill="none" xmlns="http://www.w3.org/2000/svg">
<path d="M67.1654 19.2024C67.1654 29.2838 59.7917 37.4568 50.696 37.4568C41.6002 37.4568 34.2266 29.2838 34.2266 19.2024C34.2266 9.12099 41.066 3.56798 50.1617 3.56798C59.2575 3.56798 67.1654 9.12099 67.1654 19.2024Z" fill="url(#paint0_linear_3334_36189)"/>
<path d="M10.3283 312.605C10.3283 312.605 8.34267 313.89 8.02306 314.34C7.70345 314.79 7.3433 319.135 14.3365 317.269C14.3365 317.269 17.9238 317.931 22.576 315.683C27.2283 313.435 35.2054 316.447 38.4599 313.74C41.7144 311.035 37.9578 306.896 36.9548 304.117C36.5637 303.034 36.1606 293.178 36.1606 293.178L26.0798 295.245C26.0798 295.245 26.3553 303.313 25.1544 304.299C23.9534 305.286 16.1719 309.51 15.2107 309.924C14.2495 310.34 12.5667 311.319 10.3283 312.605Z" fill="url(#paint1_linear_3334_36189)"/>
<path d="M91.6569 312.605C91.6569 312.605 93.6425 313.89 93.9621 314.34C94.2817 314.79 94.6419 319.135 87.6487 317.269C87.6487 317.269 84.0614 317.931 79.4091 315.683C74.7569 313.435 66.7798 316.447 63.5253 313.74C60.2708 311.035 64.0274 306.896 65.0303 304.117C65.4215 303.034 65.8246 293.178 65.8246 293.178L75.9054 295.245C75.9054 295.245 75.6299 303.313 76.8308 304.299C78.0317 305.286 85.8133 309.51 86.7745 309.924C87.7369 310.34 89.4196 311.319 91.6569 312.605Z" fill="url(#paint2_linear_3334_36189)"/>
<path d="M3.50745 100.373C3.50745 100.373 -2.15131 133.637 0.906446 154.185C0.906446 154.185 -1.26164 176.165 6.63915 184.405C6.63915 184.405 8.55086 184.405 8.16804 180.375C8.16804 180.375 11.2258 187.628 13.1363 184.405C15.0468 181.181 4.30172 172.059 7.02078 168.287C10.459 163.518 10.843 179.569 12.7535 174.331C14.6652 169.093 7.02078 152.976 7.02078 152.976C7.02078 152.976 20.8725 109.397 16.2859 97.309L3.50745 100.373Z" fill="url(#paint3_linear_3334_36189)"/>
<path d="M98.2684 100.373C98.2684 100.373 103.926 133.637 100.868 154.185C100.868 154.185 103.036 176.165 95.1355 184.405C95.1355 184.405 93.2251 184.405 93.6067 180.375C93.6067 180.375 90.5489 187.628 88.6372 184.405C86.7267 181.181 97.4718 172.059 94.7527 168.287C91.3146 163.518 90.9305 179.569 89.02 174.331C87.1095 169.093 94.7527 152.976 94.7527 152.976C94.7527 152.976 80.901 109.397 85.4876 97.309L98.2684 100.373Z" fill="url(#paint4_linear_3334_36189)"/>
<path d="M81.349 212.88C87.9618 174.749 86.9159 142.047 86.9159 142.047H15.7218C13.3414 147.648 15.0825 181.301 20.4229 212.88C20.4229 212.88 17.0169 263.155 25.7263 298.116C25.7263 298.116 33.5579 301.831 36.2996 297.29C42.0347 253.991 45.065 254.43 46.0572 219.429C46.1658 215.587 46.3959 211.756 47.8127 208.215C50.0941 202.513 50.4244 193.218 52.3743 184.454C53.679 193.918 53.2031 203.625 54.8358 209.136C55.7397 212.189 55.7612 215.381 55.7827 218.578C56.0295 255.616 59.0944 255.424 65.4735 297.29C68.2152 301.831 76.0469 298.116 76.0469 298.116C83.3633 267.736 81.349 212.88 81.349 212.88Z" fill="url(#paint5_linear_3334_36189)"/>
<path d="M79.074 59.6273C74.132 54.3094 60.6094 50.9125 60.6094 50.9125L50.8875 52.142L42.2271 50.8546C42.2271 50.8546 25.6014 55.6445 21.5681 60.9863C21.0935 61.6149 6.70629 66.176 3.50781 100.373L17.5086 105.292C17.5086 105.292 23.2449 98.6857 25.6098 86.9812C25.6098 86.9812 18.8348 130.568 15.7233 142.047C15.7233 142.047 16.5796 142.469 18.0954 143.085C31.7837 148.638 70.856 148.638 84.5443 143.085C86.0601 142.47 86.9163 142.047 86.9163 142.047C83.8049 130.568 76.1653 86.9812 76.1653 86.9812C77.8933 97.2298 84.2665 105.292 84.2665 105.292L98.2672 100.373C95.3562 68.9041 79.9231 60.54 79.074 59.6273Z" fill="url(#paint6_linear_3334_36189)"/>
<path d="M37.0535 54.586C38.76 59.3369 47.8009 60.6054 52.8741 60.6054C56.2038 60.6054 64.1618 60.1138 66.1224 55.559C66.4361 54.8324 66.6412 53.8744 66.4587 52.7178C63.1637 51.5549 60.608 50.9125 60.608 50.9125L50.8861 52.142L42.2257 50.8546C42.2257 50.8546 39.9073 51.5235 36.7923 52.6386C36.7327 53.3841 36.8579 54.0416 37.0535 54.586Z" fill="url(#paint7_linear_3334_36189)"/>
<path d="M41.8967 50.8986C43.6319 49.2819 45.9133 46.4482 46.6073 42.302H58.6631C58.6631 42.302 57.975 46.7486 61.6624 51.1941C71.0587 62.5276 31.6644 60.4306 41.8967 50.8986Z" fill="url(#paint8_linear_3334_36189)"/>
<path opacity="0.65" d="M58.6643 42.3032H46.6086C46.2913 44.2003 45.6342 45.8095 44.8555 47.1673C46.4237 48.4169 48.2782 49.5019 50.4868 50.3392C51.5661 50.7478 52.7575 50.7289 53.8177 50.2675C55.1724 49.6791 57.139 48.554 59.1234 46.5198C58.3924 44.0859 58.6643 42.3032 58.6643 42.3032Z" fill="url(#paint9_linear_3334_36189)"/>
<path d="M67.5692 20.8757C66.6915 19.4412 65.6802 20.9838 65.3391 20.9687C64.5389 18.5373 61.8282 7.52936 49.9812 8.13909C41.2515 8.58791 37.1562 18.5059 37.1562 18.5059C37.1562 18.5059 37.1586 20.3439 37.0382 21.8865C36.5242 21.1975 35.582 19.9114 34.4992 20.8769C32.3144 22.8256 34.2607 30.9671 37.9338 32.8026C39.5068 38.2965 43.0106 43.925 50.4856 46.7562C51.5649 47.1648 52.7563 47.1459 53.8165 46.6858C56.6739 45.4449 62.2563 41.8619 64.9789 32.2507C68.0915 29.7074 68.9955 23.209 67.5692 20.8757Z" fill="url(#paint10_linear_3334_36189)"/>
<path d="M3.50781 100.373L17.5074 105.292C17.5074 105.292 18.4746 104.167 19.7733 102.055L3.88824 96.8804C3.74991 98.0106 3.61991 99.1685 3.50781 100.373Z" fill="url(#paint11_linear_3334_36189)"/>
<path d="M82.1328 102.159C82.1912 102.255 82.2461 102.339 82.3033 102.43C82.4226 102.619 82.5395 102.806 82.6516 102.978C82.7255 103.092 82.7959 103.199 82.8662 103.306C82.9569 103.443 83.0439 103.575 83.1274 103.698C83.1882 103.789 83.2514 103.883 83.3087 103.966C83.4041 104.104 83.4911 104.229 83.5734 104.347C83.6474 104.452 83.7141 104.547 83.7785 104.635C83.8382 104.718 83.9002 104.803 83.9491 104.87C83.9872 104.921 84.0206 104.967 84.0528 105.009C84.0934 105.063 84.1339 105.119 84.1626 105.155C84.1793 105.178 84.2007 105.206 84.2138 105.222C84.2377 105.253 84.2651 105.289 84.2651 105.289L98.2659 100.369C98.1574 99.1924 98.025 98.0572 97.8831 96.9445L82.1328 102.159Z" fill="url(#paint12_linear_3334_36189)"/>
<path opacity="0.55" d="M84.1478 129.708C83.8353 128.179 83.5157 126.582 83.1913 124.941C70.6335 128.303 31.5589 128.285 19.2647 124.891C18.9653 126.536 18.6672 128.139 18.375 129.673C30.2065 133.436 72.129 133.448 84.1478 129.708Z" fill="white"/>
<path opacity="0.55" d="M81.6559 117.01C81.3411 115.357 81.0274 113.699 80.7197 112.057C67.2771 114.599 34.6018 114.575 21.5324 111.984C21.2521 113.629 20.9671 115.291 20.6797 116.948C33.6143 119.784 68.3897 119.804 81.6559 117.01Z" fill="white"/>
<path opacity="0.6" d="M49.8087 157.1C49.8087 157.1 43.9174 180.007 49.8123 200.077C50.6018 195.287 51.1897 189.774 52.3739 184.452C52.3739 184.452 47.7587 173.527 49.8087 157.1Z" fill="white"/>
<path d="M53.1765 5.06525C42.4028 4.13619 34.5306 9.97583 37.4274 27.1968L39.5358 17.563C39.865 16.0619 41.3807 15.2133 42.7379 15.7853C46.1796 17.2361 52.6756 18.9295 59.348 15.1328C60.6777 14.376 62.3319 15.1467 62.7421 16.6804C63.4028 19.1508 64.2316 22.769 64.6001 26.5129L65.8106 19.7467C65.8106 19.7467 63.949 5.99557 53.1765 5.06525Z" fill="url(#paint13_linear_3334_36189)"/>
<path d="M37.8121 8.9977C37.8121 8.9977 35.5999 2.33334 38.9188 0C38.9188 0 47.2954 5.33173 54.4079 2.66523C61.5204 -5.99474e-06 65.7875 9.66275 62.942 11.8289C61.4417 12.9717 41.6045 15.6621 37.8121 8.9977Z" fill="url(#paint14_linear_3334_36189)"/>
<defs>
<linearGradient id="paint0_linear_3334_36189" x1="49.0087" y1="-22.1322" x2="50.9707" y2="21.1389" gradientUnits="userSpaceOnUse">
<stop stop-color="#0E052B"/>
<stop offset="1" stop-color="#27078A"/>
</linearGradient>
<linearGradient id="paint1_linear_3334_36189" x1="23.8231" y1="286.92" x2="23.8231" y2="319.168" gradientUnits="userSpaceOnUse">
<stop stop-color="#FFEFB4"/>
<stop offset="1" stop-color="#FF9F33"/>
</linearGradient>
<linearGradient id="paint2_linear_3334_36189" x1="78.1632" y1="286.92" x2="78.1632" y2="319.168" gradientUnits="userSpaceOnUse">
<stop stop-color="#FFEFB4"/>
<stop offset="1" stop-color="#FF9F33"/>
</linearGradient>
<linearGradient id="paint3_linear_3334_36189" x1="9.54949" y1="51.7051" x2="7.83458" y2="166.382" gradientUnits="userSpaceOnUse">
<stop stop-color="#FFEFB4"/>
<stop offset="1" stop-color="#FF9F33"/>
</linearGradient>
<linearGradient id="paint4_linear_3334_36189" x1="94.0985" y1="53.0424" x2="92.3846" y2="167.656" gradientUnits="userSpaceOnUse">
<stop stop-color="#FFEFB4"/>
<stop offset="1" stop-color="#FF9F33"/>
</linearGradient>
<linearGradient id="paint5_linear_3334_36189" x1="50.8263" y1="93.5986" x2="50.8263" y2="264.546" gradientUnits="userSpaceOnUse">
<stop stop-color="#0E052B"/>
<stop offset="1" stop-color="#27078A"/>
</linearGradient>
<linearGradient id="paint6_linear_3334_36189" x1="57.3449" y1="177.525" x2="40.6817" y2="-1.61738" gradientUnits="userSpaceOnUse">
<stop stop-color="#FF7B00"/>
<stop offset="1" stop-color="#F50000"/>
</linearGradient>
<linearGradient id="paint7_linear_3334_36189" x1="39.8793" y1="24.6814" x2="57.2466" y2="62.8087" gradientUnits="userSpaceOnUse">
<stop stop-color="#0E052B"/>
<stop offset="1" stop-color="#27078A"/>
</linearGradient>
<linearGradient id="paint8_linear_3334_36189" x1="43.0202" y1="32.7158" x2="55.8177" y2="60.8105" gradientUnits="userSpaceOnUse">
<stop stop-color="#FFEFB4"/>
<stop offset="1" stop-color="#FF9F33"/>
</linearGradient>
<linearGradient id="paint9_linear_3334_36189" x1="42.119" y1="-37.6392" x2="54.6205" y2="58.4816" gradientUnits="userSpaceOnUse">
<stop stop-color="#FFEFB4"/>
<stop offset="1" stop-color="#FF9F33"/>
</linearGradient>
<linearGradient id="paint10_linear_3334_36189" x1="52.1965" y1="84.2735" x2="50.5441" y2="14.7812" gradientUnits="userSpaceOnUse">
<stop stop-color="#FFEFB4"/>
<stop offset="1" stop-color="#FF9F33"/>
</linearGradient>
<linearGradient id="paint11_linear_3334_36189" x1="9.93888" y1="107.588" x2="13.4404" y2="94.0673" gradientUnits="userSpaceOnUse">
<stop stop-color="#0E052B"/>
<stop offset="1" stop-color="#27078A"/>
</linearGradient>
<linearGradient id="paint12_linear_3334_36189" x1="91.9499" y1="107.888" x2="88.4382" y2="94.3272" gradientUnits="userSpaceOnUse">
<stop stop-color="#0E052B"/>
<stop offset="1" stop-color="#27078A"/>
</linearGradient>
<linearGradient id="paint13_linear_3334_36189" x1="51.4438" y1="-20.7335" x2="51.2801" y2="26.5796" gradientUnits="userSpaceOnUse">
<stop stop-color="#0E052B"/>
<stop offset="1" stop-color="#27078A"/>
</linearGradient>
<linearGradient id="paint14_linear_3334_36189" x1="50.5472" y1="-20.7368" x2="50.3837" y2="26.5767" gradientUnits="userSpaceOnUse">
<stop stop-color="#0E052B"/>
<stop offset="1" stop-color="#27078A"/>
</linearGradient>
</defs>
</svg>
