<svg width="103" height="318" viewBox="0 0 103 318" fill="none" xmlns="http://www.w3.org/2000/svg">
<path d="M10.6545 312.605C10.6545 312.605 8.66884 313.89 8.34923 314.34C8.02963 314.79 7.66948 319.135 14.6627 317.269C14.6627 317.269 18.25 317.931 22.9022 315.683C27.5544 313.435 35.5315 316.447 38.786 313.74C42.0406 311.035 38.284 306.896 37.2811 304.117C36.8899 303.034 36.4855 293.178 36.4855 293.178L26.4048 295.245C26.4048 295.245 26.6803 303.313 25.4794 304.299C24.2784 305.284 16.4969 309.51 15.5357 309.924C14.5757 310.34 12.8929 311.319 10.6545 312.605Z" fill="url(#paint0_linear_3334_36209)"/>
<path d="M91.9831 312.605C91.9831 312.605 93.9687 313.89 94.2884 314.34C94.608 314.79 94.9681 319.135 87.9749 317.269C87.9749 317.269 84.3876 317.931 79.7354 315.683C75.0832 313.435 67.106 316.447 63.8515 313.74C60.5969 311.035 64.3536 306.896 65.3565 304.117C65.7477 303.034 66.1507 293.178 66.1507 293.178L76.2315 295.245C76.2315 295.245 75.9561 303.313 77.157 304.299C78.3579 305.284 86.1395 309.51 87.1007 309.924C88.0631 310.34 89.7458 311.319 91.9831 312.605Z" fill="url(#paint1_linear_3334_36209)"/>
<path d="M84.7665 212.88C95.4186 172.724 90.3335 142.047 90.3335 142.047H12.9534C10.5718 147.648 6.76152 177.166 17.6545 212.88C17.6545 212.88 14.9688 264.739 26.0502 298.116C26.0502 298.116 33.8818 301.831 36.6235 297.29C45.2578 261.695 48.4813 254.43 49.4747 219.429C49.5975 215.108 50.4586 194.524 52.6982 184.452C54.0232 194.065 52.9916 215.251 53.0131 218.576C53.26 255.614 59.3624 275.42 65.7963 297.289C68.538 301.83 76.3696 298.115 76.3696 298.115C86.9465 269.754 86.008 213.648 84.7665 212.88Z" fill="url(#paint2_linear_3334_36209)"/>
<path opacity="0.6" d="M50.1357 157.099C50.1357 157.099 43.753 182.438 50.3909 202.817C50.9013 196.226 51.649 189.18 52.7009 184.452C52.7009 184.452 48.0856 173.527 50.1357 157.099Z" fill="white"/>
<path d="M67.4916 19.2024C67.4916 29.2838 60.1179 37.4568 51.0222 37.4568C41.9264 37.4568 34.5527 29.2838 34.5527 19.2024C34.5527 9.121 41.3921 3.56799 50.4879 3.56799C59.5836 3.56799 67.4916 9.121 67.4916 19.2024Z" fill="url(#paint3_linear_3334_36209)"/>
<path d="M1.77022 100.373C1.77022 100.373 -1.82544 133.637 1.23231 154.186C1.23231 154.186 -0.935777 176.165 6.96501 184.405C6.96501 184.405 8.87676 184.405 8.49394 180.375C8.49394 180.375 11.5516 187.628 13.4621 184.405C15.3726 181.181 4.62758 172.059 7.34665 168.287C10.7848 163.518 11.1688 179.569 13.0794 174.331C14.991 169.093 7.34665 152.976 7.34665 152.976C7.34665 152.976 21.1984 109.397 16.6117 97.3091L1.77022 100.373Z" fill="url(#paint4_linear_3334_36209)"/>
<path d="M100.652 100.373C100.652 100.373 104.248 133.637 101.191 154.186C101.191 154.186 103.359 176.165 95.4586 184.405C95.4586 184.405 93.5469 184.405 93.9297 180.375C93.9297 180.375 90.8719 187.628 88.9614 184.405C87.0497 181.181 97.796 172.059 95.0769 168.287C91.6387 163.518 91.2547 179.569 89.3442 174.331C87.4337 169.093 95.0769 152.976 95.0769 152.976C95.0769 152.976 81.2252 109.397 85.8118 97.3091L100.652 100.373Z" fill="url(#paint5_linear_3334_36209)"/>
<path d="M79.3995 59.6272C74.4575 54.3092 60.935 50.9123 60.935 50.9123L51.2131 52.1418L42.5527 50.8545C42.5527 50.8545 25.9282 55.6444 21.8937 60.9862C21.4191 61.6148 4.96996 66.1759 1.77148 100.373L17.8342 105.292C17.8342 105.292 23.5705 98.6855 25.9353 86.9811C25.9353 86.9811 16.0668 130.568 12.9566 142.047C12.9566 142.047 13.8129 142.468 15.3286 143.084C29.017 148.637 74.2751 148.637 87.9634 143.084C89.4792 142.47 90.3355 142.047 90.3355 142.047C87.2241 130.568 76.4909 86.9811 76.4909 86.9811C78.2178 97.2297 84.592 105.292 84.592 105.292L100.655 100.373C97.7437 68.904 80.2487 60.5399 79.3995 59.6272Z" fill="url(#paint6_linear_3334_36209)"/>
<path d="M37.3809 54.5858C39.0874 59.3367 48.1284 60.6052 53.2016 60.6052C56.5313 60.6052 64.4893 60.1137 66.4511 55.5589C66.7647 54.8322 66.9698 53.8743 66.7873 52.7176C63.4923 51.5547 60.9366 50.9123 60.9366 50.9123L51.2147 52.1418L42.5543 50.8545C42.5543 50.8545 40.2359 51.5233 37.1209 52.6384C37.0601 53.3839 37.1853 54.0414 37.3809 54.5858Z" fill="url(#paint7_linear_3334_36209)"/>
<path d="M42.2229 50.8984C43.9581 49.2817 46.2395 46.448 46.9336 42.3018H58.9893C58.9893 42.3018 58.3012 46.7484 61.9886 51.1939C71.3849 62.5274 31.9906 60.4304 42.2229 50.8984Z" fill="url(#paint8_linear_3334_36209)"/>
<path opacity="0.65" d="M58.9904 42.3033H46.9347C46.6175 44.2004 45.9604 45.8096 45.1816 47.1674C46.7499 48.417 48.6043 49.5019 50.8129 50.3392C51.8922 50.7478 53.0836 50.729 54.1438 50.2676C55.4985 49.6792 57.4651 48.554 59.4496 46.5199C58.7185 44.086 58.9904 42.3033 58.9904 42.3033Z" fill="url(#paint9_linear_3334_36209)"/>
<path d="M67.8966 20.8755C67.0189 19.4411 66.0076 20.9836 65.6665 20.9686C64.8663 18.5372 62.1555 7.52921 50.3085 8.13894C41.5789 8.58776 37.4824 18.5057 37.4824 18.5057C37.4824 18.5057 37.4848 20.3437 37.3643 21.8863C36.8503 21.1974 35.9082 19.9113 34.8254 20.8768C32.6406 22.8254 34.5868 30.967 38.26 32.8025C38.7501 40.7291 43.3367 43.9248 50.8118 46.756C51.891 47.1646 53.0824 47.1457 54.1426 46.6856C57 45.4448 64.0314 43.5854 65.3051 32.2506C68.4189 29.7073 69.3229 23.2089 67.8966 20.8755Z" fill="url(#paint10_linear_3334_36209)"/>
<path d="M1.77148 100.373L17.8342 105.292C17.8342 105.292 18.8014 104.167 20.1001 102.055L2.15304 96.8802C2.01351 98.0105 1.88359 99.1683 1.77148 100.373Z" fill="url(#paint11_linear_3334_36209)"/>
<path d="M82.457 102.159C82.5155 102.255 82.5703 102.339 82.6276 102.43C82.7468 102.619 82.8637 102.805 82.9758 102.978C83.0497 103.092 83.1201 103.199 83.1905 103.306C83.2811 103.443 83.3681 103.575 83.4516 103.698C83.5136 103.789 83.5756 103.883 83.6329 103.966C83.7283 104.104 83.8154 104.229 83.8977 104.347C83.9716 104.452 84.0396 104.547 84.1028 104.635C84.1624 104.718 84.2244 104.803 84.2733 104.87C84.3114 104.921 84.3449 104.967 84.3771 105.009C84.4176 105.063 84.4581 105.119 84.4867 105.155C84.5034 105.178 84.5249 105.205 84.5381 105.222C84.5631 105.253 84.5893 105.288 84.5893 105.288L100.652 100.369C100.544 99.1923 100.411 98.057 100.269 96.9444L82.457 102.159Z" fill="url(#paint12_linear_3334_36209)"/>
<path d="M53.4987 5.06527C42.725 4.13621 34.8529 9.97585 37.7496 27.1968L39.8581 17.563C40.1873 16.0619 41.703 15.2133 43.0602 15.7853C46.5019 17.2361 52.9979 18.9295 59.6703 15.1328C61 14.376 62.6541 15.1467 63.0644 16.6804C63.7251 19.1508 64.5539 22.769 64.9224 26.5129L66.1329 19.7467C66.1329 19.7467 64.2713 5.99559 53.4987 5.06527Z" fill="url(#paint13_linear_3334_36209)"/>
<path d="M38.1383 8.9977C38.1383 8.9977 35.926 2.33334 39.245 0C39.245 0 47.6216 5.33173 54.7341 2.66523C61.8466 -5.99474e-06 66.1136 9.66275 63.2681 11.8289C61.7679 12.9717 41.9307 15.6621 38.1383 8.9977Z" fill="url(#paint14_linear_3334_36209)"/>
<path opacity="0.55" d="M87.2456 130.128C86.8557 128.592 86.4502 126.988 86.0328 125.333C70.6796 128.202 31.6062 128.152 17.1081 125.18C16.7169 126.83 16.3353 128.433 15.9668 129.967C30.0964 133.294 72.2097 133.346 87.2456 130.128Z" fill="white"/>
<path opacity="0.55" d="M84.0322 117.366C83.6183 115.712 83.2034 114.05 82.7919 112.404C67.112 114.502 35.083 114.457 20.1341 112.266C19.7525 113.911 19.3661 115.572 18.9785 117.227C33.9179 119.663 68.3343 119.708 84.0322 117.366Z" fill="white"/>
<defs>
<linearGradient id="paint0_linear_3334_36209" x1="24.1493" y1="286.92" x2="24.1493" y2="319.168" gradientUnits="userSpaceOnUse">
<stop stop-color="#FFEFB4"/>
<stop offset="1" stop-color="#FF9F33"/>
</linearGradient>
<linearGradient id="paint1_linear_3334_36209" x1="78.4894" y1="286.92" x2="78.4894" y2="319.168" gradientUnits="userSpaceOnUse">
<stop stop-color="#FFEFB4"/>
<stop offset="1" stop-color="#FF9F33"/>
</linearGradient>
<linearGradient id="paint2_linear_3334_36209" x1="50.9336" y1="93.5986" x2="50.9336" y2="264.546" gradientUnits="userSpaceOnUse">
<stop stop-color="#0E052B"/>
<stop offset="1" stop-color="#27078A"/>
</linearGradient>
<linearGradient id="paint3_linear_3334_36209" x1="49.335" y1="-22.1322" x2="51.297" y2="21.1389" gradientUnits="userSpaceOnUse">
<stop stop-color="#0E052B"/>
<stop offset="1" stop-color="#27078A"/>
</linearGradient>
<linearGradient id="paint4_linear_3334_36209" x1="9.66547" y1="51.702" x2="7.95069" y2="166.379" gradientUnits="userSpaceOnUse">
<stop stop-color="#FFEFB4"/>
<stop offset="1" stop-color="#FF9F33"/>
</linearGradient>
<linearGradient id="paint5_linear_3334_36209" x1="94.5455" y1="53.0445" x2="92.8317" y2="167.658" gradientUnits="userSpaceOnUse">
<stop stop-color="#FFEFB4"/>
<stop offset="1" stop-color="#FF9F33"/>
</linearGradient>
<linearGradient id="paint6_linear_3334_36209" x1="57.6893" y1="177.748" x2="40.9968" y2="-1.70904" gradientUnits="userSpaceOnUse">
<stop stop-color="#FF7B00"/>
<stop offset="1" stop-color="#F50000"/>
</linearGradient>
<linearGradient id="paint7_linear_3334_36209" x1="40.2067" y1="24.6812" x2="57.5741" y2="62.8085" gradientUnits="userSpaceOnUse">
<stop stop-color="#0E052B"/>
<stop offset="1" stop-color="#27078A"/>
</linearGradient>
<linearGradient id="paint8_linear_3334_36209" x1="43.3464" y1="32.7156" x2="56.1438" y2="60.8103" gradientUnits="userSpaceOnUse">
<stop stop-color="#FFEFB4"/>
<stop offset="1" stop-color="#FF9F33"/>
</linearGradient>
<linearGradient id="paint9_linear_3334_36209" x1="42.445" y1="-37.6392" x2="54.9467" y2="58.4817" gradientUnits="userSpaceOnUse">
<stop stop-color="#FFEFB4"/>
<stop offset="1" stop-color="#FF9F33"/>
</linearGradient>
<linearGradient id="paint10_linear_3334_36209" x1="52.5239" y1="84.2733" x2="50.8714" y2="14.7811" gradientUnits="userSpaceOnUse">
<stop stop-color="#FFEFB4"/>
<stop offset="1" stop-color="#FF9F33"/>
</linearGradient>
<linearGradient id="paint11_linear_3334_36209" x1="9.39446" y1="106.897" x2="12.5131" y2="94.8545" gradientUnits="userSpaceOnUse">
<stop stop-color="#0E052B"/>
<stop offset="1" stop-color="#27078A"/>
</linearGradient>
<linearGradient id="paint12_linear_3334_36209" x1="93.1348" y1="107.156" x2="90.0123" y2="95.099" gradientUnits="userSpaceOnUse">
<stop stop-color="#0E052B"/>
<stop offset="1" stop-color="#27078A"/>
</linearGradient>
<linearGradient id="paint13_linear_3334_36209" x1="51.7661" y1="-20.7335" x2="51.6024" y2="26.5796" gradientUnits="userSpaceOnUse">
<stop stop-color="#0E052B"/>
<stop offset="1" stop-color="#27078A"/>
</linearGradient>
<linearGradient id="paint14_linear_3334_36209" x1="50.8734" y1="-20.7368" x2="50.7098" y2="26.5767" gradientUnits="userSpaceOnUse">
<stop stop-color="#0E052B"/>
<stop offset="1" stop-color="#27078A"/>
</linearGradient>
</defs>
</svg>
