<svg width="102" height="317" viewBox="0 0 102 317" fill="none" xmlns="http://www.w3.org/2000/svg">
<path d="M67.1635 19.2023C67.1635 29.2837 59.7898 37.4567 50.694 37.4567C41.5983 37.4567 34.2246 29.2837 34.2246 19.2023C34.2246 9.12087 41.064 3.56787 50.1598 3.56787C59.2567 3.56787 67.1635 9.11961 67.1635 19.2023Z" fill="url(#paint0_linear_3334_36129)"/>
<path d="M10.3283 311.518C10.3283 311.518 8.34267 312.803 8.02306 313.253C7.70345 313.703 7.3433 318.048 14.3365 316.182C14.3365 316.182 17.9238 316.843 22.576 314.595C27.2283 312.347 35.2054 315.36 38.4599 312.653C41.7144 309.947 37.9578 305.809 36.9549 303.029C36.5637 301.947 36.1606 292.09 36.1606 292.09L26.0798 294.157C26.0798 294.157 26.3553 302.226 25.1544 303.211C23.9535 304.198 16.1719 308.422 15.2107 308.836C14.2495 309.252 12.5656 310.232 10.3283 311.518Z" fill="url(#paint1_linear_3334_36129)"/>
<path d="M91.6549 311.518C91.6549 311.518 93.6406 312.803 93.9602 313.253C94.2798 313.703 94.64 318.048 87.6467 316.182C87.6467 316.182 84.0595 316.843 79.4072 314.595C74.755 312.347 66.7779 315.36 63.5234 312.653C60.2688 309.947 64.0254 305.809 65.0284 303.029C65.4195 301.947 65.8226 292.09 65.8226 292.09L75.9035 294.157C75.9035 294.157 75.628 302.226 76.8289 303.211C78.0298 304.198 85.8113 308.422 86.7726 308.836C87.7338 309.252 89.4177 310.232 91.6549 311.518Z" fill="url(#paint2_linear_3334_36129)"/>
<path d="M3.50639 99.2855C3.50639 99.2855 -2.15117 132.549 0.906585 153.098C0.906585 153.098 -1.26152 175.078 6.63927 183.317C6.63927 183.317 8.54979 183.317 8.16816 179.288C8.16816 179.288 11.2259 186.541 13.1364 183.317C15.0469 180.094 4.30184 170.972 7.0209 167.2C10.4591 162.43 10.8431 178.482 12.7536 173.243C14.6653 168.006 7.0209 151.889 7.0209 151.889C7.0209 151.889 20.8726 108.31 16.286 96.2217L3.50639 99.2855Z" fill="url(#paint3_linear_3334_36129)"/>
<path d="M98.266 99.2855C98.266 99.2855 103.925 132.549 100.867 153.098C100.867 153.098 103.035 175.078 95.1343 183.317C95.1343 183.317 93.2238 183.317 93.6055 179.288C93.6055 179.288 90.5477 186.541 88.6372 183.317C86.7255 180.094 97.4718 170.972 94.7527 167.2C91.3145 162.43 90.9305 178.482 89.02 173.243C87.1083 168.006 94.7527 151.889 94.7527 151.889C94.7527 151.889 80.901 108.31 85.4876 96.2217L98.266 99.2855Z" fill="url(#paint4_linear_3334_36129)"/>
<path d="M78.2577 211.793C82.3971 175.789 74.5452 140.96 74.5452 140.96H27.2311C27.2311 140.96 19.3792 175.789 23.5187 211.793C23.5187 211.793 19.4603 263.069 25.7285 297.029C25.7285 297.029 33.5601 300.744 36.3018 296.203C36.3018 296.203 41.9725 253.39 42.9671 218.341C43.0756 214.499 43.3058 210.669 44.7226 207.127C47.004 201.426 50.4267 192.13 52.3777 183.366C53.6824 192.83 56.2989 202.537 57.9327 208.049C58.8367 211.101 58.8582 214.293 58.8796 217.49C59.1265 254.519 65.4769 296.203 65.4769 296.203C68.2186 300.744 76.0503 297.029 76.0503 297.029C81.6375 269.285 78.2577 211.793 78.2577 211.793Z" fill="url(#paint5_linear_3334_36129)"/>
<path d="M79.072 59.6259C74.13 54.308 60.6074 50.9111 60.6074 50.9111L50.8856 52.1406L42.2251 50.8533C42.2251 50.8533 25.5995 55.6432 21.5662 60.9849C21.0832 61.6249 11.5987 69.4647 3.50586 99.2852L17.5055 104.205C17.5055 104.205 20.9174 94.2213 25.6066 85.8936C25.6066 85.8936 30.3387 129.48 27.2273 140.96C27.2273 140.96 28.0836 141.381 29.5993 141.997C43.2877 147.55 58.4799 147.55 72.1694 141.997C73.6852 141.382 74.5414 140.96 74.5414 140.96C71.43 129.48 76.1621 85.8936 76.1621 85.8936C80.2276 92.5756 84.2633 104.205 84.2633 104.205L98.2629 99.2852C91.1003 68.3848 79.8031 60.4129 79.072 59.6259Z" fill="url(#paint6_linear_3334_36129)"/>
<path d="M37.0522 54.5846C38.7588 59.3355 47.7997 60.604 52.8729 60.604C56.2025 60.604 64.1606 60.1125 66.1211 55.5577C66.4336 54.831 66.6399 53.873 66.4575 52.7164C63.1624 51.5535 60.6055 50.9111 60.6055 50.9111L50.8837 52.1406L42.2232 50.8533C42.2232 50.8533 39.9048 51.5221 36.7898 52.6372C36.7314 53.3827 36.8566 54.0415 37.0522 54.5846Z" fill="url(#paint7_linear_3334_36129)"/>
<path d="M41.8967 50.8988C43.6319 49.282 45.9132 46.4483 46.6073 42.3021H58.663C58.663 42.3021 57.9749 46.7488 61.6623 51.1942C71.0598 62.5265 31.6644 60.4308 41.8967 50.8988Z" fill="url(#paint8_linear_3334_36129)"/>
<path opacity="0.65" d="M58.6623 42.3021H46.6066C46.2894 44.1992 45.6323 45.8097 44.8535 47.1662C46.4217 48.4158 48.2762 49.502 50.4848 50.3381C51.5641 50.7467 52.7555 50.7278 53.8157 50.2677C55.1705 49.6793 57.137 48.5541 59.1214 46.52C58.3892 44.0848 58.6623 42.3021 58.6623 42.3021Z" fill="url(#paint9_linear_3334_36129)"/>
<path d="M67.5685 20.8759C66.6907 19.4414 65.6794 20.984 65.3384 20.9689C64.5381 18.5375 61.8274 7.52957 49.9804 8.13805C41.2508 8.58687 37.1543 18.5048 37.1543 18.5048C37.1543 18.5048 37.1567 20.3428 37.0362 21.8854C36.5234 21.1965 35.5801 19.9104 34.4972 20.8759C32.3124 22.8245 34.2587 30.9661 37.9318 32.8016C39.5048 38.2955 43.0086 43.9239 50.4837 46.7551C51.563 47.1637 52.7543 47.1449 53.8145 46.6847C56.6719 45.4439 62.2544 41.8609 64.977 32.2497C68.092 29.7064 68.996 23.2092 67.5685 20.8759Z" fill="url(#paint10_linear_3334_36129)"/>
<path opacity="0.6" d="M49.8115 156.012C49.8115 156.012 45.2571 177.461 49.1162 195.049C50.341 191.293 51.505 187.277 52.3756 183.366C52.3756 183.366 47.7615 172.44 49.8115 156.012Z" fill="white"/>
<path opacity="0.55" d="M28.6129 123.098C28.477 123.043 28.3518 122.991 28.2266 122.94C28.2683 124.686 28.2898 126.388 28.2862 128.02C28.3935 128.064 28.4973 128.108 28.6118 128.154C39.364 132.517 62.4057 132.517 73.1579 128.154C73.2724 128.108 73.3762 128.064 73.4835 128.02C73.4799 126.388 73.5014 124.686 73.5431 122.94C73.4179 122.991 73.2939 123.043 73.1579 123.098C62.4069 127.459 39.3652 127.459 28.6129 123.098Z" fill="white"/>
<path opacity="0.55" d="M28.227 109.537C27.9992 109.444 27.7917 109.358 27.5938 109.275C27.7047 111.013 27.8084 112.778 27.899 114.545C28.0076 114.591 28.1113 114.633 28.227 114.68C39.1641 119.116 62.6053 119.116 73.5424 114.68C73.6581 114.633 73.7618 114.589 73.8703 114.545C73.9622 112.779 74.0647 111.014 74.1768 109.275C73.9789 109.358 73.7713 109.445 73.5436 109.537C62.6041 113.975 39.1641 113.975 28.227 109.537Z" fill="white"/>
<path d="M3.50586 99.2852L17.5055 104.205C17.5055 104.205 17.936 102.949 18.6909 100.977L4.48377 95.8217C4.15581 96.9456 3.82905 98.0909 3.50586 99.2852Z" fill="url(#paint11_linear_3334_36129)"/>
<path d="M98.2656 99.2855C97.9388 97.8749 97.6001 96.5285 97.2567 95.2109L83.1211 101.083C83.8366 102.972 84.2648 104.205 84.2648 104.205L98.2656 99.2855Z" fill="url(#paint12_linear_3334_36129)"/>
<path d="M53.1742 5.06527C42.4005 4.13621 34.5295 9.97586 37.4251 27.1968L39.5335 17.563C39.8627 16.0619 41.3784 15.2133 42.7356 15.7853C46.1773 17.2361 52.6733 18.9296 59.3457 15.1328C60.6755 14.376 62.3295 15.1479 62.7398 16.6804C63.4005 19.1508 64.2293 22.769 64.5978 26.5129L65.8083 19.7467C65.8083 19.7467 63.9479 5.99433 53.1742 5.06527Z" fill="url(#paint13_linear_3334_36129)"/>
<path d="M37.8101 8.99644C37.8101 8.99644 35.5979 2.33209 38.9168 0C38.9168 0 47.2935 5.33174 54.406 2.66524C61.5185 3.59685e-06 65.7855 9.66275 62.94 11.8289C61.441 12.9704 41.6037 15.6608 37.8101 8.99644Z" fill="url(#paint14_linear_3334_36129)"/>
<defs>
<linearGradient id="paint0_linear_3334_36129" x1="49.0079" y1="-22.1328" x2="50.9698" y2="21.1383" gradientUnits="userSpaceOnUse">
<stop stop-color="#0E052B"/>
<stop offset="1" stop-color="#27078A"/>
</linearGradient>
<linearGradient id="paint1_linear_3334_36129" x1="23.823" y1="285.833" x2="23.823" y2="318.081" gradientUnits="userSpaceOnUse">
<stop stop-color="#FFEFB4"/>
<stop offset="1" stop-color="#FF9F33"/>
</linearGradient>
<linearGradient id="paint2_linear_3334_36129" x1="78.1611" y1="285.833" x2="78.1611" y2="318.081" gradientUnits="userSpaceOnUse">
<stop stop-color="#FFEFB4"/>
<stop offset="1" stop-color="#FF9F33"/>
</linearGradient>
<linearGradient id="paint3_linear_3334_36129" x1="9.5482" y1="50.6178" x2="7.83342" y2="165.294" gradientUnits="userSpaceOnUse">
<stop stop-color="#FFEFB4"/>
<stop offset="1" stop-color="#FF9F33"/>
</linearGradient>
<linearGradient id="paint4_linear_3334_36129" x1="94.096" y1="51.9552" x2="92.382" y2="166.569" gradientUnits="userSpaceOnUse">
<stop stop-color="#FFEFB4"/>
<stop offset="1" stop-color="#FF9F33"/>
</linearGradient>
<linearGradient id="paint5_linear_3334_36129" x1="50.8441" y1="92.5112" x2="50.8441" y2="263.459" gradientUnits="userSpaceOnUse">
<stop stop-color="#0E052B"/>
<stop offset="1" stop-color="#27078A"/>
</linearGradient>
<linearGradient id="paint6_linear_3334_36129" x1="57.2538" y1="175.373" x2="40.8714" y2="-0.748995" gradientUnits="userSpaceOnUse">
<stop stop-color="#FF7B00"/>
<stop offset="1" stop-color="#F50000"/>
</linearGradient>
<linearGradient id="paint7_linear_3334_36129" x1="39.878" y1="24.681" x2="57.2452" y2="62.8079" gradientUnits="userSpaceOnUse">
<stop stop-color="#0E052B"/>
<stop offset="1" stop-color="#27078A"/>
</linearGradient>
<linearGradient id="paint8_linear_3334_36129" x1="43.0211" y1="32.7153" x2="55.8187" y2="60.8102" gradientUnits="userSpaceOnUse">
<stop stop-color="#FFEFB4"/>
<stop offset="1" stop-color="#FF9F33"/>
</linearGradient>
<linearGradient id="paint9_linear_3334_36129" x1="42.1168" y1="-37.6406" x2="54.6185" y2="58.4813" gradientUnits="userSpaceOnUse">
<stop stop-color="#FFEFB4"/>
<stop offset="1" stop-color="#FF9F33"/>
</linearGradient>
<linearGradient id="paint10_linear_3334_36129" x1="52.1968" y1="84.273" x2="50.5444" y2="14.7808" gradientUnits="userSpaceOnUse">
<stop stop-color="#FFEFB4"/>
<stop offset="1" stop-color="#FF9F33"/>
</linearGradient>
<linearGradient id="paint11_linear_3334_36129" x1="9.48967" y1="107.033" x2="13.2836" y2="92.3831" gradientUnits="userSpaceOnUse">
<stop stop-color="#0E052B"/>
<stop offset="1" stop-color="#27078A"/>
</linearGradient>
<linearGradient id="paint12_linear_3334_36129" x1="92.5643" y1="108.213" x2="88.1029" y2="90.9857" gradientUnits="userSpaceOnUse">
<stop stop-color="#0E052B"/>
<stop offset="1" stop-color="#27078A"/>
</linearGradient>
<linearGradient id="paint13_linear_3334_36129" x1="51.4425" y1="-20.7341" x2="51.2789" y2="26.579" gradientUnits="userSpaceOnUse">
<stop stop-color="#0E052B"/>
<stop offset="1" stop-color="#27078A"/>
</linearGradient>
<linearGradient id="paint14_linear_3334_36129" x1="50.5463" y1="-20.7371" x2="50.3828" y2="26.5759" gradientUnits="userSpaceOnUse">
<stop stop-color="#0E052B"/>
<stop offset="1" stop-color="#27078A"/>
</linearGradient>
</defs>
</svg>
